<svg version="1" xmlns="http://www.w3.org/2000/svg" width="853.333" height="853.333" viewBox="0 0 640.000000 640.000000"><path d="M312.7 1.6c-.1.1-2.5.6-5.2.9-2.8.3-6.6.8-8.5 1.1-1.9.3-4.4.7-5.5.8-23.5 3.5-72.4 19.4-98.8 32.2-2.8 1.3-5.4 2.4-5.8 2.4-.4 0-8.7 3.8-18.4 8.5s-18 8.5-18.4 8.5c-.4 0-1.5.8-2.4 1.8-1.7 1.9-2 .3 4.5 24.2 1.1 4.1 2.1 8.2 2.3 9 .2.8.4 1.5.5 1.5.1 0 .3.7.5 1.5.1.8 1.7 6.7 3.5 13 1.7 6.3 3.8 14 4.7 17 .8 3 1.7 6.2 1.8 7 .2.8 1.3 4.6 2.5 8.5 2.4 7.8 2.4 7.8 3.5 12 .4 1.6 2.3 8.4 4.2 15 5.5 18.9 6.4 21.9 6.8 23.5.2.8 1 3.5 1.8 6 1.3 4 7 22.4 8.4 27.5.3 1.1.5 2.1.5 2.2-.4.8 4.3 10.3 6.4 13 3.6 4.7 10.1 8.2 16.4 8.8 19.1 1.8 22.3 2.6 36.5 8.9 3.9 1.7 7.2 3.3 7.5 3.7.3.3 1.6 1.2 3 1.9 8.6 4.5 25.7 20.6 34.4 32.4 7.9 10.7 16.2 25.3 20.7 36.3.5 1.3 1.4 3.3 1.9 4.5.6 1.3 1.2 3.2 1.4 4.3.2 1.1.9 3.3 1.6 5 .6 1.6 1.1 3.1 1.1 3.2 0 .2.5 1.7 1 3.5 3.8 12.3 5.3 23.7 5.3 40.3.1 13.9-.8 22.7-2.5 27.2-.5 1.3-.7 2.3-.4 2.3.8 0-4.5 14.2-7.5 20.2-1.7 3.4-5.1 8.6-7.5 11.7-6.3 8.2-18.6 19.1-21.5 19.1-.5 0-1 .4-1 .9 0 1.1-16.8 8.5-22.9 10.1-10 2.6-31.4 3.3-35.6 1.1-.5-.3-1.6-.6-2.5-.7-10.8-1.2-28-9.9-41.5-20.9-34.9-28.6-58.2-78.6-57.5-123.5 0-4.7.2-9.7.5-11.2 3.1-23 10.7-40.3 24.2-54.4 8.9-9.3 9.8-16.5 4.3-33.7-2.1-6.5-3.8-12-3.9-12.2-.1-.3-.1-.6-.2-.8 0-.1-.2-.9-.4-1.7-.3-.8-2.7-9.2-5.5-18.5-7.7-25.5-9-29.8-9.5-32-.3-1.1-1.1-4.3-1.9-7-4.7-15.8-11-38.5-14-49.5-.8-3-3.1-11.6-5.1-19-2.1-7.4-3.8-14-3.9-14.5-.1-.6-.6-2-1-3.3l-.8-2.3-2.8 2.3c-1.5 1.3-4.3 3.4-6.1 4.8-29.9 22.6-58.4 56.7-76.1 91-7.4 14.3-17.2 38.7-19.3 48-.2.8-1.2 5.1-2.3 9.5-1.1 4.4-2.3 9.8-2.8 12-.4 2.2-.9 4.7-1 5.5-.2.8-.6 3.5-1 6-.3 2.5-.8 5.3-1 6.4-1.3 7-1.9 19.1-1.9 38.6.1 19.7.5 28 2 38 .2 1.4.6 4.3 1 6.5.6 4.5 1 6.5 2.5 14 .6 2.7 1.2 6 1.5 7.3.2 1.2 1.1 5 2 8.5 1.9 7.1 1.9 7.2 2.9 11.2 1.4 5.4 10.6 31.8 11.5 32.9.4.6 1.4 2.9 2.1 5.1 1.4 4.5 15.1 32.3 19.7 40 3.7 6.2 11.5 18.7 12.5 20 .5.5 4.4 5.9 8.7 12 4.3 6 8.7 11.9 9.8 13 1 1.1 3.8 4.5 6.3 7.5s5.4 6.4 6.5 7.6c13.9 14.7 21.3 21.9 33.1 32 7.6 6.7 15.4 12.6 15.4 11.7 0-.3.8.1 1.8.9 1.9 1.8 22.2 12 22.2 11.2 0-.2 1 .2 2.3 1 4.8 3.1 38.3 13.6 61.2 19.2 20.7 5.1 23.1 5.7 25.8 6 1.6.2 3.2.6 3.7.9.4.3 2.5.7 4.6 1 2.2.4 4.7.8 5.6 1.1 2.2.6 4 1 19.8 3.9 21.4 3.9 40 7.1 47 8 2.5.3 5.2.8 6 1 .8.2 4 .6 7 1 3 .3 6.4.7 7.5.9 1.1.2 4 .7 6.5 1 2.5.3 5.8.9 7.3 1.1 1.6.3 5.2.8 8 1 2.9.2 6.3.7 7.7 1 1.4.3 5 .7 8 1 3 .2 6.6.6 8 .9 1.4.2 5.2.7 8.5 1 3.3.4 7.4.8 9 1 1.7.2 6.4.7 10.5 1.1 9.4.9 11.7 1.2 21 2.2 14 1.4 56.8.8 73.3-1.2 1.8-.2 5.7-.6 8.7-1 3-.3 7.8-1 10.5-1.6 2.8-.5 6.4-1.1 8-1.4 1.7-.2 3.9-.6 5-.9 1.1-.2 4.3-1 7-1.6 2.8-.6 5.7-1.3 6.5-1.5 4.6-1.1 17.8-5.9 23.7-8.7 13.6-6.4 23.4-14 30-23.6 2.3-3.1 4.1-5.9 4.1-6.2 0-.3.7-2.3 1.6-4.4.9-2.1 1.8-5.3 2.1-7 .2-1.7.7-4.7 1-6.6.7-3.8.7-33.8.1-41-.5-5.9-1.5-15.5-2.1-20.5-.2-2.2-.7-6.3-1-9-.3-2.8-.8-6.4-1.1-8-.3-1.7-.7-4.4-.9-6.1-.9-6.6-3.7-23.2-5-29.9-2-9.8-2.5-12.5-3-16.4-.3-1.8-.7-3.7-1-4.1-.3-.5-.8-2.8-1.1-5.2-.3-2.4-1.2-6.8-2-9.8-.8-3-1.4-5.7-1.4-6.1 0-.6 5.9-4.7 8.4-5.8 4.6-2 15.4-14 18.6-20.5 2.5-5.3 2.9-7 2.6-13.1-.8-15.2-8.6-27.1-40.6-61.4-1.4-1.5-3.8-4.5-5.5-6.6-1.6-2.2-3.6-4.7-4.5-5.5-2.1-2.2-6-7.8-6-8.6 0-.3-.9-1.9-2.1-3.5-2.2-3.2-6.9-14.1-7.5-17.7-2.2-12.6-6-23.9-14.2-42.2-8.8-19.6-24.6-50.2-36.8-71.3-1.9-3.2-3.4-6-3.4-6.2 0-.2-2.2-4-5-8.5s-5-8.3-5-8.5c0-1-13.3-21-14.1-21.3-.5-.2-.9-.8-.9-1.4 0-.5-1-2.4-2.3-4.1-10.9-14.8-17.1-23.3-17.6-23.7-.3-.3-2.4-2.8-4.6-5.5-5.3-6.6-7.7-9.5-9.5-11.5-.8-.8-4.2-4.7-7.5-8.5-7.9-9.2-7.1-8.3-14.4-16-14.6-15.2-35.2-28.5-54.5-35.2-3.9-1.3-7.8-2.6-8.6-2.8-8.6-2-11.9-2.7-14.5-3.1-1.6-.2-5.7-.8-9-1.3-5.4-.8-38-1.3-38.8-.5zM444 84.2c3.2.9 7.6 3.7 10.1 6.5 4.2 4.5 15.9 20.1 15.9 21.1 0 .6.7 1.2 1.5 1.6.8.3 1.5 1.1 1.5 1.8s1.1 2.5 2.5 4 2.5 3 2.5 3.3c0 .4 1.1 2.1 2.5 3.9 1.4 1.8 2.5 3.8 2.5 4.3 0 .6.7 1.7 1.6 2.4.9.7 2 2.2 2.5 3.4.5 1.1 1.8 3.3 2.9 5 1.1 1.6 2.3 3.7 2.7 4.5.3.8 1.7 3.1 2.9 5 3.1 5 10.8 18.4 10.9 19 0 .3.6 1.4 1.3 2.5 2.2 3.5 13.5 24.7 19.7 37.1 3.3 6.5 6.3 12 6.8 12.2.4.2.7.8.7 1.3 0 .4 1.1 3.3 2.5 6.4 1.3 3 2.4 5.8 2.4 6 .1.3 1.1 2.6 2.4 5.3 4.5 8.9 9.9 25.1 11.1 33.2.8 5.8 2.6 11.1 6.1 18.1 3.1 6.3 9.6 16.2 11.9 18.4.6.5 2.7 3.1 4.7 5.7 4.2 5.5 10.8 12.8 22.8 25.3 14.9 15.4 20 23.6 20.6 32.9.7 10-5.9 18.6-22.6 29.6-4.8 3.2-8.6 5.9-8.4 6.1.2.2.6 1.7.9 3.4.3 1.6 2.8 12.9 5.6 25 2.7 12.1 5.3 23.5 5.6 25.2.3 1.8 1.1 6.1 1.8 9.5.7 3.5 1.2 6.4 1.1 6.6-.1.1-1.3.5-2.6.8-11.8 2.4-25.6 2.4-36.8 0-9.5-2.1-22.1-8.1-31.1-14.9-5.7-4.3-8.1-4.8-11-2.2-2.7 2.4-2.1 6.1 1.4 9.6 7.1 7 27.5 17.3 38.3 19.4 13.1 2.5 27.2 2.7 38.2.6 2.9-.6 5.5-1.1 5.7-1.1.3 0 1.3 4.6 1.9 9.5.2 2.2.6 4.9.9 6 1 5.6 1.6 9.5 2.2 14.9.3 3.3.8 6.9 1 8 1.3 6.5 1.5 25 .4 29-1.4 5-6.9 11.5-11.7 14-7.4 3.7-35.7 3.6-51.8-.3-2.2-.5-5.1-1.2-6.5-1.5-4.5-.8-22.3-7.2-29.5-10.6-6.7-3.1-25.4-13.7-26.5-15-.3-.4-2.7-2.1-5.4-4-7.5-5-18.1-14.3-28.6-25-9.7-9.8-13-13.5-21.9-25-2.8-3.6-5.5-7-5.9-7.5-2.9-3.6-14-20.9-19.9-31-12.8-22.2-22.6-44.2-31.3-70.5-5.4-16.2-13.1-45.2-14.5-54.4-.3-2.1-.7-4.8-1-6-.5-2.4-1.4-8.3-2.1-14.1-.2-2.2-.7-5.6-1-7.5-.8-4.9-2.7-33.7-2.5-37.8.2-3.2.2-3.8.1-5.7-.2-2.2.9-23.3 1.4-28 .9-7.7 1.7-14.4 2-16.1.2-1.1.7-3.9 1.1-6.4 1.1-6.8 1.1-6.7 3.9-18 2.9-11.5 7.9-26.5 10.6-32 1-1.9 1.8-3.8 1.9-4.2.2-1.3 5.5-12.3 6.1-12.8.3-.3 1.4-2.1 2.3-4 3.1-6.3 14.4-22.5 19.9-28.6C414 93.3 422.5 86.3 430 83.6c1.6-.6 11.4-.2 14 .6z"/><path d="M503.5 245c-1.7.5-3.8 2.3-4.8 3.9-1.6 2.7-1.7 6.4-1.7 40.7.1 35.7.2 37.9 2 40.5 4.1 5.6 12.5 5.5 16-.4 1.9-3 2-5.2 2-40.9V251l-2.7-2.9c-3.2-3.4-6.5-4.4-10.8-3.1z"/></svg>