<svg xmlns="http://www.w3.org/2000/svg" viewBox="0 0 200 200"><defs><style>.cls-1{fill:#b5b5b5;}.cls-2{fill:#4a4a4a;}</style></defs><g id="Layer_2"><g id="Layer_4"><rect class="cls-1" width="200" height="200"/><path class="cls-2" d="M163.07,120.75c17.71-10.45-5.91-19.78-8-31.27-.89-7.6-13.57-28.81-14.11-29.7a111.27,111.27,0,0,0-10.52-14.37h0l-1.83-2h0c-16.58-21-42.11-12.26-66-.18,2.16,8.09,7.07,26.15,10.73,37.46a5.3,5.3,0,0,0,5,3.63c21.72.59,35.32,40.52,13.57,50.08-22.29,10-43.1-28.93-27.08-44.75A5.19,5.19,0,0,0,66,84.32c-3.52-10.83-8.23-28.07-10.55-36.69C17.56,75.11,25.87,127,58.87,153.38c13.9,10.66,66.09,15.62,73,16,11-.05,32.36-1,35-13.07h0c.08-.53.34-2.32.42-2.88l-.09,0C167.91,143,164.05,125.08,163.07,120.75Zm-3.91,34.82c-43.4,3.63-70.72-78.19-37.31-105.87a5.38,5.38,0,0,1,7.65.8,112.93,112.93,0,0,1,7.44,10.62c.13.22,12.93,21.62,13.76,28.66.58,4.87,5,9.65,9,13.87,8.85,8.34,6.21,11.26-1.32,15.8,0,0,5.21,20.66,5.42,31.06A5,5,0,0,1,159.16,155.57Z"/></g></g></svg>