<svg xmlns="http://www.w3.org/2000/svg" viewBox="0 0 980.69 1000"><defs><style>.cls-1{fill:url(#linear-gradient);}.cls-2{fill:#fff;}.cls-3{fill:#d76d77;}.cls-4{opacity:0.5;}.cls-5{opacity:0.25;}.cls-6{opacity:0.75;}.cls-7{fill:#ffdd67;}.cls-8{fill:#eba352;}.cls-9{fill:url(#linear-gradient-2);}</style><linearGradient id="linear-gradient" x1="109.85" y1="280.37" x2="1059.37" y2="828.58" gradientUnits="userSpaceOnUse"><stop offset="0.02" stop-color="#ff879f"/><stop offset="0.46" stop-color="#ffdacf"/><stop offset="0.77" stop-color="#ffdac2"/></linearGradient><linearGradient id="linear-gradient-2" x1="604.73" y1="647.87" x2="284.83" y2="647.87" gradientUnits="userSpaceOnUse"><stop offset="0" stop-color="#462e71"/><stop offset="1" stop-color="#5c2026"/></linearGradient></defs><g id="Layer_2"><g id="Layer_3"><path class="cls-1" d="M415.51,164c-106.1,113.41-229.74,38.65-312,133-90.14,103.39,28.25,227.69-31,505C48.86,912.69,15.28,961.77,0,1000H980.51V0H482.23C466.79,53.53,470.55,105.18,415.51,164Z"/><path class="cls-2" d="M980.69,292.75,577.16,307.1a17,17,0,0,0-16.41,17.62L563.17,393a17,17,0,0,0,17.63,16.41l399.89-14.21Z"/><path d="M678.67,338.81l-3.17.31a1.55,1.55,0,0,0-.37-.72,2,2,0,0,0-.72-.51,2.64,2.64,0,0,0-1-.16,2.56,2.56,0,0,0-1.35.39,1,1,0,0,0-.52.92,1,1,0,0,0,.38.74,2.83,2.83,0,0,0,1.25.45l2.28.38a5.69,5.69,0,0,1,2.77,1.11,2.85,2.85,0,0,1,1,2.15,3.44,3.44,0,0,1-.64,2.18,4.64,4.64,0,0,1-1.93,1.52,7.57,7.57,0,0,1-2.86.62,6.73,6.73,0,0,1-4-.9,4,4,0,0,1-1.82-2.77l3.41-.3a1.73,1.73,0,0,0,.79,1.13,3.16,3.16,0,0,0,3-.07,1.07,1.07,0,0,0,.53-.93,1,1,0,0,0-.42-.77,3,3,0,0,0-1.22-.42l-2.19-.36a5.19,5.19,0,0,1-2.77-1.17,3.16,3.16,0,0,1-1-2.28,3.4,3.4,0,0,1,.58-2.1,4.31,4.31,0,0,1,1.8-1.41,7.72,7.72,0,0,1,2.79-.57,6.24,6.24,0,0,1,3.76.87A3.86,3.86,0,0,1,678.67,338.81Z"/><path d="M685,347.78a5.24,5.24,0,0,1-2.14-.34,3.38,3.38,0,0,1-1.53-1.2,3.7,3.7,0,0,1-.61-2,3.58,3.58,0,0,1,.32-1.77,3.18,3.18,0,0,1,1-1.18,4.94,4.94,0,0,1,1.48-.7,10.75,10.75,0,0,1,1.76-.37l1.75-.28a2.68,2.68,0,0,0,1-.34.68.68,0,0,0,.28-.62v0a1.52,1.52,0,0,0-.53-1.18,2,2,0,0,0-1.39-.38,2.41,2.41,0,0,0-1.47.47,1.91,1.91,0,0,0-.7,1.05l-3.22-.15a4.5,4.5,0,0,1,.89-2,4.63,4.63,0,0,1,1.81-1.36,7,7,0,0,1,2.62-.54,7.84,7.84,0,0,1,2,.17,5.2,5.2,0,0,1,1.73.7,3.71,3.71,0,0,1,1.22,1.27,4,4,0,0,1,.5,1.9l.3,8.44-3.29.12-.06-1.74h-.1a3.47,3.47,0,0,1-.77,1.06,3.73,3.73,0,0,1-1.19.73A4.92,4.92,0,0,1,685,347.78Zm.91-2.43a2.87,2.87,0,0,0,1.34-.36,2.28,2.28,0,0,0,.89-.85,2.15,2.15,0,0,0,.3-1.2l-.05-1.32a1.83,1.83,0,0,1-.44.2,5.89,5.89,0,0,1-.62.18l-.7.15-.63.11a4.13,4.13,0,0,0-1.06.33,1.67,1.67,0,0,0-.69.55,1.3,1.3,0,0,0-.22.82,1.27,1.27,0,0,0,.55,1.07A2.25,2.25,0,0,0,686,345.35Z"/><path d="M699.39,347.24a4.77,4.77,0,0,1-2.6-.65,5,5,0,0,1-1.9-2.11,8.34,8.34,0,0,1-.8-3.51,8.16,8.16,0,0,1,.57-3.6,4.88,4.88,0,0,1,1.77-2.21,4.69,4.69,0,0,1,2.5-.8,3.83,3.83,0,0,1,1.77.29,3.66,3.66,0,0,1,1.17.84,5,5,0,0,1,.7,1h.1l-.22-6.27,3.46-.12.6,16.68-3.43.12-.07-2h-.14a4.46,4.46,0,0,1-.65,1.06,3.56,3.56,0,0,1-1.12.88A4.1,4.1,0,0,1,699.39,347.24Zm1-2.8a2.19,2.19,0,0,0,1.4-.52,2.83,2.83,0,0,0,.85-1.32,5.62,5.62,0,0,0,.25-2,5.69,5.69,0,0,0-.38-1.92,2.81,2.81,0,0,0-.94-1.24,2.29,2.29,0,0,0-1.45-.4,2.2,2.2,0,0,0-1.42.52,2.79,2.79,0,0,0-.84,1.32,5.65,5.65,0,0,0-.24,1.91,5.55,5.55,0,0,0,.38,1.92,2.87,2.87,0,0,0,.93,1.27A2.23,2.23,0,0,0,700.4,344.44Z"/><path d="M717.88,339.13l.26,7.24-3.47.12-.6-16.68,3.38-.12.22,6.38h.15a3.58,3.58,0,0,1,1.3-1.79,4.19,4.19,0,0,1,2.35-.71,4.51,4.51,0,0,1,2.3.48,3.89,3.89,0,0,1,1.57,1.57,5.22,5.22,0,0,1,.62,2.5l.29,8-3.47.12-.26-7.35a2.54,2.54,0,0,0-.65-1.78,2.12,2.12,0,0,0-1.67-.58,2.5,2.5,0,0,0-1.24.35,2,2,0,0,0-.82.9A2.88,2.88,0,0,0,717.88,339.13Z"/><path d="M734.65,346a6.29,6.29,0,0,1-3.31-.69,5.48,5.48,0,0,1-2.21-2.19,7.14,7.14,0,0,1-.87-3.35,7.22,7.22,0,0,1,.63-3.42,5.54,5.54,0,0,1,2.05-2.34,6.33,6.33,0,0,1,3.25-.92,6.26,6.26,0,0,1,3.3.69A5.48,5.48,0,0,1,739.7,336a7.15,7.15,0,0,1,.87,3.36,7.3,7.3,0,0,1-.62,3.41,5.61,5.61,0,0,1-2.05,2.34A6.39,6.39,0,0,1,734.65,346Zm-.08-2.69a2.15,2.15,0,0,0,1.42-.54,3.06,3.06,0,0,0,.83-1.38,6.46,6.46,0,0,0-.14-3.89,3.16,3.16,0,0,0-.92-1.32,2.14,2.14,0,0,0-1.46-.45,2.25,2.25,0,0,0-1.45.55,3.08,3.08,0,0,0-.84,1.39,6.22,6.22,0,0,0-.23,1.95,6,6,0,0,0,.37,1.94,2.94,2.94,0,0,0,.94,1.31A2.12,2.12,0,0,0,734.57,343.33Z"/><path d="M750.89,339.87l-.25-7.19,3.47-.12.44,12.51-3.33.12-.08-2.27H751a3.7,3.7,0,0,1-1.34,1.82,4.13,4.13,0,0,1-2.37.75,4.2,4.2,0,0,1-2.23-.49,3.88,3.88,0,0,1-1.54-1.57,5.58,5.58,0,0,1-.63-2.49l-.29-8,3.47-.12.27,7.34a2.54,2.54,0,0,0,.65,1.73,2,2,0,0,0,1.6.59,2.39,2.39,0,0,0,1.16-.33,2.21,2.21,0,0,0,.85-.89A2.64,2.64,0,0,0,750.89,339.87Z"/><path d="M757.32,345l-.44-12.51,3.36-.12.08,2.19h.13a3.27,3.27,0,0,1,1.08-1.8,3.09,3.09,0,0,1,1.84-.67,5.53,5.53,0,0,1,.56,0,2.83,2.83,0,0,1,.54.07l.11,3.07a5.89,5.89,0,0,0-.69-.1,5.42,5.42,0,0,0-.79,0,2.73,2.73,0,0,0-1.35.38,2.38,2.38,0,0,0-.91,1,2.55,2.55,0,0,0-.3,1.36l.25,7.08Z"/><path d="M776.79,335.33l-3.17.31a1.71,1.71,0,0,0-.38-.73,2,2,0,0,0-.72-.5,2.47,2.47,0,0,0-1-.17,2.56,2.56,0,0,0-1.35.39,1,1,0,0,0-.52.92.93.93,0,0,0,.39.74,2.84,2.84,0,0,0,1.25.46l2.28.37a5.7,5.7,0,0,1,2.76,1.11,2.81,2.81,0,0,1,1,2.15,3.43,3.43,0,0,1-.64,2.19,4.73,4.73,0,0,1-1.92,1.51,7.43,7.43,0,0,1-2.86.62,6.69,6.69,0,0,1-4-.9A4,4,0,0,1,766,341l3.41-.3a1.71,1.71,0,0,0,.79,1.12,2.71,2.71,0,0,0,1.54.34,2.65,2.65,0,0,0,1.45-.41,1.08,1.08,0,0,0,.54-.93,1,1,0,0,0-.43-.77,3,3,0,0,0-1.22-.42l-2.18-.36a5.15,5.15,0,0,1-2.77-1.17,3.16,3.16,0,0,1-1-2.27,3.36,3.36,0,0,1,.58-2.1,4.13,4.13,0,0,1,1.81-1.41,7.27,7.27,0,0,1,2.78-.57,6.15,6.15,0,0,1,3.77.87A3.89,3.89,0,0,1,776.79,335.33Z"/><path d="M668.74,372.45l0-1.24,5.16-8.85.9,0,.07,1.92-.61,0-3.9,6.69v.1l7.37-.27,0,1.34Zm6,2.35-.1-2.93,0-.58-.32-8.94,1.43-.05.45,12.45Z"/><path d="M684.33,374.62a5.28,5.28,0,0,1-2.16-.33,3.64,3.64,0,0,1-1.53-1.1,3,3,0,0,1-.66-1.7l1.53-.05a1.83,1.83,0,0,0,.45,1,2.43,2.43,0,0,0,1,.64,3.71,3.71,0,0,0,1.31.19,3.49,3.49,0,0,0,1.42-.33,2.34,2.34,0,0,0,.94-.81,2,2,0,0,0,.31-1.17,2.11,2.11,0,0,0-.38-1.2,2.25,2.25,0,0,0-1-.79,3.93,3.93,0,0,0-1.61-.24l-1,0,0-1.33,1,0a3,3,0,0,0,1.29-.31,2.12,2.12,0,0,0,.86-.79,2.07,2.07,0,0,0,.28-1.15,2.15,2.15,0,0,0-.32-1.09,1.9,1.9,0,0,0-.81-.7,2.59,2.59,0,0,0-1.21-.22,3,3,0,0,0-1.2.28,2.29,2.29,0,0,0-.91.7,1.88,1.88,0,0,0-.35,1.08l-1.45.05a3,3,0,0,1,.52-1.74,3.77,3.77,0,0,1,1.41-1.2,4.69,4.69,0,0,1,2-.49,4.07,4.07,0,0,1,2,.4,3.25,3.25,0,0,1,1.81,2.8,2.79,2.79,0,0,1-1.94,2.9V368a2.93,2.93,0,0,1,1.88.94,3.06,3.06,0,0,1,.74,2,3.18,3.18,0,0,1-.49,1.84,3.78,3.78,0,0,1-1.45,1.32A4.77,4.77,0,0,1,684.33,374.62Z"/><path d="M699.57,364.57l0,1.21-4.83.17,0-1.21Zm-3.51-2.12,1.44-.05.31,8.9a1.85,1.85,0,0,0,.22.9.82.82,0,0,0,.47.38,1.71,1.71,0,0,0,.6.08,2,2,0,0,0,.39,0l.24-.05.34,1.28a2.85,2.85,0,0,1-.4.12,3,3,0,0,1-.66.08,2.78,2.78,0,0,1-1.2-.22,2.36,2.36,0,0,1-1-.76,2.22,2.22,0,0,1-.43-1.33Z"/><path d="M702.07,373.82l-.34-9.33,1.39-.05,0,1.41h.1a2.25,2.25,0,0,1,.88-1.15,2.68,2.68,0,0,1,1.49-.49h.76l.05,1.46-.34-.05a4.7,4.7,0,0,0-.54,0,2.62,2.62,0,0,0-1.2.33,2.1,2.1,0,0,0-.81.81,2.05,2.05,0,0,0-.27,1.14l.21,5.9Z"/><path d="M711.19,373.72a3.74,3.74,0,0,1-1.62-.28,2.77,2.77,0,0,1-1.19-.94,2.73,2.73,0,0,1-.48-1.54,2.38,2.38,0,0,1,.27-1.31,2.22,2.22,0,0,1,.82-.82,4.55,4.55,0,0,1,1.15-.47q.65-.17,1.29-.27c.56-.1,1-.17,1.37-.22a2.24,2.24,0,0,0,.77-.22.5.5,0,0,0,.23-.5v0a1.9,1.9,0,0,0-.54-1.38,2,2,0,0,0-1.49-.45,2.51,2.51,0,0,0-2.38,1.5l-1.38-.44a3.31,3.31,0,0,1,.92-1.36,3.88,3.88,0,0,1,1.32-.72,6,6,0,0,1,1.42-.24,6.71,6.71,0,0,1,1,.07,3.29,3.29,0,0,1,1.15.4,2.41,2.41,0,0,1,.95.95,3.66,3.66,0,0,1,.43,1.77l.22,6.15-1.43,0,0-1.27h-.07a2.65,2.65,0,0,1-.46.66,2.94,2.94,0,0,1-.89.63A3.61,3.61,0,0,1,711.19,373.72Zm.17-1.3a3,3,0,0,0,1.43-.38,2.28,2.28,0,0,0,.85-.9,2.23,2.23,0,0,0,.27-1.12l0-1.31a1,1,0,0,1-.39.21l-.7.18-.77.13-.6.1a5.17,5.17,0,0,0-1,.27,1.86,1.86,0,0,0-.77.51,1.24,1.24,0,0,0-.26.88,1.28,1.28,0,0,0,.6,1.1A2.44,2.44,0,0,0,711.36,372.42Z"/><path d="M721.88,373.31a4,4,0,0,1-2.28-.54,4.12,4.12,0,0,1-1.52-1.65,6,6,0,0,1-.6-2.47,5.83,5.83,0,0,1,.44-2.53,4.11,4.11,0,0,1,1.41-1.76,3.93,3.93,0,0,1,2.19-.7,4.35,4.35,0,0,1,1.79.3,3.63,3.63,0,0,1,1.33,1,3.31,3.31,0,0,1,.68,1.51l-1.44.05a2.17,2.17,0,0,0-2.29-1.55,2.45,2.45,0,0,0-1.45.49,2.79,2.79,0,0,0-.94,1.25,4.55,4.55,0,0,0-.28,1.86,4.6,4.6,0,0,0,.41,1.87,2.83,2.83,0,0,0,1,1.21,2.45,2.45,0,0,0,1.5.4,2.54,2.54,0,0,0,1-.24,2,2,0,0,0,.75-.58,2.22,2.22,0,0,0,.42-.89l1.43-.05a3.31,3.31,0,0,1-.54,1.5,3.39,3.39,0,0,1-1.22,1.09A4,4,0,0,1,721.88,373.31Z"/><path d="M727.64,372.91l-.44-12.44,1.43-.05.44,12.44Zm1.22-3.45-.09-1.77h.29l3.94-4.3,1.77-.07-4.19,4.56h-.13Zm4.71,3.24-3.81-4.49,1-1,4.64,5.46Z"/><path d="M743.31,365.1l-1.28.42a2.25,2.25,0,0,0-.38-.62,1.83,1.83,0,0,0-.65-.49,2.3,2.3,0,0,0-1-.16,2.49,2.49,0,0,0-1.41.44,1.18,1.18,0,0,0-.53,1,1,1,0,0,0,.42.84,3.46,3.46,0,0,0,1.23.47l1.4.29a3.82,3.82,0,0,1,1.9.86,2.19,2.19,0,0,1,.67,1.58,2.37,2.37,0,0,1-.41,1.45,3.05,3.05,0,0,1-1.24,1,4.62,4.62,0,0,1-1.9.44,4.23,4.23,0,0,1-2.38-.54,2.73,2.73,0,0,1-1.25-1.77l1.35-.39a1.88,1.88,0,0,0,.78,1.11,2.43,2.43,0,0,0,1.43.32,2.63,2.63,0,0,0,1.58-.48,1.25,1.25,0,0,0,.56-1.05,1.07,1.07,0,0,0-.37-.81,2.27,2.27,0,0,0-1.06-.46l-1.57-.31a3.73,3.73,0,0,1-1.92-.87,2.3,2.3,0,0,1-.65-1.59,2.22,2.22,0,0,1,.4-1.41,3,3,0,0,1,1.18-1,4.21,4.21,0,0,1,1.75-.41,3.5,3.5,0,0,1,2.2.53A3.38,3.38,0,0,1,743.31,365.1Z"/><path d="M754.13,369.69a2.65,2.65,0,0,1-1.36-.32,2.88,2.88,0,0,1-1-.93,2.7,2.7,0,0,1-.1-2.69,2.66,2.66,0,0,1,.94-1,2.48,2.48,0,0,1,1.33-.41,2.53,2.53,0,0,1,1.36.31,2.88,2.88,0,0,1,1,.93,2.7,2.7,0,0,1,.1,2.69,2.76,2.76,0,0,1-.94,1A2.64,2.64,0,0,1,754.13,369.69Z"/><path d="M765.13,371.58l0-1.09,3.95-4.64c.46-.55.84-1,1.14-1.42a5.1,5.1,0,0,0,.66-1.14,2.69,2.69,0,0,0,.18-1.09,2,2,0,0,0-.35-1.13,2.06,2.06,0,0,0-.88-.71,2.71,2.71,0,0,0-1.22-.22,2.54,2.54,0,0,0-1.24.34,2,2,0,0,0-.79.85,2.64,2.64,0,0,0-.25,1.25l-1.43.05a3.66,3.66,0,0,1,.43-1.94,3.54,3.54,0,0,1,1.33-1.33,4.08,4.08,0,0,1,2-.53,3.88,3.88,0,0,1,1.95.39,3.48,3.48,0,0,1,1.37,1.2,3.22,3.22,0,0,1,.54,1.73,3.85,3.85,0,0,1-.19,1.34,6.12,6.12,0,0,1-.8,1.49c-.39.54-.92,1.21-1.61,2l-2.69,3.09v.1l5.78-.2.05,1.33Z"/><path d="M776.74,365.55l.2,5.61-1.43,0-.45-12.44,1.44-.06.16,4.58h.12a2.7,2.7,0,0,1,1-1.19,3.23,3.23,0,0,1,1.74-.49,3.65,3.65,0,0,1,1.69.32,2.64,2.64,0,0,1,1.15,1.12,4.35,4.35,0,0,1,.47,2L783,371l-1.43.05-.21-5.84a2.41,2.41,0,0,0-.63-1.7,2.08,2.08,0,0,0-1.61-.55,2.56,2.56,0,0,0-1.25.34,2.11,2.11,0,0,0-.85.9A2.79,2.79,0,0,0,776.74,365.55Z"/><path d="M790.41,370.68l0-1.09,4-4.64c.46-.55.84-1,1.14-1.42a5.05,5.05,0,0,0,.66-1.13,2.78,2.78,0,0,0,.19-1.1,2.11,2.11,0,0,0-.36-1.13,2.06,2.06,0,0,0-.88-.71,2.83,2.83,0,0,0-1.22-.22,2.57,2.57,0,0,0-1.24.34,2.08,2.08,0,0,0-.79.85,2.64,2.64,0,0,0-.25,1.25l-1.43.06a3.55,3.55,0,0,1,.44-1.94,3.43,3.43,0,0,1,1.33-1.34,4,4,0,0,1,1.94-.53,3.88,3.88,0,0,1,1.95.39,3.41,3.41,0,0,1,1.37,1.2,3.34,3.34,0,0,1,.55,1.73,3.92,3.92,0,0,1-.2,1.35,6.26,6.26,0,0,1-.8,1.48c-.39.55-.92,1.21-1.61,2l-2.69,3.09v.09l5.78-.2,0,1.33Z"/><path d="M804.66,370.35a4.39,4.39,0,0,1-1.94-.36,3.66,3.66,0,0,1-1.42-1.12,3.15,3.15,0,0,1-.62-1.67l1.46-.05a2,2,0,0,0,.81,1.37,2.74,2.74,0,0,0,3,.08,2.43,2.43,0,0,0,.91-1,2.83,2.83,0,0,0,.29-1.43,3,3,0,0,0-.4-1.45,2.74,2.74,0,0,0-1-1,2.68,2.68,0,0,0-1.42-.32,4.07,4.07,0,0,0-1.17.21,3.45,3.45,0,0,0-1,.5l-1.41-.12.53-6.16,6.47-.23,0,1.34-5.2.19-.31,3.68h.07a3.37,3.37,0,0,1,.94-.54,3.47,3.47,0,0,1,1.2-.24,3.85,3.85,0,0,1,2.06.47,3.81,3.81,0,0,1,1.46,1.44,4.34,4.34,0,0,1,.59,2.13,4.11,4.11,0,0,1-.46,2.14,3.87,3.87,0,0,1-1.4,1.52A4.11,4.11,0,0,1,804.66,370.35Z"/><path d="M811.19,369.94l-.33-9.33,1.39-.05,0,1.46h.12a2.39,2.39,0,0,1,.9-1.19,2.85,2.85,0,0,1,1.55-.48,2.65,2.65,0,0,1,1.55.37,2.78,2.78,0,0,1,1,1.13h.1a2.75,2.75,0,0,1,1-1.19,3.4,3.4,0,0,1,1.7-.49,2.81,2.81,0,0,1,2.08.71,3.23,3.23,0,0,1,.88,2.4l.23,6.25-1.44.05-.22-6.25a1.73,1.73,0,0,0-.62-1.45,2.06,2.06,0,0,0-1.35-.4,2,2,0,0,0-1.5.65,2.11,2.11,0,0,0-.49,1.51l.22,6.08-1.46.05-.23-6.39a1.7,1.7,0,0,0-.56-1.27,2,2,0,0,0-2.38-.1,2.22,2.22,0,0,0-.75.85,2.41,2.41,0,0,0-.25,1.22l.21,5.83Z"/><rect class="cls-3" x="579.84" y="324.56" width="65" height="65" transform="matrix(1, -0.04, 0.04, 1, -12.3, 21.98)"/><g class="cls-4"><path class="cls-2" d="M980.69,550.85h-339a17,17,0,0,0-17,17v68.3a17,17,0,0,0,17,17h339Z"/><path d="M731.65,595.06V578.37H742.7v2.91h-7.52v4H742v2.91h-6.79v6.89Z"/><path d="M749.75,595.31a6.36,6.36,0,0,1-3.28-.81,5.49,5.49,0,0,1-2.13-2.27,8,8,0,0,1,0-6.77,5.49,5.49,0,0,1,2.13-2.27,7,7,0,0,1,6.56,0,5.49,5.49,0,0,1,2.13,2.27,8,8,0,0,1,0,6.77A5.49,5.49,0,0,1,753,594.5,6.36,6.36,0,0,1,749.75,595.31Zm0-2.69a2.15,2.15,0,0,0,1.44-.49,3,3,0,0,0,.88-1.35,6.7,6.7,0,0,0,0-3.9,3,3,0,0,0-.88-1.35,2.16,2.16,0,0,0-1.44-.5,2.24,2.24,0,0,0-1.47.5,3,3,0,0,0-.88,1.35,6.49,6.49,0,0,0,0,3.9,3,3,0,0,0,.88,1.35A2.23,2.23,0,0,0,749.77,592.62Z"/><path d="M758.18,595.06V582.55h3.36v2.18h.13a3.23,3.23,0,0,1,1.15-1.76,3,3,0,0,1,1.86-.6l.56,0a3.42,3.42,0,0,1,.53.09v3.08a4.68,4.68,0,0,0-.67-.13,5.79,5.79,0,0,0-.79-.06,2.8,2.8,0,0,0-1.37.33,2.44,2.44,0,0,0-.94.92,2.52,2.52,0,0,0-.35,1.35v7.08Z"/><path d="M773,595.06V578.37h3.52v6.89h7.17v-6.89h3.52v16.69h-3.52v-6.89h-7.17v6.89Z"/><path d="M791.76,580.93a1.89,1.89,0,0,1-1.33-.51,1.65,1.65,0,0,1,0-2.48,1.85,1.85,0,0,1,1.32-.52,1.89,1.89,0,0,1,1.33.51,1.68,1.68,0,0,1,0,2.49A1.88,1.88,0,0,1,791.76,580.93ZM790,595.06V582.55h3.48v12.51Z"/><path d="M796.25,595.06V582.55h3.3v2.2h.15A3.45,3.45,0,0,1,801,583a3.65,3.65,0,0,1,2.18-.64,3.73,3.73,0,0,1,2.19.64,3.05,3.05,0,0,1,1.21,1.73h.13a3.34,3.34,0,0,1,1.39-1.72,4.31,4.31,0,0,1,2.38-.65,3.8,3.8,0,0,1,2.85,1.12,4.3,4.3,0,0,1,1.1,3.15v8.41H811v-7.73a2,2,0,0,0-.55-1.56,1.94,1.94,0,0,0-1.39-.53,1.85,1.85,0,0,0-1.47.6,2.27,2.27,0,0,0-.53,1.58v7.64h-3.37v-7.8a2,2,0,0,0-.52-1.47,1.84,1.84,0,0,0-1.38-.55,1.91,1.91,0,0,0-1,.29,2.12,2.12,0,0,0-.73.81,2.57,2.57,0,0,0-.27,1.21v7.51Z"/><path d="M735.31,622.1a4.36,4.36,0,0,1-1.53-.29,3.54,3.54,0,0,1-1.4-.94,4.83,4.83,0,0,1-1-1.81,9.32,9.32,0,0,1-.38-2.87,12.4,12.4,0,0,1,.31-2.94,6.42,6.42,0,0,1,.9-2.17,4,4,0,0,1,1.42-1.34,3.94,3.94,0,0,1,1.89-.46,4.05,4.05,0,0,1,1.87.42,3.57,3.57,0,0,1,1.33,1.17,4,4,0,0,1,.67,1.72h-1.48a2.77,2.77,0,0,0-.81-1.41,2.21,2.21,0,0,0-1.58-.56,2.58,2.58,0,0,0-2.27,1.26,6.42,6.42,0,0,0-.84,3.56h.1a3.44,3.44,0,0,1,.81-.89,3.6,3.6,0,0,1,1-.56,3.5,3.5,0,0,1,1.21-.21,3.68,3.68,0,0,1,2,.54,3.9,3.9,0,0,1,1.42,1.46,4.2,4.2,0,0,1,.54,2.14A4.31,4.31,0,0,1,739,620a3.85,3.85,0,0,1-1.45,1.52A4,4,0,0,1,735.31,622.1Zm0-1.33a2.52,2.52,0,0,0,1.38-.39,2.69,2.69,0,0,0,1-1,2.9,2.9,0,0,0,.36-1.44,3,3,0,0,0-.35-1.41,2.61,2.61,0,0,0-.94-1,2.51,2.51,0,0,0-1.36-.38,2.58,2.58,0,0,0-1.08.23,2.82,2.82,0,0,0-.87.62,3,3,0,0,0-.59.91,2.75,2.75,0,0,0-.21,1.06,2.79,2.79,0,0,0,.35,1.39,2.74,2.74,0,0,0,1,1A2.54,2.54,0,0,0,735.31,620.77Z"/><path d="M742.24,621.93l5.57-11v-.09h-6.42v-1.34h8v1.41l-5.55,11Z"/><path d="M760.53,612.59v1.22h-4.84v-1.22Zm-3.43-2.24h1.44v8.91a1.83,1.83,0,0,0,.18.91.89.89,0,0,0,.46.4,2,2,0,0,0,.6.1,2.06,2.06,0,0,0,.39,0l.24,0,.29,1.28a2.49,2.49,0,0,1-.4.12,3.13,3.13,0,0,1-.67.06,2.75,2.75,0,0,1-1.18-.27,2.39,2.39,0,0,1-1-.79,2.31,2.31,0,0,1-.38-1.35Z"/><path d="M762.7,621.93v-9.34h1.38V614h.1a2.24,2.24,0,0,1,.93-1.12,2.68,2.68,0,0,1,1.5-.43h.4l.36,0v1.46l-.33-.06a4.91,4.91,0,0,0-.55,0,2.52,2.52,0,0,0-1.21.29,2.08,2.08,0,0,0-.84.77,2.15,2.15,0,0,0-.31,1.13v5.91Z"/><path d="M771.82,622.15a3.83,3.83,0,0,1-1.61-.33,2.66,2.66,0,0,1-1.58-2.54A2.41,2.41,0,0,1,769,618a2.2,2.2,0,0,1,.84-.79,4.86,4.86,0,0,1,1.18-.43c.42-.09.85-.17,1.29-.23s1-.13,1.38-.16a2.16,2.16,0,0,0,.78-.2.53.53,0,0,0,.25-.49v0a2,2,0,0,0-.49-1.4,2,2,0,0,0-1.48-.49,2.6,2.6,0,0,0-1.62.45,2.77,2.77,0,0,0-.82,1l-1.36-.49a3.24,3.24,0,0,1,1-1.33,3.63,3.63,0,0,1,1.33-.67,6.06,6.06,0,0,1,1.44-.19,5.94,5.94,0,0,1,1,.11,3.38,3.38,0,0,1,1.14.43,2.6,2.6,0,0,1,.92,1,3.78,3.78,0,0,1,.36,1.78v6.15h-1.43v-1.26h-.08a2.5,2.5,0,0,1-.48.65,2.81,2.81,0,0,1-.91.59A3.55,3.55,0,0,1,771.82,622.15Zm.22-1.29a2.89,2.89,0,0,0,1.44-.33,2.28,2.28,0,0,0,.88-.86,2.18,2.18,0,0,0,.31-1.12v-1.31a.91.91,0,0,1-.4.2,5.48,5.48,0,0,1-.71.15l-.77.11-.6.07a5.39,5.39,0,0,0-1.05.24,1.91,1.91,0,0,0-.78.48,1.25,1.25,0,0,0-.29.87,1.27,1.27,0,0,0,.55,1.12A2.45,2.45,0,0,0,772,620.86Z"/><path d="M782.52,622.13a4.07,4.07,0,0,1-2.26-.62,4.13,4.13,0,0,1-1.46-1.71,5.83,5.83,0,0,1-.51-2.49,5.69,5.69,0,0,1,.53-2.51,4.1,4.1,0,0,1,1.47-1.71,4,4,0,0,1,2.21-.62,4,4,0,0,1,1.77.37,3.37,3.37,0,0,1,1.3,1,3.22,3.22,0,0,1,.63,1.53h-1.44a2.21,2.21,0,0,0-2.24-1.63,2.53,2.53,0,0,0-1.47.44,2.86,2.86,0,0,0-1,1.22,4.54,4.54,0,0,0-.34,1.84,4.8,4.8,0,0,0,.34,1.89,2.83,2.83,0,0,0,1,1.24,2.49,2.49,0,0,0,1.48.45,2.54,2.54,0,0,0,1-.2,2,2,0,0,0,.77-.56,2.12,2.12,0,0,0,.45-.87h1.44a3.43,3.43,0,0,1-.6,1.49,3.39,3.39,0,0,1-1.26,1A4,4,0,0,1,782.52,622.13Z"/><path d="M788.29,621.93V609.48h1.43v12.45Zm1.34-3.4,0-1.78h.29l4.09-4.16h1.78L791.4,617h-.12Zm4.59,3.4-3.64-4.62,1-1,4.45,5.62Z"/><path d="M804.22,614.68l-1.29.37a2.63,2.63,0,0,0-.35-.63,1.83,1.83,0,0,0-.64-.51,2.36,2.36,0,0,0-1-.2,2.45,2.45,0,0,0-1.42.39,1.19,1.19,0,0,0-.57,1,1,1,0,0,0,.39.84,3.21,3.21,0,0,0,1.21.52l1.39.34a3.78,3.78,0,0,1,1.87.93,2.17,2.17,0,0,1,.61,1.6,2.38,2.38,0,0,1-.46,1.44,3,3,0,0,1-1.28,1,4.52,4.52,0,0,1-1.91.37,4.2,4.2,0,0,1-2.36-.62,2.77,2.77,0,0,1-1.19-1.81l1.36-.34a1.9,1.9,0,0,0,.74,1.13,2.49,2.49,0,0,0,1.43.37,2.66,2.66,0,0,0,1.6-.43,1.25,1.25,0,0,0,.59-1,1.11,1.11,0,0,0-.34-.81,2.24,2.24,0,0,0-1.05-.5l-1.56-.36a3.74,3.74,0,0,1-1.88-1,2.26,2.26,0,0,1-.6-1.61,2.3,2.3,0,0,1,.45-1.4,3.08,3.08,0,0,1,1.22-.95,4.32,4.32,0,0,1,1.76-.35,3.45,3.45,0,0,1,2.18.61A3.25,3.25,0,0,1,804.22,614.68Z"/><path d="M814.88,619.65a2.62,2.62,0,0,1-1.35-.36,2.9,2.9,0,0,1-1-1,2.71,2.71,0,0,1,0-2.7,2.79,2.79,0,0,1,1-1,2.63,2.63,0,0,1,1.35-.37,2.57,2.57,0,0,1,1.34.37,2.7,2.7,0,0,1,1,1,2.71,2.71,0,0,1,0,2.7,2.81,2.81,0,0,1-1,1A2.56,2.56,0,0,1,814.88,619.65Z"/><path d="M830,622.1a5.22,5.22,0,0,1-2.15-.41,3.67,3.67,0,0,1-1.49-1.15,3.21,3.21,0,0,1-.6-1.72h1.54a1.81,1.81,0,0,0,.41,1,2.34,2.34,0,0,0,1,.67,3.38,3.38,0,0,0,1.3.24,3.58,3.58,0,0,0,1.43-.28,2.43,2.43,0,0,0,1-.78,2,2,0,0,0,.35-1.16,2.14,2.14,0,0,0-.34-1.21,2.3,2.3,0,0,0-1-.83,4,4,0,0,0-1.6-.29h-1v-1.34h1a3,3,0,0,0,1.3-.27,2.09,2.09,0,0,0,.88-.75,2,2,0,0,0,.32-1.15,2.09,2.09,0,0,0-.28-1.1,1.9,1.9,0,0,0-.78-.73,2.65,2.65,0,0,0-1.2-.26,3.07,3.07,0,0,0-1.21.24,2.28,2.28,0,0,0-.93.67,1.78,1.78,0,0,0-.39,1.06H826a3,3,0,0,1,.59-1.71,3.7,3.7,0,0,1,1.45-1.16,4.77,4.77,0,0,1,2-.41,4,4,0,0,1,2,.46,3.34,3.34,0,0,1,1.27,1.23,3.15,3.15,0,0,1,.44,1.64,2.94,2.94,0,0,1-.55,1.8,2.79,2.79,0,0,1-1.49,1v.1a2.87,2.87,0,0,1,1.84,1,3,3,0,0,1,.67,2,3.11,3.11,0,0,1-.56,1.82,3.71,3.71,0,0,1-1.49,1.27A4.89,4.89,0,0,1,830,622.1Z"/><path d="M838.16,616.31v5.62h-1.44V609.48h1.44v4.57h.12a2.69,2.69,0,0,1,1-1.15,3.14,3.14,0,0,1,1.76-.43,3.58,3.58,0,0,1,1.67.38,2.55,2.55,0,0,1,1.11,1.16,4.33,4.33,0,0,1,.4,2v5.93h-1.43V616.1a2.4,2.4,0,0,0-.58-1.73,2.06,2.06,0,0,0-1.59-.61,2.61,2.61,0,0,0-1.26.3,2.14,2.14,0,0,0-.87.87A2.71,2.71,0,0,0,838.16,616.31Z"/><path d="M855.77,622.1a4.36,4.36,0,0,1-1.53-.29,3.54,3.54,0,0,1-1.4-.94,4.83,4.83,0,0,1-1-1.81,9.32,9.32,0,0,1-.38-2.87,12.4,12.4,0,0,1,.31-2.94,6.42,6.42,0,0,1,.9-2.17,4,4,0,0,1,1.42-1.34,3.94,3.94,0,0,1,1.89-.46,4.05,4.05,0,0,1,1.87.42,3.57,3.57,0,0,1,1.33,1.17,4,4,0,0,1,.67,1.72h-1.48a2.77,2.77,0,0,0-.81-1.41,2.21,2.21,0,0,0-1.58-.56,2.61,2.61,0,0,0-2.28,1.26,6.51,6.51,0,0,0-.83,3.56h.1a3.44,3.44,0,0,1,.81-.89,3.6,3.6,0,0,1,1-.56,3.46,3.46,0,0,1,1.21-.21,3.71,3.71,0,0,1,2,.54,4,4,0,0,1,1.42,1.46,4.2,4.2,0,0,1,.54,2.14,4.42,4.42,0,0,1-.52,2.11,3.85,3.85,0,0,1-1.45,1.52A4,4,0,0,1,855.77,622.1Zm0-1.33a2.47,2.47,0,0,0,1.37-.39,2.72,2.72,0,0,0,1-1,2.9,2.9,0,0,0,.36-1.44,3,3,0,0,0-.35-1.41,2.69,2.69,0,0,0-.94-1,2.51,2.51,0,0,0-1.36-.38,2.58,2.58,0,0,0-1.08.23,2.82,2.82,0,0,0-.87.62,3,3,0,0,0-.59.91,2.75,2.75,0,0,0-.21,1.06,2.79,2.79,0,0,0,.35,1.39,2.74,2.74,0,0,0,1,1A2.52,2.52,0,0,0,855.77,620.77Z"/><path d="M862.33,621.93v-9.34h1.39v1.46h.12a2.37,2.37,0,0,1,.95-1.16,2.8,2.8,0,0,1,1.56-.42,2.68,2.68,0,0,1,1.54.42,2.76,2.76,0,0,1,1,1.16h.1A2.78,2.78,0,0,1,870,612.9a3.25,3.25,0,0,1,1.72-.43,2.81,2.81,0,0,1,2,.78,3.28,3.28,0,0,1,.8,2.43v6.25h-1.44v-6.25a1.77,1.77,0,0,0-.57-1.48,2.11,2.11,0,0,0-1.33-.44,2,2,0,0,0-1.52.59,2.11,2.11,0,0,0-.54,1.5v6.08h-1.46v-6.39a1.71,1.71,0,0,0-.52-1.29,1.85,1.85,0,0,0-1.33-.49,2,2,0,0,0-1,.3,2.17,2.17,0,0,0-.77.82,2.42,2.42,0,0,0-.3,1.22v5.83Z"/><rect class="cls-3" x="642.51" y="569" width="65" height="65"/></g><g class="cls-5"><path class="cls-2" d="M980.69,673H659.61a17,17,0,0,0-17,17v68.29a17,17,0,0,0,17,17H980.69Z"/><path d="M751.29,703a1.91,1.91,0,0,1-1.33-.51,1.67,1.67,0,0,1,0-2.48,2,2,0,0,1,2.66,0,1.64,1.64,0,0,1,.55,1.23,1.68,1.68,0,0,1-.55,1.25A1.89,1.89,0,0,1,751.29,703Zm-1.75,14.14V704.65H753v12.52Z"/><path d="M758.69,700.48v1.76a4.14,4.14,0,0,1-.29,1.52,6.45,6.45,0,0,1-.77,1.47,6,6,0,0,1-1,1.17l-1.53-.9a9.1,9.1,0,0,0,.72-1.43,4.85,4.85,0,0,0,.31-1.82v-1.77Z"/><path d="M760.53,717.17V704.65h3.3v2.21H764a3.44,3.44,0,0,1,1.31-1.74,3.71,3.71,0,0,1,2.18-.63,3.66,3.66,0,0,1,2.19.64,3,3,0,0,1,1.21,1.73H771a3.36,3.36,0,0,1,1.39-1.73,4.3,4.3,0,0,1,2.38-.64,3.83,3.83,0,0,1,2.85,1.11,4.3,4.3,0,0,1,1.1,3.15v8.42h-3.47v-7.74a2,2,0,0,0-.55-1.56,1.93,1.93,0,0,0-1.39-.52,1.85,1.85,0,0,0-1.47.6,2.28,2.28,0,0,0-.53,1.57v7.65h-3.37v-7.81a2,2,0,0,0-.52-1.47,2,2,0,0,0-2.42-.25,2,2,0,0,0-.73.8,2.6,2.6,0,0,0-.27,1.21v7.52Z"/><path d="M786.84,717.17V700.48h3.47v6.27h.11a4.44,4.44,0,0,1,.66-1,3.58,3.58,0,0,1,1.15-.88,3.82,3.82,0,0,1,1.75-.35,4.7,4.7,0,0,1,2.53.71,5,5,0,0,1,1.85,2.14,9.66,9.66,0,0,1,0,7.12,5,5,0,0,1-1.83,2.17,4.63,4.63,0,0,1-2.58.74,4,4,0,0,1-1.71-.33,3.67,3.67,0,0,1-1.16-.85,4.47,4.47,0,0,1-.68-1h-.15v2Zm3.4-6.26a5.54,5.54,0,0,0,.31,2,2.94,2.94,0,0,0,.9,1.29,2.43,2.43,0,0,0,2.86,0,2.86,2.86,0,0,0,.89-1.31,5.6,5.6,0,0,0,.31-1.92,5.35,5.35,0,0,0-.31-1.91,2.83,2.83,0,0,0-.88-1.29,2.51,2.51,0,0,0-2.88,0,2.8,2.8,0,0,0-.89,1.27A5.41,5.41,0,0,0,790.24,710.91Z"/><path d="M804.93,717.4a5.21,5.21,0,0,1-2.14-.42,3.39,3.39,0,0,1-1.48-1.24,4.23,4.23,0,0,1-.16-3.82,3.2,3.2,0,0,1,1.05-1.14,4.84,4.84,0,0,1,1.5-.65,10.89,10.89,0,0,1,1.77-.31c.73-.08,1.32-.15,1.76-.22a2.39,2.39,0,0,0,1-.31.65.65,0,0,0,.31-.6v-.05a1.54,1.54,0,0,0-.49-1.2,2,2,0,0,0-1.37-.42,2.46,2.46,0,0,0-1.49.41,2,2,0,0,0-.74,1l-3.21-.26a4.39,4.39,0,0,1,1-2,4.64,4.64,0,0,1,1.86-1.29,7.07,7.07,0,0,1,2.63-.45,8.12,8.12,0,0,1,2,.24,5.31,5.31,0,0,1,1.71.76,3.81,3.81,0,0,1,1.18,1.31,4.12,4.12,0,0,1,.43,1.92v8.45h-3.29v-1.74h-.1a3.36,3.36,0,0,1-.81,1,3.51,3.51,0,0,1-1.21.69A4.87,4.87,0,0,1,804.93,717.4Zm1-2.39a2.87,2.87,0,0,0,1.36-.31,2.38,2.38,0,0,0,.92-.83,2.14,2.14,0,0,0,.33-1.18v-1.33a2,2,0,0,1-.44.2l-.64.15c-.23,0-.46.09-.7.12l-.63.1a4.27,4.27,0,0,0-1.07.28,1.77,1.77,0,0,0-.71.53,1.29,1.29,0,0,0-.25.82,1.24,1.24,0,0,0,.52,1.08A2.23,2.23,0,0,0,805.92,715Z"/><path d="M814.74,717.17V700.48h3.47v6.27h.11a4.44,4.44,0,0,1,.66-1,3.54,3.54,0,0,1,1.14-.88,3.86,3.86,0,0,1,1.76-.35,4.72,4.72,0,0,1,2.53.71,5,5,0,0,1,1.85,2.14,8.25,8.25,0,0,1,.69,3.58,8.47,8.47,0,0,1-.67,3.54,5,5,0,0,1-1.83,2.17,4.63,4.63,0,0,1-2.58.74,4,4,0,0,1-1.71-.33,3.67,3.67,0,0,1-1.16-.85,4.17,4.17,0,0,1-.68-1h-.16v2Zm3.4-6.26a5.54,5.54,0,0,0,.31,2,2.85,2.85,0,0,0,.89,1.29,2.31,2.31,0,0,0,1.43.46,2.22,2.22,0,0,0,1.43-.47,2.87,2.87,0,0,0,.9-1.31,6.26,6.26,0,0,0,0-3.83,2.85,2.85,0,0,0-.89-1.29,2.24,2.24,0,0,0-1.44-.46,2.28,2.28,0,0,0-1.43.45,2.73,2.73,0,0,0-.89,1.27A5.41,5.41,0,0,0,818.14,710.91Z"/><path d="M831,721.84a7.85,7.85,0,0,1-1.23-.1,5.8,5.8,0,0,1-1-.25l.78-2.6a3.13,3.13,0,0,0,1.55.15,1.49,1.49,0,0,0,1-1l.21-.53-4.49-12.88h3.65l2.59,9.19h.13l2.61-9.19,3.68,0-4.87,13.85a6,6,0,0,1-.94,1.75,4.09,4.09,0,0,1-1.52,1.16A5.4,5.4,0,0,1,831,721.84Z"/><path d="M753.51,731.58V744H752V733.16h-.07l-3,2v-1.53l3.11-2.07Z"/><path d="M761.07,744.21a5.16,5.16,0,0,1-2.21-.45,3.58,3.58,0,0,1-1.49-1.24,3.07,3.07,0,0,1-.53-1.79,3.35,3.35,0,0,1,.31-1.46,3.15,3.15,0,0,1,.87-1.13,2.58,2.58,0,0,1,1.23-.57v-.08a2.43,2.43,0,0,1-1.43-1,3.26,3.26,0,0,1,0-3.47,3.42,3.42,0,0,1,1.34-1.18,4.61,4.61,0,0,1,3.89,0,3.49,3.49,0,0,1,1.34,1.18,3.1,3.1,0,0,1,.49,1.7,3,3,0,0,1-.54,1.77,2.39,2.39,0,0,1-1.4,1v.08a2.56,2.56,0,0,1,1.21.57,3.39,3.39,0,0,1,.87,1.13,3.51,3.51,0,0,1,.33,1.46,3.16,3.16,0,0,1-.55,1.79,3.58,3.58,0,0,1-1.49,1.24A5.09,5.09,0,0,1,761.07,744.21Zm0-1.34a3.43,3.43,0,0,0,1.46-.28,2.09,2.09,0,0,0,1-.77,2.06,2.06,0,0,0,.34-1.16,2.19,2.19,0,0,0-.36-1.25,2.46,2.46,0,0,0-1-.85,3,3,0,0,0-1.41-.31,3.12,3.12,0,0,0-1.42.31,2.46,2.46,0,0,0-1,.85,2.26,2.26,0,0,0-.35,1.25,2,2,0,0,0,.33,1.16,2.09,2.09,0,0,0,1,.77A3.47,3.47,0,0,0,761.07,742.87Zm0-5.91a2.54,2.54,0,0,0,1.19-.27,2,2,0,0,0,1.12-1.87,2,2,0,0,0-1.1-1.84,2.73,2.73,0,0,0-1.21-.26,2.77,2.77,0,0,0-1.22.26,2,2,0,0,0-.81.73,2.13,2.13,0,0,0-.28,1.11,2,2,0,0,0,1.11,1.87A2.59,2.59,0,0,0,761.07,737Z"/><path d="M776.54,734.7v1.21H771.7V734.7Zm-3.43-2.24h1.44v8.9a1.8,1.8,0,0,0,.18.91.89.89,0,0,0,.46.4,1.72,1.72,0,0,0,.6.1,2.06,2.06,0,0,0,.39,0l.24,0,.29,1.29-.4.11a3.13,3.13,0,0,1-.67.06,3,3,0,0,1-1.19-.26,2.46,2.46,0,0,1-1-.8,2.31,2.31,0,0,1-.38-1.35Z"/><path d="M778.71,744V734.7h1.39v1.41h.09a2.22,2.22,0,0,1,.93-1.13,2.69,2.69,0,0,1,1.51-.43h.75V736l-.33,0a3.24,3.24,0,0,0-.55,0,2.54,2.54,0,0,0-1.21.28,2.25,2.25,0,0,0-.84.78,2.13,2.13,0,0,0-.31,1.13V744Z"/><path d="M787.83,744.25a3.83,3.83,0,0,1-1.61-.33,2.75,2.75,0,0,1-1.15-1,2.8,2.8,0,0,1-.43-1.56,2.43,2.43,0,0,1,.32-1.3,2.23,2.23,0,0,1,.85-.79,4.64,4.64,0,0,1,1.17-.43c.42-.09.85-.17,1.29-.22l1.38-.17a2.16,2.16,0,0,0,.78-.2.52.52,0,0,0,.25-.49v0a1.94,1.94,0,0,0-.49-1.4,2,2,0,0,0-1.48-.5,2.6,2.6,0,0,0-1.62.45,2.77,2.77,0,0,0-.82,1l-1.36-.49a3.4,3.4,0,0,1,1-1.33,3.76,3.76,0,0,1,1.34-.67,5.92,5.92,0,0,1,1.43-.19,6.14,6.14,0,0,1,1,.11,3.56,3.56,0,0,1,1.13.43,2.56,2.56,0,0,1,.92,1,3.7,3.7,0,0,1,.36,1.77V744h-1.43v-1.27h-.08a2.5,2.5,0,0,1-.48.65,2.81,2.81,0,0,1-.91.59A3.55,3.55,0,0,1,787.83,744.25Zm.22-1.28a2.89,2.89,0,0,0,1.44-.34,2.3,2.3,0,0,0,.89-.86,2.23,2.23,0,0,0,.3-1.11v-1.32a.91.91,0,0,1-.4.2,5.48,5.48,0,0,1-.71.15l-.77.11-.6.08a4.88,4.88,0,0,0-1.05.23,1.91,1.91,0,0,0-.78.48,1.25,1.25,0,0,0-.29.87,1.27,1.27,0,0,0,.56,1.13A2.47,2.47,0,0,0,788.05,743Z"/><path d="M798.53,744.23a4.07,4.07,0,0,1-2.26-.62,4,4,0,0,1-1.46-1.71,6.27,6.27,0,0,1,0-5,4.1,4.1,0,0,1,1.47-1.71,4,4,0,0,1,2.21-.62,4.18,4.18,0,0,1,1.77.37,3.37,3.37,0,0,1,1.3,1,3.16,3.16,0,0,1,.63,1.53h-1.44a2.28,2.28,0,0,0-.72-1.13,2.23,2.23,0,0,0-1.52-.5,2.5,2.5,0,0,0-1.46.44,2.85,2.85,0,0,0-1,1.22,4.4,4.4,0,0,0-.35,1.85,4.71,4.71,0,0,0,.34,1.88,2.86,2.86,0,0,0,1,1.25,2.76,2.76,0,0,0,2.5.25,2.16,2.16,0,0,0,.77-.56,2.23,2.23,0,0,0,.45-.88h1.44a3.29,3.29,0,0,1-1.86,2.53A4,4,0,0,1,798.53,744.23Z"/><path d="M804.3,744V731.58h1.43V744Zm1.34-3.41,0-1.78h.29L810,734.7h1.78l-4.36,4.4h-.12Zm4.59,3.41-3.64-4.63,1-1,4.45,5.62Z"/><path d="M820.23,736.79l-1.29.36a2.84,2.84,0,0,0-.35-.63A2,2,0,0,0,818,736a2.73,2.73,0,0,0-2.45.2,1.16,1.16,0,0,0-.57,1,1,1,0,0,0,.39.85,3.39,3.39,0,0,0,1.21.51l1.39.34a4,4,0,0,1,1.87.93,2.19,2.19,0,0,1,.61,1.6,2.36,2.36,0,0,1-.46,1.44,3.1,3.1,0,0,1-1.28,1,4.72,4.72,0,0,1-1.91.36,4.2,4.2,0,0,1-2.36-.62,2.75,2.75,0,0,1-1.19-1.81l1.36-.34a1.9,1.9,0,0,0,.74,1.13,2.49,2.49,0,0,0,1.43.38,2.68,2.68,0,0,0,1.59-.43,1.25,1.25,0,0,0,.6-1,1.12,1.12,0,0,0-.34-.82,2.24,2.24,0,0,0-1.05-.5l-1.56-.36a3.66,3.66,0,0,1-1.88-1,2.42,2.42,0,0,1-.15-3,3,3,0,0,1,1.22-1,4.32,4.32,0,0,1,1.76-.35,3.53,3.53,0,0,1,2.18.61A3.27,3.27,0,0,1,820.23,736.79Z"/><path d="M830.89,741.75a2.62,2.62,0,0,1-1.35-.36,2.81,2.81,0,0,1-1-1,2.62,2.62,0,0,1-.36-1.35,2.56,2.56,0,0,1,.36-1.34,2.73,2.73,0,0,1,1-1,2.62,2.62,0,0,1,1.35-.36,2.56,2.56,0,0,1,1.34.36,2.65,2.65,0,0,1,1,1,2.56,2.56,0,0,1,.36,1.34,2.62,2.62,0,0,1-.36,1.35,2.73,2.73,0,0,1-1,1A2.56,2.56,0,0,1,830.89,741.75Z"/><path d="M845.7,744.21a4.34,4.34,0,0,1-1.93-.43,3.48,3.48,0,0,1-1.37-1.17,3.11,3.11,0,0,1-.57-1.69h1.46a2,2,0,0,0,.77,1.4,2.52,2.52,0,0,0,1.64.55,2.62,2.62,0,0,0,1.37-.36,2.56,2.56,0,0,0,.94-1,2.9,2.9,0,0,0,.34-1.42,3,3,0,0,0-.35-1.46,2.64,2.64,0,0,0-1-1,2.69,2.69,0,0,0-1.42-.38,4,4,0,0,0-1.17.17,3.51,3.51,0,0,0-1,.46l-1.41-.17.75-6.13h6.47v1.34h-5.2l-.44,3.67h.07a3.34,3.34,0,0,1,1-.5,3.53,3.53,0,0,1,1.21-.2,3.8,3.8,0,0,1,3.45,2,4.44,4.44,0,0,1,.51,2.15,4.29,4.29,0,0,1-.53,2.13,4,4,0,0,1-1.46,1.47A4.15,4.15,0,0,1,845.7,744.21Z"/><path d="M852.22,744v-1.1l4.11-4.5c.48-.53.88-1,1.19-1.38a5.23,5.23,0,0,0,.7-1.1,2.73,2.73,0,0,0,.23-1.09,2,2,0,0,0-1.17-1.88,2.7,2.7,0,0,0-1.22-.27,2.51,2.51,0,0,0-1.25.3,2.15,2.15,0,0,0-.82.82,2.61,2.61,0,0,0-.29,1.24h-1.43a3.66,3.66,0,0,1,.5-1.92,3.57,3.57,0,0,1,1.38-1.29,4.23,4.23,0,0,1,2-.46,4.06,4.06,0,0,1,1.94.46,3.56,3.56,0,0,1,1.33,1.25,3.26,3.26,0,0,1,.48,1.75,3.7,3.7,0,0,1-.25,1.34,6,6,0,0,1-.85,1.45,25.43,25.43,0,0,1-1.68,2l-2.79,3v.1h5.79V744Z"/><path d="M862.61,744V734.7H864v1.45h.12a2.41,2.41,0,0,1,.95-1.16,2.8,2.8,0,0,1,1.56-.42,2.66,2.66,0,0,1,1.54.42,2.92,2.92,0,0,1,1,1.16h.09A2.78,2.78,0,0,1,870.3,735a3.35,3.35,0,0,1,1.72-.43,2.8,2.8,0,0,1,2.05.78,3.31,3.31,0,0,1,.8,2.43V744h-1.44v-6.26a1.77,1.77,0,0,0-.56-1.47,2.11,2.11,0,0,0-1.34-.45,1.94,1.94,0,0,0-1.52.6,2.12,2.12,0,0,0-.54,1.5V744H868v-6.4a1.72,1.72,0,0,0-.52-1.29,1.88,1.88,0,0,0-1.33-.49,2,2,0,0,0-1,.3,2.17,2.17,0,0,0-.77.82,2.42,2.42,0,0,0-.3,1.22V744Z"/><rect class="cls-3" x="660.51" y="691" width="65" height="65"/></g><g class="cls-6"><path class="cls-2" d="M980.69,163H619.21a17,17,0,0,0-17,17v68.29a17,17,0,0,0,17,17H980.69Z"/><path d="M711.61,207.21l-3.41-12.52h3.51l1.94,8.41h.12l2-8.41h3.45l2,8.36h.11l1.9-8.36h3.51l-3.4,12.52h-3.68l-2.15-7.87h-.15l-2.15,7.87Z"/><path d="M734,207.45a6.36,6.36,0,0,1-3.28-.81,5.43,5.43,0,0,1-2.14-2.26,8,8,0,0,1,0-6.78,5.49,5.49,0,0,1,2.14-2.26,7,7,0,0,1,6.56,0,5.53,5.53,0,0,1,2.13,2.26,8,8,0,0,1,0,6.78,5.47,5.47,0,0,1-2.13,2.26A6.38,6.38,0,0,1,734,207.45Zm0-2.68a2.12,2.12,0,0,0,1.44-.5,3,3,0,0,0,.88-1.35,6.46,6.46,0,0,0,0-3.89,3.12,3.12,0,0,0-.88-1.36,2.11,2.11,0,0,0-1.44-.49,2.19,2.19,0,0,0-1.46.49,3.14,3.14,0,0,0-.89,1.36,6.46,6.46,0,0,0,0,3.89,3,3,0,0,0,.89,1.35A2.19,2.19,0,0,0,734,204.77Z"/><path d="M742.42,207.21V194.69h3.37v2.19h.13a3.26,3.26,0,0,1,1.15-1.77,3,3,0,0,1,1.86-.6l.56,0,.53.09v3.08a6.42,6.42,0,0,0-.68-.13,7.79,7.79,0,0,0-.79-.05,2.77,2.77,0,0,0-1.36.33,2.45,2.45,0,0,0-1,.91,2.67,2.67,0,0,0-.34,1.36v7.08Z"/><path d="M751.8,207.21V190.52h3.48v16.69Zm3.15-3.6v-4.17h.5l4-4.75h4L758.07,201h-.82Zm4.68,3.6-3.69-5.45,2.32-2.46,5.43,7.91Z"/><path d="M770.29,207.45a6.36,6.36,0,0,1-3.28-.81,5.47,5.47,0,0,1-2.13-2.26,8,8,0,0,1,0-6.78,5.53,5.53,0,0,1,2.13-2.26,7,7,0,0,1,6.56,0,5.53,5.53,0,0,1,2.13,2.26,8,8,0,0,1,0,6.78,5.47,5.47,0,0,1-2.13,2.26A6.38,6.38,0,0,1,770.29,207.45Zm0-2.68a2.16,2.16,0,0,0,1.45-.5,3.1,3.1,0,0,0,.87-1.35,6.46,6.46,0,0,0,0-3.89,3.2,3.2,0,0,0-.87-1.36,2.16,2.16,0,0,0-1.45-.49,2.2,2.2,0,0,0-1.46.49A3.14,3.14,0,0,0,768,199a6.67,6.67,0,0,0,0,3.89,3,3,0,0,0,.89,1.35A2.21,2.21,0,0,0,770.3,204.77Z"/><path d="M786.74,201.88v-7.19h3.48v12.52h-3.34v-2.27h-.13a3.67,3.67,0,0,1-1.4,1.76,4.16,4.16,0,0,1-2.4.67,4.25,4.25,0,0,1-2.21-.57,3.88,3.88,0,0,1-1.48-1.62,5.45,5.45,0,0,1-.54-2.52v-8h3.47V202a2.49,2.49,0,0,0,.59,1.75,2,2,0,0,0,1.58.65,2.53,2.53,0,0,0,1.17-.29,2.2,2.2,0,0,0,.88-.86A2.59,2.59,0,0,0,786.74,201.88Z"/><path d="M799.64,194.69v2.61h-7.53v-2.61Zm-5.82-3h3.47v11.67a1.56,1.56,0,0,0,.15.75.74.74,0,0,0,.41.37,1.62,1.62,0,0,0,.61.11,2.63,2.63,0,0,0,.49-.05l.38-.07.54,2.59-.73.19a6.91,6.91,0,0,1-1.15.13,5.4,5.4,0,0,1-2.2-.33,3.12,3.12,0,0,1-1.46-1.19,3.6,3.6,0,0,1-.51-2Z"/><path class="cls-7" d="M806.6,202.84c-.33-2.43,1.18-6.36,1.88-11.64.13-.95,5-1.94,7.32-1.94.59,0,1.08,2.68.93,3.61-.1.68-1.06.5-1.06.5a1,1,0,0,1-1.28.55c-.28.77-1.14.41-1.14.41a.89.89,0,0,1-1.16.36c-.72,3.11.61,2.84,1.59,7.55,0,0,.27-.05,1-1.59,3.08-6.22,13.92-4.23,13.27,2.43-.14,1.48,1.42,3.9-4.4,5.72-4.62,1.44-10.31-1.32-10.31-1.32-1.93.59-5.69.55-5.8-.88C807.34,204.94,806.77,204.09,806.6,202.84Z"/><path class="cls-8" d="M828,203.07a4.83,4.83,0,0,0-1.17-3.81,5,5,0,0,1,.66,3.11c-.15,1.49,1.41,3.91-4.41,5.73-4.62,1.44-10.3-1.33-10.3-1.33-1.52.47-4.16.55-5.28-.12.14,1.39,3.88,1.42,5.79.83,0,0,5.69,2.76,10.31,1.32C829.4,207,827.84,204.56,828,203.07Z"/><path class="cls-8" d="M811.67,194.65c-.91,3.67.56,3.51,1.53,8.15l.52-.53c-.72-4.65-2-4.09-1.65-7.54A1.09,1.09,0,0,1,811.67,194.65Z"/><path class="cls-8" d="M816.32,205.09c3,1.11,7.46,0,10-1.2C825.19,206.56,819.28,208,816.32,205.09Z"/><path class="cls-8" d="M814.84,190.27a.7.7,0,0,0-.94-.24C813.94,189.61,815,189.29,814.84,190.27Z"/><path class="cls-8" d="M817,191.82a4.55,4.55,0,0,0-.85-2.21,5.83,5.83,0,0,1,.39,2.1c0,.33.08,1.47-.49,1.32-.35-.09-.36-.39-.46-.7a4.49,4.49,0,0,1-.4-1.56,4.66,4.66,0,0,0,.09,1.62c0,.3.25,1.1-.14,1.21a1,1,0,0,1-.65-.18c-.07,0-.12-.33-.14-.41a4.88,4.88,0,0,1-.4-1.61,4.63,4.63,0,0,0,0,1.53c0,.31.19,1-.17,1.11s-.48-.29-.56-.54a5.71,5.71,0,0,1-.37-1.49,7.37,7.37,0,0,0,.06,1.93c0,.31-.69.59-1,.4a2.23,2.23,0,0,1-.52-1.48c.12.16.3.36.52.34a3.23,3.23,0,0,1-.39-.79c-.12-.2-.36-.67-.63-.68a3.27,3.27,0,0,1,.24.73c-.12.2-.22.39-.35.58s-.42.66-.67.5-.35-.61-.43-.88c0,.35,0,.9.35,1.11s.71-.11.93-.34c.07.73.38,1.69,1.29,1.63a1.73,1.73,0,0,0,.56-.16c.15-.07.31-.24.46-.19a1,1,0,0,0,1.07-.26c.13-.14.09-.23.29-.18a1.26,1.26,0,0,0,.61,0,.82.82,0,0,0,.43-.27,1,1,0,0,0,.15-.24c.06-.14.13-.07.28-.07.93,0,.89-1.19.81-1.86S817,192,817,191.82Z"/><path class="cls-8" d="M816.15,189.78a.7.7,0,0,0-.94-.24C815.25,189.12,816.31,188.8,816.15,189.78Z"/><path class="cls-8" d="M813.79,190.81a.68.68,0,0,0-.93-.24C812.9,190.16,814,189.83,813.79,190.81Z"/><path class="cls-8" d="M812.58,191.38a.68.68,0,0,0-.93-.24C811.69,190.72,812.74,190.4,812.58,191.38Z"/><path d="M708.73,234.08V233l4.11-4.5c.48-.52.88-1,1.19-1.37a5.72,5.72,0,0,0,.7-1.11,2.72,2.72,0,0,0,.22-1.09,2,2,0,0,0-1.16-1.88,2.7,2.7,0,0,0-1.22-.26,2.62,2.62,0,0,0-1.25.29,2,2,0,0,0-.82.83,2.55,2.55,0,0,0-.29,1.24h-1.43a3.57,3.57,0,0,1,.5-1.92,3.43,3.43,0,0,1,1.38-1.29,4.09,4.09,0,0,1,2-.47,4,4,0,0,1,1.94.47,3.46,3.46,0,0,1,1.33,1.24,3.31,3.31,0,0,1,.48,1.75,3.88,3.88,0,0,1-.25,1.34,6.35,6.35,0,0,1-.85,1.45,23.93,23.93,0,0,1-1.68,2l-2.79,3v.1h5.78v1.34Z"/><path d="M719.48,234.08l5.57-11V223h-6.42v-1.34h8V223l-5.55,11.05Z"/><path d="M737.77,224.74V226h-4.84v-1.21Zm-3.43-2.24h1.44v8.9a1.8,1.8,0,0,0,.18.91.84.84,0,0,0,.46.4,1.72,1.72,0,0,0,.6.1l.39,0,.24,0,.29,1.29a2.52,2.52,0,0,1-.41.11,3.09,3.09,0,0,1-1.85-.2,2.46,2.46,0,0,1-1-.8,2.27,2.27,0,0,1-.38-1.35Z"/><path d="M739.94,234.08v-9.34h1.38v1.41h.1a2.26,2.26,0,0,1,.93-1.13,2.74,2.74,0,0,1,1.5-.43h.4l.36,0v1.46a1.63,1.63,0,0,0-.33-.06,3.31,3.31,0,0,0-.55,0,2.51,2.51,0,0,0-1.21.28,2.11,2.11,0,0,0-.84.78,2.15,2.15,0,0,0-.31,1.13v5.91Z"/><path d="M749.06,234.3a3.69,3.69,0,0,1-1.61-.34,2.75,2.75,0,0,1-1.15-1,2.69,2.69,0,0,1-.43-1.55,2.44,2.44,0,0,1,.32-1.31,2.36,2.36,0,0,1,.84-.79,4.52,4.52,0,0,1,1.17-.42c.43-.1.86-.17,1.3-.23l1.38-.17a2,2,0,0,0,.78-.2.51.51,0,0,0,.25-.48v-.05a1.94,1.94,0,0,0-.49-1.4,2,2,0,0,0-1.48-.5,2.6,2.6,0,0,0-1.62.45,2.67,2.67,0,0,0-.82,1l-1.36-.48a3.17,3.17,0,0,1,1-1.33,3.63,3.63,0,0,1,1.33-.67,5.59,5.59,0,0,1,1.44-.19,5.84,5.84,0,0,1,1,.1,3.41,3.41,0,0,1,1.14.44,2.6,2.6,0,0,1,.92,1,3.7,3.7,0,0,1,.36,1.77v6.16h-1.43v-1.27h-.08a2.35,2.35,0,0,1-.48.65,2.66,2.66,0,0,1-.91.59A3.37,3.37,0,0,1,749.06,234.3Zm.22-1.29a2.82,2.82,0,0,0,1.44-.34,2.28,2.28,0,0,0,.88-.86,2.12,2.12,0,0,0,.31-1.11v-1.32a.86.86,0,0,1-.4.2,5.48,5.48,0,0,1-.71.15c-.26.05-.52.08-.77.11l-.61.08a6.35,6.35,0,0,0-1,.23,1.91,1.91,0,0,0-.78.48,1.29,1.29,0,0,0-.29.87,1.27,1.27,0,0,0,.55,1.13A2.52,2.52,0,0,0,749.28,233Z"/><path d="M759.76,234.27a3.91,3.91,0,0,1-3.72-2.33,5.75,5.75,0,0,1-.51-2.48,5.63,5.63,0,0,1,.53-2.52,4.1,4.1,0,0,1,1.47-1.71,4,4,0,0,1,2.21-.61,4.18,4.18,0,0,1,1.77.36,3.37,3.37,0,0,1,1.3,1,3.26,3.26,0,0,1,.63,1.54H762a2.22,2.22,0,0,0-.73-1.14,2.18,2.18,0,0,0-1.51-.49,2.52,2.52,0,0,0-1.47.43,2.92,2.92,0,0,0-1,1.22,4.59,4.59,0,0,0-.35,1.85,4.71,4.71,0,0,0,.35,1.88,2.86,2.86,0,0,0,1,1.25,2.49,2.49,0,0,0,1.48.44,2.58,2.58,0,0,0,1-.19,2.09,2.09,0,0,0,1.22-1.44h1.44a3.38,3.38,0,0,1-.6,1.49,3.42,3.42,0,0,1-1.26,1A4.17,4.17,0,0,1,759.76,234.27Z"/><path d="M765.53,234.08V221.62H767v12.46Zm1.33-3.41,0-1.77h.29l4.09-4.16H773l-4.35,4.4h-.12Zm4.6,3.41-3.65-4.62,1-1,4.45,5.62Z"/><path d="M781.46,226.83l-1.29.36a2.84,2.84,0,0,0-.35-.63,1.81,1.81,0,0,0-.64-.5,2.23,2.23,0,0,0-1-.2,2.45,2.45,0,0,0-1.42.39,1.16,1.16,0,0,0-.57,1,1,1,0,0,0,.39.85,3.21,3.21,0,0,0,1.21.52l1.39.34a3.9,3.9,0,0,1,1.87.92,2.19,2.19,0,0,1,.61,1.61,2.35,2.35,0,0,1-.46,1.43,3.09,3.09,0,0,1-1.28,1,4.72,4.72,0,0,1-1.91.36,4.13,4.13,0,0,1-2.36-.62,2.72,2.72,0,0,1-1.19-1.81l1.36-.34a1.9,1.9,0,0,0,.74,1.13A2.47,2.47,0,0,0,778,233a2.61,2.61,0,0,0,1.59-.43,1.25,1.25,0,0,0,.6-1,1.12,1.12,0,0,0-.34-.82,2.14,2.14,0,0,0-1-.49l-1.56-.37a3.66,3.66,0,0,1-1.88-1,2.24,2.24,0,0,1-.6-1.6,2.28,2.28,0,0,1,.45-1.4,2.94,2.94,0,0,1,1.22-1,4.28,4.28,0,0,1,1.76-.34,3.53,3.53,0,0,1,2.18.6A3.27,3.27,0,0,1,781.46,226.83Z"/><path d="M792.11,231.79a2.59,2.59,0,0,1-1.34-.36,2.73,2.73,0,0,1-1-1,2.69,2.69,0,0,1,0-2.69,2.81,2.81,0,0,1,1-1,2.69,2.69,0,0,1,2.69,0,2.81,2.81,0,0,1,1,1,2.69,2.69,0,0,1,0,2.69,2.73,2.73,0,0,1-1,1A2.57,2.57,0,0,1,792.11,231.79Z"/><path d="M807.42,221.62v12.46h-1.51V223.21h-.08l-3,2v-1.53l3.12-2.07Z"/><path d="M812.45,228.46v5.62H811V221.62h1.43v4.58h.12a2.66,2.66,0,0,1,1-1.16,3.25,3.25,0,0,1,1.76-.42A3.4,3.4,0,0,1,817,225a2.62,2.62,0,0,1,1.12,1.16,4.41,4.41,0,0,1,.4,2v5.94h-1.44v-5.84a2.41,2.41,0,0,0-.57-1.72,2.09,2.09,0,0,0-1.59-.61,2.6,2.6,0,0,0-1.26.29,2.17,2.17,0,0,0-.88.87A2.86,2.86,0,0,0,812.45,228.46Z"/><path d="M825.93,234.08V233l4.11-4.5c.48-.52.88-1,1.19-1.37a5.72,5.72,0,0,0,.7-1.11,2.72,2.72,0,0,0,.22-1.09A2,2,0,0,0,831,223a2.7,2.7,0,0,0-1.22-.26,2.59,2.59,0,0,0-1.25.29,2,2,0,0,0-.82.83,2.55,2.55,0,0,0-.29,1.24H826a3.57,3.57,0,0,1,.5-1.92,3.43,3.43,0,0,1,1.38-1.29,4.09,4.09,0,0,1,2-.47,4,4,0,0,1,1.94.47,3.43,3.43,0,0,1,1.32,1.24,3.23,3.23,0,0,1,.49,1.75,3.88,3.88,0,0,1-.25,1.34,6.35,6.35,0,0,1-.85,1.45,23.93,23.93,0,0,1-1.68,2l-2.8,3v.1h5.79v1.34Z"/><path d="M840.5,234.25a5.42,5.42,0,0,1-2.15-.41,3.69,3.69,0,0,1-1.49-1.16,3.07,3.07,0,0,1-.59-1.72h1.53a1.78,1.78,0,0,0,.41,1,2.25,2.25,0,0,0,1,.67,3.72,3.72,0,0,0,2.73,0,2.35,2.35,0,0,0,1-.78,1.89,1.89,0,0,0,.35-1.15,2.18,2.18,0,0,0-.34-1.22,2.23,2.23,0,0,0-1-.82,3.81,3.81,0,0,0-1.6-.3h-1V227h1a3,3,0,0,0,1.3-.26,2.14,2.14,0,0,0,.89-.76,2,2,0,0,0,.31-1.14,2.16,2.16,0,0,0-.27-1.1,1.92,1.92,0,0,0-.79-.73,2.53,2.53,0,0,0-1.2-.26,3.26,3.26,0,0,0-1.21.23,2.3,2.3,0,0,0-.93.68,1.74,1.74,0,0,0-.39,1.06h-1.46a3,3,0,0,1,.59-1.72,3.75,3.75,0,0,1,1.45-1.15,4.62,4.62,0,0,1,2-.42,4,4,0,0,1,2,.47,3.39,3.39,0,0,1,1.27,1.22,3.19,3.19,0,0,1,.44,1.65,2.89,2.89,0,0,1-.55,1.79,2.81,2.81,0,0,1-1.49,1v.1a2.82,2.82,0,0,1,1.84,1,3,3,0,0,1,.67,2,3.22,3.22,0,0,1-.55,1.82,3.81,3.81,0,0,1-1.5,1.27A5,5,0,0,1,840.5,234.25Z"/><path d="M847.21,234.08v-9.34h1.39v1.46h.12a2.37,2.37,0,0,1,.94-1.17,2.85,2.85,0,0,1,1.57-.41,2.68,2.68,0,0,1,1.54.41,2.79,2.79,0,0,1,1,1.17h.1a2.74,2.74,0,0,1,1.08-1.16,3.32,3.32,0,0,1,1.72-.42,2.83,2.83,0,0,1,2,.78,3.27,3.27,0,0,1,.79,2.43v6.25H858v-6.25a1.77,1.77,0,0,0-.57-1.48,2.07,2.07,0,0,0-1.33-.44,2,2,0,0,0-1.53.59,2.12,2.12,0,0,0-.54,1.5v6.08h-1.46v-6.4a1.72,1.72,0,0,0-.51-1.29,1.9,1.9,0,0,0-1.34-.48,1.92,1.92,0,0,0-1,.29,2.31,2.31,0,0,0-.78.83,2.38,2.38,0,0,0-.29,1.21v5.84Z"/><rect class="cls-3" x="620.51" y="181" width="65" height="65"/></g><g class="cls-6"><path class="cls-2" d="M980.69,428.75H619.21a17,17,0,0,0-17,17v68.29a17,17,0,0,0,17,17H980.69Z"/><path d="M714.79,473.21a6.41,6.41,0,0,1-3.3-.82,5.49,5.49,0,0,1-2.12-2.28,8,8,0,0,1,0-6.74,5.53,5.53,0,0,1,2.12-2.27,6.26,6.26,0,0,1,3.28-.82,6.48,6.48,0,0,1,2.87.6,4.65,4.65,0,0,1,1.94,1.67,4.89,4.89,0,0,1,.8,2.52h-3.28a2.57,2.57,0,0,0-.73-1.51,2.13,2.13,0,0,0-1.55-.57,2.33,2.33,0,0,0-1.4.43,2.81,2.81,0,0,0-.93,1.27,5.25,5.25,0,0,0-.34,2,5.59,5.59,0,0,0,.33,2,2.74,2.74,0,0,0,.94,1.28,2.33,2.33,0,0,0,1.4.44,2.38,2.38,0,0,0,1.08-.24,2.26,2.26,0,0,0,.79-.72,2.76,2.76,0,0,0,.41-1.13h3.28a5.27,5.27,0,0,1-.78,2.53,4.88,4.88,0,0,1-1.92,1.7A6.53,6.53,0,0,1,714.79,473.21Z"/><path d="M726.09,465.73V473h-3.47V456.27H726v6.38h.15a3.54,3.54,0,0,1,1.37-1.74,4.18,4.18,0,0,1,2.37-.63,4.44,4.44,0,0,1,2.28.57,3.88,3.88,0,0,1,1.51,1.62,5.33,5.33,0,0,1,.54,2.52v8h-3.47v-7.35a2.54,2.54,0,0,0-.59-1.8,2.11,2.11,0,0,0-1.65-.64,2.54,2.54,0,0,0-1.25.3,2.16,2.16,0,0,0-.85.87A3.13,3.13,0,0,0,726.09,465.73Z"/><path d="M738.7,458.83a1.89,1.89,0,0,1-1.33-.51,1.68,1.68,0,0,1,0-2.49,2,2,0,0,1,2.65,0,1.67,1.67,0,0,1,0,2.48A1.83,1.83,0,0,1,738.7,458.83ZM737,473V460.44h3.47V473Z"/><path d="M746.66,456.27V473h-3.47V456.27Z"/><path d="M752.9,456.27V473h-3.47V456.27Z"/><path d="M771.41,464l-3.18.2a1.63,1.63,0,0,0-.35-.74,2,2,0,0,0-.7-.53,2.85,2.85,0,0,0-2.4.14,1,1,0,0,0-.56.9,1,1,0,0,0,.36.76,2.87,2.87,0,0,0,1.23.5l2.27.45a5.55,5.55,0,0,1,2.72,1.21,2.82,2.82,0,0,1,.9,2.18,3.43,3.43,0,0,1-.72,2.16,4.74,4.74,0,0,1-2,1.45,7.55,7.55,0,0,1-2.88.52,6.75,6.75,0,0,1-4-1,4,4,0,0,1-1.73-2.83l3.42-.18a1.71,1.71,0,0,0,.75,1.15,2.7,2.7,0,0,0,1.52.39,2.67,2.67,0,0,0,1.47-.35,1.1,1.1,0,0,0,.57-.92,1,1,0,0,0-.4-.77,2.82,2.82,0,0,0-1.21-.47l-2.16-.44a5.05,5.05,0,0,1-2.73-1.27,3.11,3.11,0,0,1-.89-2.3,3.33,3.33,0,0,1,.65-2.08,4.27,4.27,0,0,1,1.85-1.35,7.71,7.71,0,0,1,2.8-.47,6.2,6.2,0,0,1,3.74,1A3.87,3.87,0,0,1,771.41,464Z"/><path d="M780.55,460.44v2.61H773v-2.61Zm-5.83-3h3.47v11.68a1.51,1.51,0,0,0,.15.74.78.78,0,0,0,.41.37,1.67,1.67,0,0,0,.62.11,2.81,2.81,0,0,0,.49,0l.37-.07.55,2.59c-.18.05-.42.12-.74.19a5.8,5.8,0,0,1-1.15.13,5.21,5.21,0,0,1-2.19-.33,3,3,0,0,1-1.46-1.19,3.68,3.68,0,0,1-.52-2Z"/><path d="M790.83,467.63v-7.19h3.48V473H791v-2.27h-.13a3.75,3.75,0,0,1-1.4,1.77,4.23,4.23,0,0,1-2.4.67,4.11,4.11,0,0,1-2.2-.58,3.83,3.83,0,0,1-1.49-1.62,5.45,5.45,0,0,1-.54-2.52v-8h3.47v7.36a2.52,2.52,0,0,0,.59,1.75,2,2,0,0,0,1.58.64,2.5,2.5,0,0,0,1.17-.29,2.2,2.2,0,0,0,.88-.86A2.59,2.59,0,0,0,790.83,467.63Z"/><path d="M801.69,473.17a4.71,4.71,0,0,1-2.58-.74,5,5,0,0,1-1.83-2.18,8.42,8.42,0,0,1-.67-3.53,8.22,8.22,0,0,1,.69-3.58,5.05,5.05,0,0,1,1.85-2.15,4.76,4.76,0,0,1,2.53-.71,3.86,3.86,0,0,1,1.76.36,3.41,3.41,0,0,1,1.14.88,4.44,4.44,0,0,1,.66,1h.11v-6.28h3.46V473h-3.42v-2h-.15a4.22,4.22,0,0,1-.69,1,3.42,3.42,0,0,1-1.14.84A4.06,4.06,0,0,1,801.69,473.17Zm1.1-2.77a2.2,2.2,0,0,0,1.42-.46,2.83,2.83,0,0,0,.9-1.29,6.26,6.26,0,0,0,0-3.89,2.73,2.73,0,0,0-.89-1.27,2.3,2.3,0,0,0-1.43-.45,2.24,2.24,0,0,0-1.44.47,2.85,2.85,0,0,0-.89,1.29,5.49,5.49,0,0,0-.3,1.9,5.71,5.71,0,0,0,.3,1.93,2.9,2.9,0,0,0,.89,1.3A2.19,2.19,0,0,0,802.79,470.4Z"/><path d="M813.8,477.63a6.81,6.81,0,0,1-1.23-.1,4.94,4.94,0,0,1-1-.25l.78-2.6a3.12,3.12,0,0,0,1.55.15,1.49,1.49,0,0,0,1-1l.2-.53-4.49-12.88h3.65l2.6,9.2H817l2.61-9.2,3.68,0-4.87,13.86a5.72,5.72,0,0,1-1,1.74,4,4,0,0,1-1.51,1.16A5.24,5.24,0,0,1,813.8,477.63Z"/><path d="M830.43,473V460.44h3.31v2.21h.14a3.45,3.45,0,0,1,1.31-1.73,4,4,0,0,1,4.37,0,3,3,0,0,1,1.21,1.73h.13a3.39,3.39,0,0,1,1.39-1.72,4.31,4.31,0,0,1,2.38-.65,3.83,3.83,0,0,1,2.85,1.11,4.31,4.31,0,0,1,1.1,3.15V473h-3.47v-7.73a2.06,2.06,0,0,0-.55-1.57,2,2,0,0,0-1.39-.52,1.85,1.85,0,0,0-1.47.6,2.32,2.32,0,0,0-.53,1.58V473h-3.37v-7.81a2,2,0,0,0-.52-1.46,1.81,1.81,0,0,0-1.38-.55,1.91,1.91,0,0,0-1,.29,2,2,0,0,0-.73.81,2.57,2.57,0,0,0-.27,1.21V473Z"/><path d="M859.38,467.63v-7.19h3.48V473h-3.34v-2.27h-.13a3.75,3.75,0,0,1-1.4,1.77,4.23,4.23,0,0,1-2.4.67,4.11,4.11,0,0,1-2.2-.58,3.83,3.83,0,0,1-1.49-1.62,5.45,5.45,0,0,1-.54-2.52v-8h3.47v7.36a2.52,2.52,0,0,0,.59,1.75,2,2,0,0,0,1.58.64,2.5,2.5,0,0,0,1.17-.29,2.2,2.2,0,0,0,.88-.86A2.59,2.59,0,0,0,859.38,467.63Z"/><path d="M876,464l-3.18.2a1.63,1.63,0,0,0-.35-.74,2,2,0,0,0-.7-.53,2.85,2.85,0,0,0-2.4.14,1,1,0,0,0-.56.9,1,1,0,0,0,.36.76,2.87,2.87,0,0,0,1.23.5l2.27.45a5.55,5.55,0,0,1,2.72,1.21,2.82,2.82,0,0,1,.9,2.18,3.43,3.43,0,0,1-.72,2.16,4.74,4.74,0,0,1-2,1.45,7.55,7.55,0,0,1-2.88.52,6.75,6.75,0,0,1-4-1,4,4,0,0,1-1.73-2.83l3.42-.18a1.71,1.71,0,0,0,.75,1.15,2.7,2.7,0,0,0,1.52.39,2.67,2.67,0,0,0,1.47-.35,1.1,1.1,0,0,0,.57-.92,1,1,0,0,0-.4-.77,2.82,2.82,0,0,0-1.21-.47l-2.16-.44a5.05,5.05,0,0,1-2.73-1.27,3.11,3.11,0,0,1-.89-2.3,3.33,3.33,0,0,1,.65-2.08,4.27,4.27,0,0,1,1.85-1.35,7.71,7.71,0,0,1,2.8-.47,6.2,6.2,0,0,1,3.74,1A3.87,3.87,0,0,1,876,464Z"/><path d="M880.27,458.83a1.91,1.91,0,0,1-1.33-.51,1.68,1.68,0,0,1,0-2.49,2,2,0,0,1,2.66,0,1.67,1.67,0,0,1,0,2.48A1.86,1.86,0,0,1,880.27,458.83ZM878.52,473V460.44H882V473Z"/><path d="M890.42,473.21a6.47,6.47,0,0,1-3.31-.82,5.47,5.47,0,0,1-2.11-2.28,7.23,7.23,0,0,1-.74-3.36,7.41,7.41,0,0,1,.74-3.38,5.55,5.55,0,0,1,2.13-2.27,6.23,6.23,0,0,1,3.27-.82,6.48,6.48,0,0,1,2.87.6,4.74,4.74,0,0,1,2,1.67,4.88,4.88,0,0,1,.79,2.52h-3.28a2.51,2.51,0,0,0-.73-1.51,2.11,2.11,0,0,0-1.54-.57,2.33,2.33,0,0,0-1.41.43,2.89,2.89,0,0,0-.93,1.27,5.46,5.46,0,0,0-.33,2,5.59,5.59,0,0,0,.33,2,2.79,2.79,0,0,0,.93,1.28,2.49,2.49,0,0,0,2.48.2,2.18,2.18,0,0,0,.79-.72,2.63,2.63,0,0,0,.41-1.13H896a5.06,5.06,0,0,1-.78,2.53,4.74,4.74,0,0,1-1.92,1.7A6.48,6.48,0,0,1,890.42,473.21Z"/><path d="M713.11,487.38v12.45H711.6V489h-.07l-3,2v-1.54l3.12-2.06Z"/><path d="M720.74,500a3.72,3.72,0,0,1-2.34-.75,4.77,4.77,0,0,1-1.48-2.18,11.88,11.88,0,0,1,0-6.92,4.78,4.78,0,0,1,1.48-2.19,4,4,0,0,1,4.67,0,4.78,4.78,0,0,1,1.48,2.19,12,12,0,0,1,0,6.92,4.68,4.68,0,0,1-1.47,2.18A3.73,3.73,0,0,1,720.74,500Zm0-1.34a2.33,2.33,0,0,0,2.12-1.31,7.65,7.65,0,0,0,.75-3.75,9.61,9.61,0,0,0-.34-2.75,3.83,3.83,0,0,0-1-1.73,2.2,2.2,0,0,0-1.55-.6,2.33,2.33,0,0,0-2.11,1.33,7.7,7.7,0,0,0-.76,3.75,9.87,9.87,0,0,0,.34,2.75,3.71,3.71,0,0,0,1,1.72A2.15,2.15,0,0,0,720.74,498.66Z"/><path d="M727.38,499.83v-1.09l4.12-4.5c.48-.53.88-1,1.19-1.38a5,5,0,0,0,.69-1.11,2.54,2.54,0,0,0,.23-1.09,2,2,0,0,0-.31-1.14,2.08,2.08,0,0,0-.86-.74,2.79,2.79,0,0,0-1.21-.26,2.59,2.59,0,0,0-1.25.29,2,2,0,0,0-.82.83,2.45,2.45,0,0,0-.29,1.24h-1.44a3.58,3.58,0,0,1,.51-1.92,3.44,3.44,0,0,1,1.38-1.29,4.08,4.08,0,0,1,2-.46,4,4,0,0,1,1.94.46,3.45,3.45,0,0,1,1.32,1.25,3.25,3.25,0,0,1,.48,1.74,3.83,3.83,0,0,1-.24,1.34,6.14,6.14,0,0,1-.85,1.45q-.61.81-1.68,1.95l-2.8,3v.09h5.79v1.34Z"/><path d="M746.65,490.49v1.22h-4.84v-1.22Zm-3.43-2.24h1.44v8.91a1.78,1.78,0,0,0,.18.9.86.86,0,0,0,.46.41,2,2,0,0,0,.6.1,2.06,2.06,0,0,0,.39,0l.24-.05.29,1.29a2.66,2.66,0,0,1-.41.12,3.86,3.86,0,0,1-.66.05,2.81,2.81,0,0,1-1.19-.26,2.24,2.24,0,0,1-1.34-2.15Z"/><path d="M748.82,499.83v-9.34h1.38v1.41h.1a2.23,2.23,0,0,1,.92-1.12,2.72,2.72,0,0,1,1.51-.44h.4l.36,0v1.46l-.34-.06a3.12,3.12,0,0,0-.54,0,2.51,2.51,0,0,0-1.21.28,2.11,2.11,0,0,0-.84.78,2.06,2.06,0,0,0-.31,1.13v5.91Z"/><path d="M757.94,500.05a3.69,3.69,0,0,1-1.61-.34,2.63,2.63,0,0,1-1.15-1,2.67,2.67,0,0,1-.43-1.55,2.38,2.38,0,0,1,.32-1.3,2.2,2.2,0,0,1,.84-.79,4.54,4.54,0,0,1,1.17-.43c.43-.1.86-.17,1.3-.23l1.38-.17a2.1,2.1,0,0,0,.78-.19.53.53,0,0,0,.24-.49v-.05a1.9,1.9,0,0,0-.49-1.4,2,2,0,0,0-1.48-.5,2.59,2.59,0,0,0-1.61.45,2.67,2.67,0,0,0-.82,1l-1.36-.48a3.31,3.31,0,0,1,1-1.33,3.75,3.75,0,0,1,1.34-.67,5.54,5.54,0,0,1,1.44-.19,5.84,5.84,0,0,1,1,.1,3.64,3.64,0,0,1,1.14.44,2.51,2.51,0,0,1,.91,1,3.6,3.6,0,0,1,.37,1.78v6.15h-1.44v-1.26h-.07a2.57,2.57,0,0,1-.49.65,2.81,2.81,0,0,1-.9.59A3.55,3.55,0,0,1,757.94,500.05Zm.22-1.29a3,3,0,0,0,1.44-.33,2.3,2.3,0,0,0,.88-.87,2.2,2.2,0,0,0,.3-1.11v-1.31a.87.87,0,0,1-.39.19c-.21.06-.44.11-.71.16l-.77.11-.61.07a5.46,5.46,0,0,0-1,.24,1.72,1.72,0,0,0-.78.48,1.2,1.2,0,0,0-.29.86,1.27,1.27,0,0,0,.55,1.13A2.5,2.5,0,0,0,758.16,498.76Z"/><path d="M768.64,500a4.07,4.07,0,0,1-2.26-.62,4.13,4.13,0,0,1-1.46-1.71,5.83,5.83,0,0,1-.51-2.49,5.76,5.76,0,0,1,.52-2.52,4.16,4.16,0,0,1,1.48-1.7,3.87,3.87,0,0,1,2.21-.62,4.21,4.21,0,0,1,1.77.36,3.56,3.56,0,0,1,1.3,1,3.24,3.24,0,0,1,.62,1.54h-1.43a2.22,2.22,0,0,0-.73-1.14,2.2,2.2,0,0,0-1.51-.49,2.52,2.52,0,0,0-1.47.43,2.92,2.92,0,0,0-1,1.22,4.62,4.62,0,0,0-.35,1.85,4.79,4.79,0,0,0,.35,1.89,2.83,2.83,0,0,0,1,1.24,2.47,2.47,0,0,0,1.48.45,2.61,2.61,0,0,0,1-.2,2,2,0,0,0,.77-.56,2.12,2.12,0,0,0,.45-.87h1.43a3.37,3.37,0,0,1-.59,1.48,3.42,3.42,0,0,1-1.26,1.05A4,4,0,0,1,768.64,500Z"/><path d="M774.41,499.83V487.38h1.43v12.45Zm1.33-3.4,0-1.78H776l4.09-4.16h1.77l-4.35,4.4h-.12Zm4.6,3.4-3.65-4.62,1-1,4.46,5.62Z"/><path d="M790.34,492.58l-1.29.37a2.22,2.22,0,0,0-.36-.63,1.61,1.61,0,0,0-.63-.51,2.36,2.36,0,0,0-1-.2,2.48,2.48,0,0,0-1.43.39,1.18,1.18,0,0,0-.56,1,1,1,0,0,0,.39.84,3.14,3.14,0,0,0,1.21.52l1.39.34a3.82,3.82,0,0,1,1.87.93,2.21,2.21,0,0,1,.61,1.6,2.35,2.35,0,0,1-.46,1.43,3.09,3.09,0,0,1-1.28,1,4.71,4.71,0,0,1-1.91.37,4.26,4.26,0,0,1-2.37-.62,2.79,2.79,0,0,1-1.18-1.82l1.36-.34a1.87,1.87,0,0,0,.74,1.13,2.4,2.4,0,0,0,1.43.38,2.61,2.61,0,0,0,1.59-.43,1.24,1.24,0,0,0,.6-1,1.13,1.13,0,0,0-.34-.82,2.24,2.24,0,0,0-1.05-.49l-1.56-.37a3.73,3.73,0,0,1-1.88-.94,2.43,2.43,0,0,1-.15-3,3,3,0,0,1,1.22-1,4.28,4.28,0,0,1,1.76-.34,3.49,3.49,0,0,1,2.18.61A3.25,3.25,0,0,1,790.34,492.58Z"/><path d="M801,497.54a2.59,2.59,0,0,1-1.34-.36,2.65,2.65,0,0,1-1-1,2.69,2.69,0,0,1,0-2.69,2.81,2.81,0,0,1,1-1,2.69,2.69,0,0,1,2.69,0,2.9,2.9,0,0,1,1,1,2.69,2.69,0,0,1,0,2.69,2.73,2.73,0,0,1-1,1A2.57,2.57,0,0,1,801,497.54Z"/><path d="M815.81,500a4.31,4.31,0,0,1-1.93-.42,3.64,3.64,0,0,1-1.37-1.17,3.14,3.14,0,0,1-.57-1.69h1.46a2,2,0,0,0,.77,1.39,2.52,2.52,0,0,0,1.64.55,2.58,2.58,0,0,0,1.36-.36,2.49,2.49,0,0,0,1-1,3.16,3.16,0,0,0,0-2.89,2.69,2.69,0,0,0-1-1,2.81,2.81,0,0,0-1.42-.38,4.06,4.06,0,0,0-1.17.18,3.25,3.25,0,0,0-1,.46l-1.42-.17.76-6.13h6.47v1.33h-5.21l-.43,3.68h.07a3.1,3.1,0,0,1,1-.51,3.92,3.92,0,0,1,3.24.35,3.89,3.89,0,0,1,1.42,1.48,4.48,4.48,0,0,1,.51,2.16,4.25,4.25,0,0,1-.53,2.12,4,4,0,0,1-1.47,1.47A4.12,4.12,0,0,1,815.81,500Z"/><path d="M823.79,494.21v5.62h-1.44V487.38h1.44V492h.12a2.64,2.64,0,0,1,1-1.15,3.14,3.14,0,0,1,1.76-.43,3.58,3.58,0,0,1,1.67.38,2.62,2.62,0,0,1,1.12,1.16,4.43,4.43,0,0,1,.39,2v5.93h-1.43V494a2.39,2.39,0,0,0-.58-1.72,2.06,2.06,0,0,0-1.59-.61,2.61,2.61,0,0,0-1.26.3,2,2,0,0,0-.87.87A2.71,2.71,0,0,0,823.79,494.21Z"/><path d="M841.16,500a4.31,4.31,0,0,1-1.93-.42,3.76,3.76,0,0,1-1.38-1.17,3.21,3.21,0,0,1-.56-1.69h1.46a1.93,1.93,0,0,0,.77,1.39,2.5,2.5,0,0,0,1.64.55,2.58,2.58,0,0,0,1.36-.36,2.47,2.47,0,0,0,.94-1,3.12,3.12,0,0,0,0-2.89,2.71,2.71,0,0,0-1-1,2.75,2.75,0,0,0-1.41-.38,4.13,4.13,0,0,0-1.18.18,3.25,3.25,0,0,0-1,.46l-1.41-.17.76-6.13h6.47v1.33H839.5l-.44,3.68h.08a3.1,3.1,0,0,1,1-.51,3.68,3.68,0,0,1,1.2-.2,3.85,3.85,0,0,1,3.45,2,4.48,4.48,0,0,1,.52,2.16,4.15,4.15,0,0,1-.54,2.12,3.89,3.89,0,0,1-1.46,1.47A4.12,4.12,0,0,1,841.16,500Z"/><path d="M847.38,497.28V496l5.48-8.66h.9v1.92h-.61L849,495.84v.1h7.37v1.34Zm5.86,2.55V487.38h1.44v12.45Z"/><path d="M858.69,499.83v-9.34h1.39V492h.12a2.36,2.36,0,0,1,.94-1.16,2.85,2.85,0,0,1,1.57-.42,2.57,2.57,0,0,1,2.5,1.58h.1a2.72,2.72,0,0,1,1.08-1.15,3.23,3.23,0,0,1,1.72-.43,2.81,2.81,0,0,1,2,.78,3.27,3.27,0,0,1,.79,2.43v6.25h-1.43v-6.25a1.77,1.77,0,0,0-.57-1.48,2.11,2.11,0,0,0-1.33-.44,2,2,0,0,0-1.53.59,2.16,2.16,0,0,0-.54,1.5v6.08h-1.46v-6.4a1.68,1.68,0,0,0-.51-1.28,1.86,1.86,0,0,0-1.34-.49,1.93,1.93,0,0,0-1,.3,2.2,2.2,0,0,0-.78.82,2.49,2.49,0,0,0-.29,1.21v5.84Z"/><rect class="cls-3" x="620.51" y="448" width="65" height="65"/></g><g id="Playman"><path id="Face" class="cls-2" d="M410.51,332s13,9,17,15,11,13,12,16,12,11,12,11,3,4,2,6a18.66,18.66,0,0,1-3,4s8,22,8,24,0,8-5,7-35-4-35-4l-7-14-13-34,1-27Z"/><polygon id="Headphones" class="cls-2" points="360.37 346.31 364.99 341.94 403.87 379.59 413.51 410.06 380.22 415.24 360.81 378.59 360.37 346.31"/><path id="Playman-2" class="cls-9" d="M398.49,799.87c-2,25.13-56.91,85.21-69.3,106.54-3.69,6.35,27.41,39.8,24,47-4.62,9.73-8.51,4.38-17.78-1.11l-46.66-28.14c-3.23-1.91-4.91-6-3.26-9.39,61-125.22,78.92-138.95,107.1-241.3a2.52,2.52,0,0,1,4.94.66C398.07,747.18,399.11,792,398.49,799.87ZM431.17,361.1c-.26-1.26-2.07-1.82-3-.09l2.63,12.89c1.55,1.23,3,0,2.75-1.26Zm20.29,23.23c11.58-10.45-7.39-13.8-10.71-22-1.82-5.51-14.46-19.35-15-19.93a84.13,84.13,0,0,0-10-9.09h0l-1.67-1.23h0c-15.52-13.12-33.15-2.73-49.12,9.88,3.2,6.4,10.89,21.66,15.22,28.92,17-6.7,35.88,23.42,20.36,34.4-15.72,11.3-38.34-17.33-25.46-31-4.2-7.07-11.38-21.24-14.74-28-24,26.17-9.93,63.46,18.6,78.07,11.94,5.82,51.49,1.59,56.7.78,8.2-1.71,23.88-5.68,24-15h0c0-.4-.1-1.77-.12-2.2l-.07,0C458.43,400.13,452.84,387.4,451.46,384.33Zm5.38,25.39c-33.88,14.53-70.88-50.3-44-74.92A85,85,0,0,1,423,344c.13.14,12.89,14.1,14.57,19.21,1.17,3.53,5.2,6.41,8.76,8.95,7.85,4.86,6.33,7.43,1.42,11.94,0,0,2.45,5.1,4.81,10.86a13.24,13.24,0,0,1-12.41-.24,1,1,0,1,0-1.07,1.66,15,15,0,0,0,10.5,1.69,16.56,16.56,0,0,0,3.72-1.27C455.36,402,457.14,407.34,456.84,409.72Zm117.86-30.5a23.18,23.18,0,0,0-5.7,7.41c-7,14.59-13.21,34.05-32.62,55.12-13.44,14.59-30.4,24.57-44.93,31.12-1.5.62-6.73,2.77-12.63,5.14q-2.64,1-5,1.74a114.5,114.5,0,0,0-11.22,4.5c-1.11.39-2.09.72-2.85.94-9.07,2.73-26.58,12.33-27.32,12.74a2,2,0,1,0,1.93,3.5c.16-.09,14.6-8,23.79-11.46,1.65,10,6.53,40.16,7.55,51.17,2.95,31.66,4.36,94.93,6.63,137.68,1.74,32.81-22.43,205.29-27.24,255.47-.7,7.31,41.52,24.72,41.42,32.71-.13,10.77-5.9,7.53-16.62,6.41l-50.62-5.3a7.73,7.73,0,0,1-6.89-7.17c-13.08-200-8.46-175.86-12.2-338.81-.5-21.8-13.25-65.53-19.88-128.84-2.38-22.79,3.55-33.09,6.63-40.5,2-4.82,12.31-10.25,17.27-11.89a85.26,85.26,0,0,1,42-3.08,7.84,7.84,0,0,0,2.51.11c6.95-.75,38.68-5.09,58.26-22.68,28.77-25.86,47.56-63.2,49.33-69.21,3.68-12.52,6.62-19.88,9.57-23.56a3.48,3.48,0,0,1,2.94-1.47c8.08,1.39,3,14,3,20.61.26-.09,10.31-4.41,17.67-7.36,9.79-3.91,13.25-1.47,14.72,5.15C606.33,349.41,603.82,354,574.7,379.22Z"/></g></g></g></svg>