<svg xmlns="http://www.w3.org/2000/svg" viewBox="0 0 1000.26 1001.87"><defs><style>.cls-1{fill:url(#linear-gradient);}.cls-2{fill:url(#radial-gradient);}.cls-3{fill:#fff;}.cls-4{fill:#d76d77;}.cls-5{opacity:0.5;}.cls-6{opacity:0.25;}.cls-7{opacity:0.75;}.cls-8{fill:#ffdd67;}.cls-9{fill:#eba352;}.cls-10{fill:url(#linear-gradient-2);}</style><linearGradient id="linear-gradient" x1="112.25" y1="276.13" x2="1076.19" y2="832.67" gradientUnits="userSpaceOnUse"><stop offset="0.02" stop-color="#ff879f"/><stop offset="0.46" stop-color="#ffdacf"/><stop offset="0.77" stop-color="#ffdac2"/></linearGradient><radialGradient id="radial-gradient" cx="396.77" cy="943.62" r="336.65" gradientTransform="matrix(0, 1, -0.27, 0, 654.17, 548.13)" gradientUnits="userSpaceOnUse"><stop offset="0.2" stop-color="#ff879f"/><stop offset="0.73" stop-color="#ffdacf" stop-opacity="0"/></radialGradient><linearGradient id="linear-gradient-2" x1="624.29" y1="648.31" x2="304.4" y2="648.31" gradientUnits="userSpaceOnUse"><stop offset="0" stop-color="#462e71"/><stop offset="1" stop-color="#5c2026"/></linearGradient></defs><g id="Layer_2"><g id="Layer_3"><path class="cls-1" d="M415.3,164c-106,113.41-229.63,38.65-311.84,133-90.1,103.39,28.24,227.69-31,505C48.84,912.69,15.28,961.77,0,1000H1000V0H482C466.55,53.53,470.31,105.18,415.3,164Z"/><ellipse class="cls-2" cx="396.87" cy="944.9" rx="53.79" ry="242" transform="translate(-576.54 1265.56) rotate(-85.45)"/><path class="cls-3" d="M1000.26,293.2,596.73,307.54a17,17,0,0,0-16.42,17.62l2.43,68.25a17,17,0,0,0,17.62,16.41l399.9-14.21Z"/><path d="M698.24,339.25l-3.17.31a1.65,1.65,0,0,0-.37-.72,2.08,2.08,0,0,0-.73-.51,2.86,2.86,0,0,0-2.39.23,1,1,0,0,0-.52.92.92.92,0,0,0,.38.74,2.89,2.89,0,0,0,1.25.46l2.28.37a5.65,5.65,0,0,1,2.76,1.11,2.86,2.86,0,0,1,1,2.15,3.44,3.44,0,0,1-.65,2.19,4.73,4.73,0,0,1-1.92,1.51,7.39,7.39,0,0,1-2.86.62,6.73,6.73,0,0,1-4-.9,4,4,0,0,1-1.82-2.77l3.4-.3a1.77,1.77,0,0,0,.79,1.13,2.73,2.73,0,0,0,1.54.34,2.69,2.69,0,0,0,1.46-.41,1.07,1.07,0,0,0,.53-.93,1,1,0,0,0-.42-.77,3,3,0,0,0-1.23-.42l-2.18-.36a5.19,5.19,0,0,1-2.77-1.17,3.15,3.15,0,0,1-1-2.27,3.3,3.3,0,0,1,.58-2.1,4.16,4.16,0,0,1,1.8-1.41,7.5,7.5,0,0,1,2.78-.58,6.27,6.27,0,0,1,3.77.87A3.86,3.86,0,0,1,698.24,339.25Z"/><path d="M704.61,348.22a5.29,5.29,0,0,1-2.15-.34,3.41,3.41,0,0,1-1.52-1.2,4.14,4.14,0,0,1-.29-3.81,3,3,0,0,1,1-1.17,5,5,0,0,1,1.48-.71,10.54,10.54,0,0,1,1.76-.37l1.75-.28a2.68,2.68,0,0,0,1-.34.69.69,0,0,0,.28-.61v-.05a1.52,1.52,0,0,0-.53-1.18,2,2,0,0,0-1.39-.38,2.39,2.39,0,0,0-1.47.47,1.84,1.84,0,0,0-.7,1.05l-3.22-.14a4.38,4.38,0,0,1,.89-2,4.63,4.63,0,0,1,1.81-1.36,7.13,7.13,0,0,1,2.62-.54,7.88,7.88,0,0,1,2,.17,5.06,5.06,0,0,1,1.72.7,3.74,3.74,0,0,1,1.23,1.27,4,4,0,0,1,.5,1.91l.3,8.43-3.29.12-.06-1.73h-.1a3.65,3.65,0,0,1-.77,1.06,3.56,3.56,0,0,1-1.19.73A5,5,0,0,1,704.61,348.22Zm.91-2.43a3,3,0,0,0,1.34-.35,2.45,2.45,0,0,0,.89-.86,2.14,2.14,0,0,0,.29-1.2l0-1.32a2,2,0,0,1-.44.2,4.34,4.34,0,0,1-.63.18c-.23.06-.46.1-.69.15l-.63.11a4.57,4.57,0,0,0-1.06.33,1.67,1.67,0,0,0-.69.55,1.43,1.43,0,0,0,.33,1.89A2.23,2.23,0,0,0,705.52,345.79Z"/><path d="M719,347.68a4.65,4.65,0,0,1-2.6-.65,5,5,0,0,1-1.9-2.11,9.63,9.63,0,0,1-.24-7.11A5.07,5.07,0,0,1,716,335.6a4.73,4.73,0,0,1,2.51-.8,3.92,3.92,0,0,1,1.76.29,3.59,3.59,0,0,1,1.18.84,5,5,0,0,1,.7,1h.1l-.22-6.27,3.46-.12.59,16.68-3.42.12-.07-2h-.15a4.15,4.15,0,0,1-.65,1.06,3.35,3.35,0,0,1-1.12.88A4,4,0,0,1,719,347.68Zm1-2.8a2.24,2.24,0,0,0,1.41-.51,3,3,0,0,0,.85-1.33,5.41,5.41,0,0,0,.24-2,5.24,5.24,0,0,0-.38-1.92,2.74,2.74,0,0,0-.94-1.24,2.24,2.24,0,0,0-1.44-.4,2.2,2.2,0,0,0-1.42.52,2.88,2.88,0,0,0-.85,1.32,5.42,5.42,0,0,0-.23,1.91,5.8,5.8,0,0,0,.37,1.92,3,3,0,0,0,.94,1.27A2.21,2.21,0,0,0,720,344.88Z"/><path d="M737.45,339.57l.25,7.24-3.47.12-.59-16.68,3.37-.12.23,6.38h.15a3.58,3.58,0,0,1,1.3-1.79A4.19,4.19,0,0,1,741,334a4.53,4.53,0,0,1,2.3.48,4,4,0,0,1,1.57,1.57,5.34,5.34,0,0,1,.62,2.5l.29,8-3.47.12-.27-7.34a2.5,2.5,0,0,0-.64-1.78,2.13,2.13,0,0,0-1.67-.59,2.47,2.47,0,0,0-1.24.35,2,2,0,0,0-.82.9A2.91,2.91,0,0,0,737.45,339.57Z"/><path d="M754.21,346.46a6.28,6.28,0,0,1-3.3-.69,5.48,5.48,0,0,1-2.21-2.19,7.11,7.11,0,0,1-.87-3.35,7.22,7.22,0,0,1,.63-3.42,5.51,5.51,0,0,1,2-2.34,6.39,6.39,0,0,1,3.25-.92,6.29,6.29,0,0,1,3.31.69,5.48,5.48,0,0,1,2.21,2.19,8,8,0,0,1,.24,6.77,5.48,5.48,0,0,1-2,2.34A6.33,6.33,0,0,1,754.21,346.46Zm-.08-2.68a2.18,2.18,0,0,0,1.43-.55,3.06,3.06,0,0,0,.83-1.38,6,6,0,0,0,.22-2,5.73,5.73,0,0,0-.36-1.94,3.09,3.09,0,0,0-.93-1.32,2.11,2.11,0,0,0-1.46-.45,2.21,2.21,0,0,0-1.44.55,3.08,3.08,0,0,0-.84,1.39,6.46,6.46,0,0,0,.14,3.89,3.09,3.09,0,0,0,.93,1.32A2.24,2.24,0,0,0,754.13,343.78Z"/><path d="M770.46,340.31l-.26-7.18,3.47-.13.45,12.51-3.33.12-.08-2.27h-.13a3.76,3.76,0,0,1-1.34,1.82,4.13,4.13,0,0,1-2.37.75,4.2,4.2,0,0,1-2.23-.49,3.88,3.88,0,0,1-1.54-1.57,5.42,5.42,0,0,1-.63-2.49l-.29-8,3.47-.12.26,7.34a2.5,2.5,0,0,0,.66,1.73,2,2,0,0,0,1.59.59,2.4,2.4,0,0,0,1.17-.33,2.21,2.21,0,0,0,.85-.89A2.64,2.64,0,0,0,770.46,340.31Z"/><path d="M776.89,345.41l-.45-12.51,3.37-.12.08,2.19H780a3.27,3.27,0,0,1,1.08-1.8,3.09,3.09,0,0,1,1.84-.67,5.53,5.53,0,0,1,.56,0,3.6,3.6,0,0,1,.53.07l.11,3.08a3.84,3.84,0,0,0-.68-.11,5.47,5.47,0,0,0-.79,0,2.84,2.84,0,0,0-1.35.38,2.47,2.47,0,0,0-.92,1,2.64,2.64,0,0,0-.29,1.36l.25,7.08Z"/><path d="M796.36,335.77l-3.17.31a1.77,1.77,0,0,0-.38-.73,2,2,0,0,0-.72-.5,2.63,2.63,0,0,0-1.05-.17,2.56,2.56,0,0,0-1.35.39,1,1,0,0,0-.52.92,1,1,0,0,0,.38.75,3.1,3.1,0,0,0,1.25.45l2.28.37a5.69,5.69,0,0,1,2.77,1.11,2.87,2.87,0,0,1,1,2.15,3.49,3.49,0,0,1-.64,2.19,4.7,4.7,0,0,1-1.93,1.51,7.39,7.39,0,0,1-2.86.62,6.8,6.8,0,0,1-4-.89,4,4,0,0,1-1.82-2.77l3.41-.3a1.71,1.71,0,0,0,.79,1.12,3.2,3.2,0,0,0,3-.06,1.12,1.12,0,0,0,.54-.94,1,1,0,0,0-.43-.76,2.87,2.87,0,0,0-1.22-.43l-2.19-.35a5.19,5.19,0,0,1-2.77-1.18,3.15,3.15,0,0,1-1-2.27,3.4,3.4,0,0,1,.58-2.1,4.16,4.16,0,0,1,1.8-1.41,7.51,7.51,0,0,1,2.79-.57,6.1,6.1,0,0,1,3.76.87A3.87,3.87,0,0,1,796.36,335.77Z"/><path d="M688.31,372.89l0-1.24,5.16-8.85.9,0,.07,1.92-.61,0-3.9,6.69v.1l7.37-.26,0,1.33Zm6,2.35-.1-2.93,0-.58-.32-8.94,1.43-.05.44,12.45Z"/><path d="M703.89,375.07a5.43,5.43,0,0,1-2.15-.34,3.64,3.64,0,0,1-1.53-1.1,3,3,0,0,1-.66-1.7l1.53-.05a1.71,1.71,0,0,0,.45,1,2.43,2.43,0,0,0,1,.64,3.73,3.73,0,0,0,2.72-.14,2.37,2.37,0,0,0,.95-.81,2,2,0,0,0,.31-1.17,2.19,2.19,0,0,0-.38-1.2,2.25,2.25,0,0,0-1-.79,4,4,0,0,0-1.62-.24l-1,0-.05-1.34,1,0a2.92,2.92,0,0,0,1.29-.31,2.12,2.12,0,0,0,.86-.79,2,2,0,0,0,.27-1.15,2.14,2.14,0,0,0-.31-1.09,1.87,1.87,0,0,0-.82-.7,2.53,2.53,0,0,0-1.2-.22,3.11,3.11,0,0,0-1.21.28,2.33,2.33,0,0,0-.9.7,1.81,1.81,0,0,0-.35,1.08l-1.46.05a3,3,0,0,1,.53-1.74,3.77,3.77,0,0,1,1.41-1.2,4.54,4.54,0,0,1,2-.48,3.92,3.92,0,0,1,2,.39,3.29,3.29,0,0,1,1.32,1.18,3.25,3.25,0,0,1,.5,1.63,2.89,2.89,0,0,1-.49,1.81,2.75,2.75,0,0,1-1.45,1.08v.1a2.9,2.9,0,0,1,1.88.93,3,3,0,0,1,.73,2,3.18,3.18,0,0,1-.48,1.84,3.74,3.74,0,0,1-1.46,1.32A4.87,4.87,0,0,1,703.89,375.07Z"/><path d="M719.14,365l0,1.21-4.84.17,0-1.21Zm-3.51-2.12,1.43-.05.32,8.9a2,2,0,0,0,.21.9.94.94,0,0,0,.48.39,2,2,0,0,0,.6.07,2,2,0,0,0,.39,0l.24-.05.34,1.28a2.85,2.85,0,0,1-.4.12,3,3,0,0,1-1.86-.13,2.27,2.27,0,0,1-1-.77,2.22,2.22,0,0,1-.43-1.33Z"/><path d="M721.63,374.26l-.33-9.33,1.39-.05,0,1.41h.09a2.25,2.25,0,0,1,.89-1.16,2.73,2.73,0,0,1,1.49-.49H726l.06,1.46-.34-.05a4.7,4.7,0,0,0-.54,0,2.55,2.55,0,0,0-1.2.33,2.2,2.2,0,0,0-.82.81,2,2,0,0,0-.26,1.14l.21,5.9Z"/><path d="M730.76,374.16a3.76,3.76,0,0,1-1.63-.28,2.66,2.66,0,0,1-1.66-2.48,2.38,2.38,0,0,1,.27-1.31,2.22,2.22,0,0,1,.82-.82,4.55,4.55,0,0,1,1.15-.47c.43-.11.85-.2,1.28-.27l1.38-.22a2.1,2.1,0,0,0,.77-.22.52.52,0,0,0,.23-.5v0a1.9,1.9,0,0,0-.54-1.38,2,2,0,0,0-1.5-.44,2.58,2.58,0,0,0-1.59.5,2.8,2.8,0,0,0-.79,1l-1.38-.43a3.39,3.39,0,0,1,.93-1.37,3.73,3.73,0,0,1,1.31-.71,5.58,5.58,0,0,1,1.43-.25,6.71,6.71,0,0,1,1,.07,3.36,3.36,0,0,1,1.15.4,2.44,2.44,0,0,1,1,1,3.7,3.7,0,0,1,.43,1.76l.22,6.15-1.44,0,0-1.26h-.07a2.47,2.47,0,0,1-.47.66,2.88,2.88,0,0,1-.88.63A3.61,3.61,0,0,1,730.76,374.16Zm.17-1.3a3,3,0,0,0,1.43-.38,2.28,2.28,0,0,0,.85-.9,2.12,2.12,0,0,0,.26-1.12l0-1.31a1,1,0,0,1-.39.21c-.21.07-.44.12-.7.18l-.77.13-.6.1a5.46,5.46,0,0,0-1,.27,1.82,1.82,0,0,0-.76.51,1.19,1.19,0,0,0-.26.88,1.25,1.25,0,0,0,.59,1.1A2.47,2.47,0,0,0,730.93,372.86Z"/><path d="M741.45,373.75a3.91,3.91,0,0,1-2.28-.54,4,4,0,0,1-1.52-1.65,6.27,6.27,0,0,1-.16-5,4,4,0,0,1,1.41-1.76,4,4,0,0,1,2.18-.7,4.14,4.14,0,0,1,1.79.31,3.35,3.35,0,0,1,1.33,1,3.12,3.12,0,0,1,.68,1.51l-1.43.05a2.19,2.19,0,0,0-2.3-1.55,2.5,2.5,0,0,0-1.45.49,2.77,2.77,0,0,0-.93,1.25,4.55,4.55,0,0,0-.29,1.86,5,5,0,0,0,.41,1.87,2.85,2.85,0,0,0,1,1.21,2.45,2.45,0,0,0,1.5.4,2.72,2.72,0,0,0,1-.23,2.26,2.26,0,0,0,.75-.59,2.22,2.22,0,0,0,.42-.89l1.43-.05a3.33,3.33,0,0,1-1.77,2.59A3.93,3.93,0,0,1,741.45,373.75Z"/><path d="M747.21,373.36l-.45-12.45,1.44-.05.44,12.44Zm1.21-3.46-.08-1.77h.29l3.93-4.3,1.78-.06-4.2,4.55H750Zm4.72,3.24-3.81-4.48,1-1,4.65,5.46Z"/><path d="M762.87,365.55l-1.27.41a2.53,2.53,0,0,0-.38-.62,1.83,1.83,0,0,0-.65-.49,2.8,2.8,0,0,0-2.45.28,1.17,1.17,0,0,0-.53,1,1,1,0,0,0,.42.83,3.22,3.22,0,0,0,1.23.47l1.4.29a4,4,0,0,1,1.9.86,2.19,2.19,0,0,1,.67,1.58,2.37,2.37,0,0,1-.41,1.45,3.14,3.14,0,0,1-1.24,1.05,4.79,4.79,0,0,1-1.9.43,4.2,4.2,0,0,1-2.38-.54A2.73,2.73,0,0,1,756,370.8l1.35-.39a1.86,1.86,0,0,0,.77,1.11,2.39,2.39,0,0,0,1.44.32,2.63,2.63,0,0,0,1.58-.48,1.25,1.25,0,0,0,.56-1.05,1.12,1.12,0,0,0-.37-.81,2.32,2.32,0,0,0-1.06-.46l-1.57-.3a3.78,3.78,0,0,1-1.92-.88,2.46,2.46,0,0,1-.26-3,3,3,0,0,1,1.19-1,4.21,4.21,0,0,1,1.75-.41,3.5,3.5,0,0,1,2.2.53A3.27,3.27,0,0,1,762.87,365.55Z"/><path d="M773.7,370.13a2.63,2.63,0,0,1-1.36-.32,2.71,2.71,0,0,1-1-.93,2.48,2.48,0,0,1-.41-1.33,2.6,2.6,0,0,1,.31-1.36,2.73,2.73,0,0,1,.94-1,2.46,2.46,0,0,1,1.33-.41,2.59,2.59,0,0,1,1.35.31,2.82,2.82,0,0,1,1,.93,2.67,2.67,0,0,1,.41,1.34,2.59,2.59,0,0,1-.32,1.35,2.74,2.74,0,0,1-.93,1A2.64,2.64,0,0,1,773.7,370.13Z"/><path d="M784.69,372l0-1.09,4-4.64c.47-.55.85-1,1.15-1.42a5.39,5.39,0,0,0,.65-1.13,2.61,2.61,0,0,0,.19-1.1,2,2,0,0,0-.35-1.13,2.06,2.06,0,0,0-.88-.71,2.9,2.9,0,0,0-1.23-.22,2.5,2.5,0,0,0-1.23.34,2.11,2.11,0,0,0-.8.85,2.52,2.52,0,0,0-.24,1.25l-1.44.05a3.62,3.62,0,0,1,.44-1.93,3.49,3.49,0,0,1,1.33-1.34,4.05,4.05,0,0,1,1.95-.53,3.9,3.9,0,0,1,2,.39,3.55,3.55,0,0,1,1.37,1.2,3.24,3.24,0,0,1,.54,1.73,3.72,3.72,0,0,1-.2,1.35,5.92,5.92,0,0,1-.8,1.48,25,25,0,0,1-1.6,2l-2.69,3.08v.1l5.79-.2,0,1.33Z"/><path d="M796.31,366l.2,5.61-1.44,0-.44-12.44,1.44,0,.16,4.57h.12a2.62,2.62,0,0,1,.95-1.18A3.15,3.15,0,0,1,799,362a3.65,3.65,0,0,1,1.69.32,2.61,2.61,0,0,1,1.15,1.13,4.27,4.27,0,0,1,.47,2l.21,5.93-1.43.05-.21-5.83a2.44,2.44,0,0,0-.64-1.71,2,2,0,0,0-1.61-.55,2.59,2.59,0,0,0-1.25.34,2.15,2.15,0,0,0-.84.9A2.81,2.81,0,0,0,796.31,366Z"/><path d="M810,371.12l0-1.09,3.95-4.64c.46-.55.84-1,1.14-1.42a5.47,5.47,0,0,0,.66-1.13,2.74,2.74,0,0,0,.18-1.1,2,2,0,0,0-.35-1.13,2.06,2.06,0,0,0-.88-.71,2.9,2.9,0,0,0-1.23-.22,2.53,2.53,0,0,0-1.23.34,2,2,0,0,0-.79.86,2.38,2.38,0,0,0-.25,1.25l-1.43.05a3.63,3.63,0,0,1,.43-1.94,3.56,3.56,0,0,1,1.33-1.34,4.05,4.05,0,0,1,1.95-.53,3.88,3.88,0,0,1,2,.39,3.48,3.48,0,0,1,1.37,1.2,3.24,3.24,0,0,1,.54,1.73,3.87,3.87,0,0,1-.19,1.35,6.26,6.26,0,0,1-.8,1.48c-.39.55-.92,1.22-1.61,2L812,369.62v.09l5.78-.2.05,1.34Z"/><path d="M824.23,370.79a4.37,4.37,0,0,1-1.94-.36,3.43,3.43,0,0,1-1.42-1.12,3.21,3.21,0,0,1-.63-1.67l1.46-.05a2,2,0,0,0,.82,1.37,2.64,2.64,0,0,0,3.92-.94,3.15,3.15,0,0,0-.12-2.88,2.64,2.64,0,0,0-1-1,2.72,2.72,0,0,0-1.43-.32,4,4,0,0,0-1.16.21,3.32,3.32,0,0,0-1,.5l-1.42-.12.54-6.16,6.47-.23,0,1.34-5.21.19-.3,3.68h.07a3.37,3.37,0,0,1,.94-.54,3.47,3.47,0,0,1,1.2-.24,3.81,3.81,0,0,1,3.52,1.91,4.45,4.45,0,0,1,.59,2.13,4.11,4.11,0,0,1-.46,2.14,3.76,3.76,0,0,1-1.41,1.52A4,4,0,0,1,824.23,370.79Z"/><path d="M830.76,370.39l-.33-9.34,1.39-.05,0,1.46H832a2.27,2.27,0,0,1,.9-1.2,2.84,2.84,0,0,1,1.55-.47,2.57,2.57,0,0,1,1.55.36,2.78,2.78,0,0,1,1,1.13h.09a2.77,2.77,0,0,1,1-1.19,3.37,3.37,0,0,1,1.7-.49,2.81,2.81,0,0,1,2.08.71,3.27,3.27,0,0,1,.88,2.4L843,370l-1.43.05-.22-6.25a1.77,1.77,0,0,0-.62-1.45,2.06,2.06,0,0,0-1.35-.4,1.94,1.94,0,0,0-1.5.65,2.11,2.11,0,0,0-.49,1.51l.22,6.08-1.46.05-.23-6.39a1.73,1.73,0,0,0-.56-1.27,1.89,1.89,0,0,0-1.35-.44,1.92,1.92,0,0,0-1,.34,2.14,2.14,0,0,0-.75.85,2.41,2.41,0,0,0-.25,1.22l.2,5.83Z"/><rect class="cls-4" x="599.4" y="325" width="65" height="65" transform="matrix(1, -0.04, 0.04, 1, -12.3, 22.68)"/><g class="cls-5"><path class="cls-3" d="M1000.26,551.3h-339a17,17,0,0,0-17,17v68.29a17,17,0,0,0,17,17h339Z"/><path d="M751.22,595.51v-16.7h11v2.91h-7.53v4h6.79v2.91h-6.79v6.9Z"/><path d="M769.32,595.75a6.36,6.36,0,0,1-3.28-.81,5.49,5.49,0,0,1-2.13-2.27,8,8,0,0,1,0-6.77,5.55,5.55,0,0,1,2.13-2.27,7,7,0,0,1,6.56,0,5.55,5.55,0,0,1,2.13,2.27,8,8,0,0,1,0,6.77,5.49,5.49,0,0,1-2.13,2.27A6.38,6.38,0,0,1,769.32,595.75Zm0-2.69a2.16,2.16,0,0,0,1.45-.49,3.1,3.1,0,0,0,.87-1.35,6.49,6.49,0,0,0,0-3.9,3.1,3.1,0,0,0-.87-1.35,2.16,2.16,0,0,0-1.45-.5,2.21,2.21,0,0,0-1.46.5,3,3,0,0,0-.89,1.35,6.7,6.7,0,0,0,0,3.9,3,3,0,0,0,.89,1.35A2.2,2.2,0,0,0,769.33,593.06Z"/><path d="M777.74,595.51V583h3.37v2.18h.13a3.23,3.23,0,0,1,1.15-1.76,3,3,0,0,1,1.86-.6l.56,0a3.42,3.42,0,0,1,.53.09V586a4.59,4.59,0,0,0-.68-.13,5.67,5.67,0,0,0-.79-.06,2.77,2.77,0,0,0-1.36.33,2.47,2.47,0,0,0-1,.92,2.6,2.6,0,0,0-.34,1.35v7.09Z"/><path d="M792.51,595.51v-16.7H796v6.89h7.17v-6.89h3.52v16.7h-3.52v-6.9H796v6.9Z"/><path d="M811.32,581.37a1.91,1.91,0,0,1-1.33-.51,1.67,1.67,0,0,1,0-2.48,1.86,1.86,0,0,1,1.33-.52,1.89,1.89,0,0,1,1.33.51,1.68,1.68,0,0,1,0,2.49A1.89,1.89,0,0,1,811.32,581.37Zm-1.75,14.14V583H813v12.52Z"/><path d="M815.81,595.51V583h3.31v2.21h.15a3.42,3.42,0,0,1,1.3-1.74,4.07,4.07,0,0,1,4.38,0,3.14,3.14,0,0,1,1.21,1.74h.13a3.27,3.27,0,0,1,1.39-1.73,4.31,4.31,0,0,1,2.38-.65,3.83,3.83,0,0,1,2.85,1.12,4.29,4.29,0,0,1,1.09,3.15v8.42h-3.46v-7.74a2,2,0,0,0-.55-1.56,2,2,0,0,0-1.39-.53,1.85,1.85,0,0,0-1.47.6,2.27,2.27,0,0,0-.53,1.58v7.65h-3.37V587.7a2,2,0,0,0-.53-1.47,1.84,1.84,0,0,0-1.38-.55,2,2,0,0,0-1,.29,2.2,2.2,0,0,0-.73.81,2.6,2.6,0,0,0-.27,1.21v7.52Z"/><path d="M754.88,622.54a4.38,4.38,0,0,1-1.54-.29,3.68,3.68,0,0,1-1.4-.94,4.82,4.82,0,0,1-1-1.81,9,9,0,0,1-.38-2.87,12.4,12.4,0,0,1,.31-2.94,6.42,6.42,0,0,1,.9-2.17,4,4,0,0,1,1.42-1.34,3.94,3.94,0,0,1,1.89-.45,4,4,0,0,1,1.86.42,3.49,3.49,0,0,1,1.34,1.16,4.13,4.13,0,0,1,.67,1.72h-1.49a2.69,2.69,0,0,0-.8-1.41,2.23,2.23,0,0,0-1.58-.56,2.61,2.61,0,0,0-2.28,1.26,6.51,6.51,0,0,0-.83,3.56h.09a3.67,3.67,0,0,1,.82-.89,3.6,3.6,0,0,1,1-.56,3.45,3.45,0,0,1,1.21-.2,3.7,3.7,0,0,1,2,.53,4,4,0,0,1,1.42,1.46,4.22,4.22,0,0,1,.53,2.14,4.39,4.39,0,0,1-.51,2.11,3.92,3.92,0,0,1-1.45,1.52A4.06,4.06,0,0,1,754.88,622.54Zm0-1.33a2.47,2.47,0,0,0,1.37-.39,2.72,2.72,0,0,0,1-1,2.9,2.9,0,0,0,.36-1.44,3,3,0,0,0-.35-1.41,2.69,2.69,0,0,0-.94-1,2.52,2.52,0,0,0-1.37-.38,2.57,2.57,0,0,0-1.07.23,2.71,2.71,0,0,0-.87.62,3,3,0,0,0-.59.91,2.88,2.88,0,0,0,1.1,3.49A2.52,2.52,0,0,0,754.88,621.21Z"/><path d="M761.81,622.37l5.57-11v-.1H761v-1.34h8v1.41l-5.55,11Z"/><path d="M780.1,613v1.22h-4.84V613Zm-3.43-2.23h1.44v8.9a1.83,1.83,0,0,0,.18.91.89.89,0,0,0,.46.4,1.72,1.72,0,0,0,.6.1,2.06,2.06,0,0,0,.39,0l.24,0,.29,1.29-.41.11a3.09,3.09,0,0,1-1.85-.2,2.4,2.4,0,0,1-1-.8,2.31,2.31,0,0,1-.38-1.35Z"/><path d="M782.27,622.37V613h1.38v1.41h.1a2.27,2.27,0,0,1,.92-1.12,2.72,2.72,0,0,1,1.51-.43h.4l.36,0v1.46l-.34-.06a4.56,4.56,0,0,0-.54,0,2.52,2.52,0,0,0-1.21.29,2.12,2.12,0,0,0-1.15,1.9v5.91Z"/><path d="M791.39,622.59a3.83,3.83,0,0,1-1.61-.33,2.76,2.76,0,0,1-1.15-1,2.72,2.72,0,0,1-.43-1.56,2.41,2.41,0,0,1,.32-1.3,2.2,2.2,0,0,1,.84-.79,4.79,4.79,0,0,1,1.17-.43c.43-.09.86-.17,1.29-.23l1.39-.16a2.29,2.29,0,0,0,.78-.2.52.52,0,0,0,.24-.49v0a1.87,1.87,0,0,0-.49-1.39,2,2,0,0,0-1.48-.5,2.59,2.59,0,0,0-1.61.45,2.67,2.67,0,0,0-.82,1l-1.36-.49a3.31,3.31,0,0,1,1-1.33,3.75,3.75,0,0,1,1.34-.67,6,6,0,0,1,1.43-.19,6,6,0,0,1,1,.11,3.38,3.38,0,0,1,1.14.43,2.51,2.51,0,0,1,.91,1,3.65,3.65,0,0,1,.37,1.78v6.15h-1.44v-1.26h-.07a2.57,2.57,0,0,1-.49.65,2.66,2.66,0,0,1-.9.59A3.55,3.55,0,0,1,791.39,622.59Zm.22-1.29A2.88,2.88,0,0,0,793,621a2.24,2.24,0,0,0,.89-.86,2.27,2.27,0,0,0,.3-1.12v-1.31a.85.85,0,0,1-.4.2,5,5,0,0,1-.7.15l-.77.11-.61.07a5.46,5.46,0,0,0-1,.24,1.91,1.91,0,0,0-.78.48,1.21,1.21,0,0,0-.29.87,1.27,1.27,0,0,0,.55,1.12A2.4,2.4,0,0,0,791.61,621.3Z"/><path d="M802.09,622.57a3.91,3.91,0,0,1-3.72-2.33,5.8,5.8,0,0,1-.51-2.49,5.72,5.72,0,0,1,.52-2.51,4.13,4.13,0,0,1,1.48-1.71,4,4,0,0,1,2.21-.62,4.06,4.06,0,0,1,1.77.37,3.37,3.37,0,0,1,1.3,1,3.25,3.25,0,0,1,.62,1.53h-1.43a2.24,2.24,0,0,0-.73-1.13,2.2,2.2,0,0,0-1.51-.5,2.53,2.53,0,0,0-1.47.44,2.86,2.86,0,0,0-1,1.22,4.54,4.54,0,0,0-.35,1.84,4.76,4.76,0,0,0,.35,1.89,2.92,2.92,0,0,0,1,1.25,2.54,2.54,0,0,0,1.48.44,2.61,2.61,0,0,0,1-.19,2.16,2.16,0,0,0,.77-.56,2.23,2.23,0,0,0,.45-.88h1.43a3.31,3.31,0,0,1-.6,1.49,3.2,3.2,0,0,1-1.25,1A4.06,4.06,0,0,1,802.09,622.57Z"/><path d="M807.86,622.37V609.92h1.43v12.45Zm1.33-3.4,0-1.78h.29l4.09-4.16h1.77L811,617.44h-.12Zm4.6,3.4-3.65-4.62,1-1,4.46,5.61Z"/><path d="M823.79,615.13l-1.29.36a2.54,2.54,0,0,0-.36-.63,1.81,1.81,0,0,0-.63-.51,2.36,2.36,0,0,0-1-.2,2.48,2.48,0,0,0-1.43.39,1.2,1.2,0,0,0-.56,1,1,1,0,0,0,.39.84,3.14,3.14,0,0,0,1.21.52l1.39.34a3.91,3.91,0,0,1,1.87.93,2.21,2.21,0,0,1,.61,1.6,2.36,2.36,0,0,1-.46,1.44,3.07,3.07,0,0,1-1.28,1,4.55,4.55,0,0,1-1.91.37,4.26,4.26,0,0,1-2.37-.62,2.77,2.77,0,0,1-1.18-1.81l1.36-.34a1.9,1.9,0,0,0,.74,1.13,2.47,2.47,0,0,0,1.43.37,2.68,2.68,0,0,0,1.59-.42,1.25,1.25,0,0,0,.6-1,1.11,1.11,0,0,0-.34-.81,2.24,2.24,0,0,0-1-.5l-1.56-.36a3.74,3.74,0,0,1-1.88-.95,2.26,2.26,0,0,1-.6-1.61,2.32,2.32,0,0,1,.45-1.4,3,3,0,0,1,1.22-1,4.29,4.29,0,0,1,1.76-.35,3.55,3.55,0,0,1,2.18.61A3.27,3.27,0,0,1,823.79,615.13Z"/><path d="M834.44,620.09a2.56,2.56,0,0,1-1.34-.36,2.73,2.73,0,0,1-1-1,2.62,2.62,0,0,1-.36-1.35,2.56,2.56,0,0,1,.36-1.34,2.65,2.65,0,0,1,1-1,2.69,2.69,0,0,1,2.69,0,2.73,2.73,0,0,1,1,1,2.56,2.56,0,0,1,.36,1.34,2.62,2.62,0,0,1-.36,1.35,2.81,2.81,0,0,1-1,1A2.57,2.57,0,0,1,834.44,620.09Z"/><path d="M849.57,622.54a5.2,5.2,0,0,1-2.14-.41,3.61,3.61,0,0,1-1.49-1.15,3,3,0,0,1-.6-1.72h1.53a1.82,1.82,0,0,0,.42,1,2.37,2.37,0,0,0,1,.67,3.72,3.72,0,0,0,2.73,0,2.4,2.4,0,0,0,1-.78,2,2,0,0,0,.35-1.16,2.14,2.14,0,0,0-.34-1.21,2.28,2.28,0,0,0-1-.82,3.84,3.84,0,0,0-1.6-.3h-1v-1.34h1a3,3,0,0,0,1.3-.27,2.16,2.16,0,0,0,.88-.75,2.08,2.08,0,0,0,.32-1.14,2.11,2.11,0,0,0-.28-1.11,1.93,1.93,0,0,0-.79-.73,2.61,2.61,0,0,0-1.19-.26,3,3,0,0,0-1.21.24,2.28,2.28,0,0,0-.93.67,1.78,1.78,0,0,0-.39,1.06h-1.46a2.92,2.92,0,0,1,.59-1.71,3.7,3.7,0,0,1,1.45-1.16,4.76,4.76,0,0,1,2-.41,4.15,4.15,0,0,1,2,.46,3.41,3.41,0,0,1,1.27,1.23,3.25,3.25,0,0,1,.44,1.64,2.94,2.94,0,0,1-.55,1.8,2.83,2.83,0,0,1-1.49,1v.1a2.89,2.89,0,0,1,1.84,1,3,3,0,0,1,.66,2,3.16,3.16,0,0,1-.55,1.83,3.66,3.66,0,0,1-1.5,1.26A4.83,4.83,0,0,1,849.57,622.54Z"/><path d="M857.72,616.76v5.61h-1.43V609.92h1.43v4.57h.12a2.69,2.69,0,0,1,1-1.15,3.25,3.25,0,0,1,1.76-.43,3.59,3.59,0,0,1,1.68.38,2.65,2.65,0,0,1,1.11,1.16,4.33,4.33,0,0,1,.4,2v5.93h-1.43v-5.83a2.44,2.44,0,0,0-.58-1.73,2.09,2.09,0,0,0-1.59-.61,2.61,2.61,0,0,0-1.26.3,2.23,2.23,0,0,0-.88.87A2.83,2.83,0,0,0,857.72,616.76Z"/><path d="M875.33,622.54a4.36,4.36,0,0,1-1.53-.29,3.61,3.61,0,0,1-1.4-.94,4.82,4.82,0,0,1-1-1.81,9,9,0,0,1-.39-2.87,12.37,12.37,0,0,1,.32-2.94,6.62,6.62,0,0,1,.89-2.17,4.14,4.14,0,0,1,1.43-1.34,3.94,3.94,0,0,1,1.89-.45,4,4,0,0,1,1.86.42,3.49,3.49,0,0,1,1.34,1.16,4.13,4.13,0,0,1,.67,1.72h-1.49a2.69,2.69,0,0,0-.8-1.41,2.23,2.23,0,0,0-1.58-.56,2.6,2.6,0,0,0-2.28,1.26,6.51,6.51,0,0,0-.83,3.56h.09a3.84,3.84,0,0,1,.81-.89,3.79,3.79,0,0,1,1-.56,3.45,3.45,0,0,1,1.21-.2,3.72,3.72,0,0,1,2,.53,4,4,0,0,1,1.42,1.46,4.22,4.22,0,0,1,.53,2.14,4.39,4.39,0,0,1-.51,2.11,3.92,3.92,0,0,1-1.45,1.52A4.07,4.07,0,0,1,875.33,622.54Zm0-1.33a2.5,2.5,0,0,0,1.38-.39,2.72,2.72,0,0,0,1-1,2.9,2.9,0,0,0,.35-1.44,2.94,2.94,0,0,0-.34-1.41,2.69,2.69,0,0,0-.94-1,2.54,2.54,0,0,0-1.37-.38,2.57,2.57,0,0,0-1.07.23,2.75,2.75,0,0,0-.88.62,3,3,0,0,0-.58.91,2.6,2.6,0,0,0-.22,1.07,2.89,2.89,0,0,0,1.31,2.42A2.56,2.56,0,0,0,875.33,621.21Z"/><path d="M881.9,622.37V613h1.39v1.46h.12a2.4,2.4,0,0,1,.94-1.16,2.85,2.85,0,0,1,1.57-.42,2.68,2.68,0,0,1,1.54.42,2.76,2.76,0,0,1,1,1.16h.1a2.78,2.78,0,0,1,1.08-1.15,3.32,3.32,0,0,1,1.72-.43,2.83,2.83,0,0,1,2,.78,3.27,3.27,0,0,1,.79,2.43v6.25h-1.43v-6.25a1.74,1.74,0,0,0-.57-1.47,2.08,2.08,0,0,0-1.33-.45,2,2,0,0,0-1.53.59,2.16,2.16,0,0,0-.54,1.5v6.08H887.3V616a1.72,1.72,0,0,0-.51-1.29,1.9,1.9,0,0,0-1.34-.49,1.93,1.93,0,0,0-1,.3,2.28,2.28,0,0,0-.78.82,2.53,2.53,0,0,0-.29,1.22v5.83Z"/><rect class="cls-4" x="662.08" y="569.44" width="65" height="65"/></g><g class="cls-6"><path class="cls-3" d="M1000.26,673.4H679.18a17,17,0,0,0-17,17v68.29a17,17,0,0,0,17,17h321.08Z"/><path d="M770.86,703.48a1.9,1.9,0,0,1-1.33-.52,1.61,1.61,0,0,1-.55-1.24,1.64,1.64,0,0,1,.55-1.24,1.89,1.89,0,0,1,1.32-.52,1.84,1.84,0,0,1,1.33.52,1.61,1.61,0,0,1,.55,1.24,1.64,1.64,0,0,1-.55,1.24A1.86,1.86,0,0,1,770.86,703.48Zm-1.75,14.13V705.09h3.47v12.52Z"/><path d="M778.26,700.92v1.76a4.35,4.35,0,0,1-.29,1.52,6.45,6.45,0,0,1-.77,1.47,6,6,0,0,1-1.05,1.17l-1.53-.9a9.1,9.1,0,0,0,.72-1.43,4.85,4.85,0,0,0,.31-1.82v-1.77Z"/><path d="M780.09,717.61V705.09h3.31v2.21h.15a3.5,3.5,0,0,1,1.3-1.74,3.77,3.77,0,0,1,2.19-.63,3.66,3.66,0,0,1,2.19.64,3,3,0,0,1,1.21,1.73h.13a3.31,3.31,0,0,1,1.39-1.73,4.3,4.3,0,0,1,2.38-.64,3.83,3.83,0,0,1,2.85,1.11,4.29,4.29,0,0,1,1.09,3.15v8.42h-3.46v-7.74a2,2,0,0,0-.55-1.56,1.93,1.93,0,0,0-1.39-.52,1.85,1.85,0,0,0-1.47.6,2.25,2.25,0,0,0-.53,1.57v7.65h-3.37V709.8a2.05,2.05,0,0,0-.53-1.47,1.84,1.84,0,0,0-1.38-.54,1.88,1.88,0,0,0-1,.29,2.1,2.1,0,0,0-.73.8,2.6,2.6,0,0,0-.26,1.21v7.52Z"/><path d="M806.41,717.61V700.92h3.47v6.27H810a4.66,4.66,0,0,1,.66-1,3.54,3.54,0,0,1,1.14-.88,3.86,3.86,0,0,1,1.76-.35,4.72,4.72,0,0,1,2.53.71,5.08,5.08,0,0,1,1.85,2.14,8.27,8.27,0,0,1,.69,3.59,8.45,8.45,0,0,1-.67,3.53,5,5,0,0,1-1.83,2.17,4.63,4.63,0,0,1-2.58.74,4.06,4.06,0,0,1-1.72-.33,3.74,3.74,0,0,1-1.15-.85,4.17,4.17,0,0,1-.68-1h-.16v2Zm3.4-6.26a5.54,5.54,0,0,0,.31,1.95,2.85,2.85,0,0,0,.89,1.29,2.43,2.43,0,0,0,2.86,0,2.9,2.9,0,0,0,.9-1.3,5.71,5.71,0,0,0,.3-1.93,5.59,5.59,0,0,0-.3-1.91,2.85,2.85,0,0,0-.89-1.29,2.24,2.24,0,0,0-1.44-.46,2.28,2.28,0,0,0-1.43.45,2.73,2.73,0,0,0-.89,1.27A5.41,5.41,0,0,0,809.81,711.35Z"/><path d="M824.49,717.84a5.16,5.16,0,0,1-2.13-.42,3.33,3.33,0,0,1-1.48-1.24,4.23,4.23,0,0,1-.16-3.82,3.17,3.17,0,0,1,1-1.14,4.9,4.9,0,0,1,1.51-.65,10.89,10.89,0,0,1,1.77-.31c.73-.08,1.32-.15,1.76-.22a2.58,2.58,0,0,0,1-.3.69.69,0,0,0,.3-.61v0a1.5,1.5,0,0,0-.48-1.19,2,2,0,0,0-1.38-.43,2.48,2.48,0,0,0-1.49.41,2,2,0,0,0-.73,1l-3.21-.26a4.29,4.29,0,0,1,1-2,4.68,4.68,0,0,1,1.85-1.29,7.16,7.16,0,0,1,2.64-.45,8.18,8.18,0,0,1,2,.24,5.31,5.31,0,0,1,1.71.76,3.78,3.78,0,0,1,1.17,1.31,4,4,0,0,1,.43,1.92v8.45h-3.29v-1.74h-.1a3.49,3.49,0,0,1-.8,1,3.65,3.65,0,0,1-1.22.7A5.1,5.1,0,0,1,824.49,717.84Zm1-2.39a2.8,2.8,0,0,0,1.35-.31,2.37,2.37,0,0,0,.92-.82,2.12,2.12,0,0,0,.34-1.19v-1.32a2,2,0,0,1-.45.19,5.9,5.9,0,0,1-.63.15c-.23.05-.47.09-.7.12l-.63.1a4.27,4.27,0,0,0-1.07.28,1.7,1.7,0,0,0-.71.53,1.29,1.29,0,0,0-.25.82,1.26,1.26,0,0,0,.51,1.08A2.28,2.28,0,0,0,825.49,715.45Z"/><path d="M834.31,717.61V700.92h3.47v6.27h.1a5.14,5.14,0,0,1,.67-1,3.54,3.54,0,0,1,1.14-.88,3.86,3.86,0,0,1,1.76-.35,4.66,4.66,0,0,1,2.52.71,5,5,0,0,1,1.85,2.14,9.53,9.53,0,0,1,0,7.12,4.92,4.92,0,0,1-1.82,2.17,4.63,4.63,0,0,1-2.58.74,4,4,0,0,1-1.72-.33,3.63,3.63,0,0,1-1.15-.85,4.22,4.22,0,0,1-.69-1h-.15v2Zm3.4-6.26a5.54,5.54,0,0,0,.31,1.95,2.85,2.85,0,0,0,.89,1.29,2.43,2.43,0,0,0,2.86,0,2.88,2.88,0,0,0,.89-1.3,5.47,5.47,0,0,0,.31-1.93,5.59,5.59,0,0,0-.3-1.91,2.85,2.85,0,0,0-.89-1.29,2.24,2.24,0,0,0-1.44-.46,2.26,2.26,0,0,0-1.43.45,2.73,2.73,0,0,0-.89,1.27A5.41,5.41,0,0,0,837.71,711.35Z"/><path d="M850.55,722.28a7.85,7.85,0,0,1-1.23-.1,4.94,4.94,0,0,1-1-.25l.78-2.6a3.12,3.12,0,0,0,1.55.15,1.51,1.51,0,0,0,1-1l.2-.53-4.49-12.88h3.65l2.59,9.19h.14l2.61-9.19,3.68,0L855.21,719a5.77,5.77,0,0,1-1,1.75,4.05,4.05,0,0,1-1.51,1.16A5.4,5.4,0,0,1,850.55,722.28Z"/><path d="M773.07,732v12.46h-1.5V733.6h-.08l-3,2v-1.53l3.12-2.07Z"/><path d="M780.64,744.65a5.13,5.13,0,0,1-2.21-.45,3.58,3.58,0,0,1-1.49-1.23,3,3,0,0,1-.53-1.8,3.33,3.33,0,0,1,1.17-2.59,2.66,2.66,0,0,1,1.24-.57v-.08a2.4,2.4,0,0,1-1.43-1,3.26,3.26,0,0,1,0-3.47,3.43,3.43,0,0,1,1.34-1.18,4.37,4.37,0,0,1,1.95-.43,4.28,4.28,0,0,1,1.93.43,3.43,3.43,0,0,1,1.34,1.18,3.16,3.16,0,0,1,0,3.47,2.38,2.38,0,0,1-1.41,1V738a2.59,2.59,0,0,1,1.22.57,3.43,3.43,0,0,1,1.19,2.59,3.13,3.13,0,0,1-.54,1.8,3.7,3.7,0,0,1-1.49,1.23A5.12,5.12,0,0,1,780.64,744.65Zm0-1.34a3.62,3.62,0,0,0,1.46-.27,2.23,2.23,0,0,0,.95-.78,2.14,2.14,0,0,0,.34-1.16,2.3,2.3,0,0,0-.37-1.25,2.43,2.43,0,0,0-1-.85,3,3,0,0,0-1.41-.31,3.12,3.12,0,0,0-1.42.31,2.39,2.39,0,0,0-1,.85,2.2,2.2,0,0,0-.35,1.25,2,2,0,0,0,.33,1.16,2.12,2.12,0,0,0,.95.78A3.64,3.64,0,0,0,780.64,743.31Zm0-5.91a2.54,2.54,0,0,0,1.19-.27,2.15,2.15,0,0,0,.82-3,2,2,0,0,0-.81-.73,2.65,2.65,0,0,0-1.2-.25,2.74,2.74,0,0,0-1.22.25,2,2,0,0,0-.81.73,2,2,0,0,0-.28,1.11,2,2,0,0,0,1.11,1.87A2.56,2.56,0,0,0,780.64,737.4Z"/><path d="M796.11,735.14v1.21h-4.84v-1.21Zm-3.43-2.24h1.44v8.9a1.8,1.8,0,0,0,.18.91.89.89,0,0,0,.46.4,1.72,1.72,0,0,0,.6.1l.39,0,.24-.05.29,1.29a2.85,2.85,0,0,1-.41.11,3.09,3.09,0,0,1-1.85-.2,2.24,2.24,0,0,1-1.34-2.15Z"/><path d="M798.28,744.48v-9.34h1.38v1.41h.1a2.25,2.25,0,0,1,.92-1.13,2.72,2.72,0,0,1,1.51-.43H803v1.46l-.34-.05a3.12,3.12,0,0,0-.54,0,2.51,2.51,0,0,0-1.21.28,2.11,2.11,0,0,0-.84.78,2,2,0,0,0-.31,1.13v5.91Z"/><path d="M807.4,744.7a3.83,3.83,0,0,1-1.61-.34,2.66,2.66,0,0,1-1.58-2.53,2.44,2.44,0,0,1,.32-1.31,2.28,2.28,0,0,1,.84-.79,4.52,4.52,0,0,1,1.17-.42,11.41,11.41,0,0,1,1.3-.23c.56-.08,1-.13,1.38-.17a2.08,2.08,0,0,0,.78-.2.5.5,0,0,0,.24-.48v-.05a1.9,1.9,0,0,0-.49-1.4,2,2,0,0,0-1.48-.5,2.59,2.59,0,0,0-1.61.45,2.67,2.67,0,0,0-.82,1l-1.36-.49a3.38,3.38,0,0,1,1-1.33,3.73,3.73,0,0,1,1.34-.66,5.55,5.55,0,0,1,1.44-.2,5.94,5.94,0,0,1,1,.11,3.41,3.41,0,0,1,1.14.44,2.51,2.51,0,0,1,.91,1,3.58,3.58,0,0,1,.37,1.77v6.16h-1.44v-1.27h-.07a2.57,2.57,0,0,1-.49.65,2.66,2.66,0,0,1-.9.59A3.37,3.37,0,0,1,807.4,744.7Zm.22-1.29a2.84,2.84,0,0,0,1.44-.34,2.28,2.28,0,0,0,.88-.86,2.2,2.2,0,0,0,.3-1.11v-1.32a.77.77,0,0,1-.39.2,5.48,5.48,0,0,1-.71.15l-.77.11-.61.08a5.46,5.46,0,0,0-1,.23,1.91,1.91,0,0,0-.78.48,1.21,1.21,0,0,0-.29.87,1.28,1.28,0,0,0,.55,1.13A2.5,2.5,0,0,0,807.62,743.41Z"/><path d="M818.1,744.67a3.91,3.91,0,0,1-3.72-2.33,6.33,6.33,0,0,1,0-5,4.13,4.13,0,0,1,1.48-1.71,4,4,0,0,1,2.21-.62,4.21,4.21,0,0,1,1.77.37,3.37,3.37,0,0,1,1.3,1,3.25,3.25,0,0,1,.62,1.53h-1.43a2.24,2.24,0,0,0-.73-1.13,2.2,2.2,0,0,0-1.51-.5,2.53,2.53,0,0,0-1.47.44,2.92,2.92,0,0,0-1,1.22,4.59,4.59,0,0,0-.35,1.85,4.71,4.71,0,0,0,.35,1.88,2.86,2.86,0,0,0,1,1.25,2.47,2.47,0,0,0,1.48.44,2.61,2.61,0,0,0,1-.19,2.09,2.09,0,0,0,1.22-1.44h1.43a3.28,3.28,0,0,1-1.85,2.54A4.17,4.17,0,0,1,818.1,744.67Z"/><path d="M823.87,744.48V732h1.43v12.46Zm1.33-3.41,0-1.77h.29l4.09-4.16h1.77l-4.35,4.4h-.12Zm4.6,3.41-3.65-4.62,1-1,4.46,5.62Z"/><path d="M839.8,737.23l-1.29.36a2.54,2.54,0,0,0-.36-.63,1.69,1.69,0,0,0-.63-.5,2.23,2.23,0,0,0-1-.2,2.48,2.48,0,0,0-1.43.39,1.17,1.17,0,0,0-.56,1,1,1,0,0,0,.39.85,3.15,3.15,0,0,0,1.21.51l1.39.34a4,4,0,0,1,1.87.93,2.23,2.23,0,0,1,.61,1.6,2.36,2.36,0,0,1-.46,1.44,3.17,3.17,0,0,1-1.28,1,4.72,4.72,0,0,1-1.91.36,4.18,4.18,0,0,1-2.37-.62,2.77,2.77,0,0,1-1.18-1.81l1.36-.34a1.9,1.9,0,0,0,.74,1.13,2.47,2.47,0,0,0,1.43.38,2.68,2.68,0,0,0,1.59-.43,1.25,1.25,0,0,0,.6-1,1.12,1.12,0,0,0-.34-.82,2.24,2.24,0,0,0-1-.5l-1.56-.36a3.66,3.66,0,0,1-1.88-.95,2.42,2.42,0,0,1-.15-3,2.94,2.94,0,0,1,1.22-1,4.29,4.29,0,0,1,1.76-.35,3.55,3.55,0,0,1,2.18.61A3.27,3.27,0,0,1,839.8,737.23Z"/><path d="M850.45,742.19a2.59,2.59,0,0,1-1.34-.36,2.73,2.73,0,0,1-1-1,2.6,2.6,0,0,1-.36-1.35,2.56,2.56,0,0,1,.36-1.34,2.65,2.65,0,0,1,1-1,2.69,2.69,0,0,1,2.69,0,2.73,2.73,0,0,1,1,1,2.56,2.56,0,0,1,.36,1.34,2.6,2.6,0,0,1-.36,1.35,2.81,2.81,0,0,1-1,1A2.57,2.57,0,0,1,850.45,742.19Z"/><path d="M865.27,744.65a4.18,4.18,0,0,1-1.93-.43,3.48,3.48,0,0,1-1.37-1.17,3.08,3.08,0,0,1-.57-1.69h1.46a2,2,0,0,0,.77,1.4,2.52,2.52,0,0,0,1.64.55,2.57,2.57,0,0,0,2.31-1.35,2.9,2.9,0,0,0,.34-1.42,2.93,2.93,0,0,0-.36-1.46,2.62,2.62,0,0,0-1-1,2.72,2.72,0,0,0-1.42-.38,4,4,0,0,0-1.17.17,3.51,3.51,0,0,0-1,.46l-1.42-.17.76-6.13h6.47v1.34h-5.21l-.43,3.67h.07a3.09,3.09,0,0,1,1-.5,3.78,3.78,0,0,1,1.2-.2,3.84,3.84,0,0,1,2,.54,3.89,3.89,0,0,1,1.41,1.49,4.36,4.36,0,0,1,.52,2.15,4.26,4.26,0,0,1-.53,2.13,4,4,0,0,1-1.47,1.47A4.12,4.12,0,0,1,865.27,744.65Z"/><path d="M871.79,744.48v-1.1l4.11-4.5c.48-.52.88-1,1.19-1.38a5.67,5.67,0,0,0,.7-1.1,2.72,2.72,0,0,0,.22-1.09,2,2,0,0,0-1.16-1.88,2.7,2.7,0,0,0-1.22-.26,2.51,2.51,0,0,0-1.25.29,2.09,2.09,0,0,0-.82.82,2.62,2.62,0,0,0-.29,1.25h-1.43a3.63,3.63,0,0,1,.5-1.93,3.57,3.57,0,0,1,1.38-1.29,4.2,4.2,0,0,1,2-.46,4.06,4.06,0,0,1,1.94.46,3.53,3.53,0,0,1,1.32,1.25,3.21,3.21,0,0,1,.49,1.75,3.92,3.92,0,0,1-.25,1.34,6.35,6.35,0,0,1-.85,1.45c-.41.53-1,1.18-1.68,1.95l-2.79,3v.1h5.78v1.34Z"/><path d="M882.17,744.48v-9.34h1.39v1.46h.12a2.43,2.43,0,0,1,.94-1.17,2.85,2.85,0,0,1,1.57-.42,2.68,2.68,0,0,1,1.54.42,2.79,2.79,0,0,1,1,1.17h.1a2.74,2.74,0,0,1,1.08-1.16,3.35,3.35,0,0,1,1.72-.43,2.82,2.82,0,0,1,2,.79,3.27,3.27,0,0,1,.79,2.43v6.25H893v-6.25a1.76,1.76,0,0,0-.57-1.48,2.06,2.06,0,0,0-1.33-.45,2,2,0,0,0-1.53.6,2.12,2.12,0,0,0-.54,1.5v6.08h-1.46v-6.4a1.72,1.72,0,0,0-.51-1.29,1.9,1.9,0,0,0-1.33-.49,1.94,1.94,0,0,0-1.05.3,2.23,2.23,0,0,0-.78.83,2.49,2.49,0,0,0-.29,1.21v5.84Z"/><rect class="cls-4" x="680.08" y="691.44" width="65" height="65"/></g><g class="cls-7"><path class="cls-3" d="M1000.26,163.44H638.78a17,17,0,0,0-17,17v68.29a17,17,0,0,0,17,17h361.48Z"/><path d="M731.18,207.65l-3.41-12.52h3.51l1.94,8.41h.11l2-8.41h3.44l2.06,8.36h.1l1.91-8.36h3.5L743,207.65H739.3l-2.15-7.87H737l-2.15,7.87Z"/><path d="M753.56,207.9a6.29,6.29,0,0,1-3.28-.82,5.47,5.47,0,0,1-2.13-2.26,8,8,0,0,1,0-6.77,5.49,5.49,0,0,1,2.13-2.27,7,7,0,0,1,6.56,0,5.49,5.49,0,0,1,2.13,2.27,8,8,0,0,1,0,6.77,5.47,5.47,0,0,1-2.13,2.26A6.26,6.26,0,0,1,753.56,207.9Zm0-2.69a2.14,2.14,0,0,0,1.44-.5,3,3,0,0,0,.88-1.35,6.67,6.67,0,0,0,0-3.89,3,3,0,0,0-.88-1.35,2.09,2.09,0,0,0-1.44-.5,2.14,2.14,0,0,0-1.46.5,3,3,0,0,0-.89,1.35,6.46,6.46,0,0,0,0,3.89,3,3,0,0,0,.89,1.35A2.19,2.19,0,0,0,753.58,205.21Z"/><path d="M762,207.65V195.13h3.37v2.19h.13a3.26,3.26,0,0,1,1.15-1.77,3,3,0,0,1,1.85-.6,3.82,3.82,0,0,1,.57,0,3.64,3.64,0,0,1,.53.09v3.08a3.74,3.74,0,0,0-.68-.13,5.79,5.79,0,0,0-.79-.06,2.8,2.8,0,0,0-1.37.33,2.44,2.44,0,0,0-.94.92,2.61,2.61,0,0,0-.35,1.35v7.08Z"/><path d="M771.37,207.65V191h3.47v16.69Zm3.15-3.6v-4.17h.5l4-4.75h4l-5.39,6.29h-.82Zm4.67,3.6-3.68-5.45,2.32-2.45,5.43,7.9Z"/><path d="M789.86,207.9a6.33,6.33,0,0,1-3.29-.82,5.47,5.47,0,0,1-2.13-2.26,8,8,0,0,1,0-6.77,5.49,5.49,0,0,1,2.13-2.27,7.07,7.07,0,0,1,6.57,0,5.49,5.49,0,0,1,2.13,2.27,8,8,0,0,1,0,6.77,5.47,5.47,0,0,1-2.13,2.26A6.31,6.31,0,0,1,789.86,207.9Zm0-2.69a2.12,2.12,0,0,0,1.44-.5,3,3,0,0,0,.88-1.35,6.46,6.46,0,0,0,0-3.89,3,3,0,0,0-.88-1.35,2.07,2.07,0,0,0-1.44-.5,2.14,2.14,0,0,0-1.46.5,3,3,0,0,0-.89,1.35,6.46,6.46,0,0,0,0,3.89,3,3,0,0,0,.89,1.35A2.19,2.19,0,0,0,789.87,205.21Z"/><path d="M806.31,202.32v-7.19h3.47v12.52h-3.33v-2.27h-.13a3.71,3.71,0,0,1-1.41,1.77,4.17,4.17,0,0,1-2.39.66,4.23,4.23,0,0,1-2.21-.57,4,4,0,0,1-1.49-1.62,5.71,5.71,0,0,1-.54-2.52v-8h3.47v7.35a2.58,2.58,0,0,0,.6,1.76,2,2,0,0,0,1.57.64,2.54,2.54,0,0,0,1.18-.29,2.27,2.27,0,0,0,.88-.86A2.59,2.59,0,0,0,806.31,202.32Z"/><path d="M819.21,195.13v2.61h-7.54v-2.61Zm-5.83-3h3.48V203.8a1.57,1.57,0,0,0,.14.75.81.81,0,0,0,.41.37,1.71,1.71,0,0,0,.62.11,2.72,2.72,0,0,0,.49-.05l.37-.07.55,2.59-.73.19a6,6,0,0,1-1.15.13,5.4,5.4,0,0,1-2.2-.33,3.08,3.08,0,0,1-1.46-1.19,3.68,3.68,0,0,1-.52-2Z"/><path class="cls-8" d="M826.17,203.28c-.33-2.43,1.18-6.36,1.88-11.64.13-.95,5-1.94,7.31-1.94.6,0,1.09,2.68.94,3.61-.11.68-1.06.5-1.06.5a1,1,0,0,1-1.28.55c-.28.77-1.15.41-1.15.41a.89.89,0,0,1-1.15.37c-.72,3.1.61,2.83,1.58,7.54,0,0,.28-.05,1-1.59,3.08-6.22,13.91-4.23,13.27,2.43-.14,1.48,1.42,3.9-4.41,5.72-4.62,1.45-10.3-1.32-10.3-1.32-1.94.59-5.69.56-5.8-.88C826.91,205.38,826.34,204.53,826.17,203.28Z"/><path class="cls-9" d="M847.55,203.52a4.88,4.88,0,0,0-1.17-3.82,5,5,0,0,1,.65,3.11c-.14,1.49,1.42,3.91-4.4,5.73-4.62,1.44-10.31-1.32-10.31-1.32-1.51.46-4.16.54-5.28-.13.15,1.39,3.88,1.42,5.8.83,0,0,5.68,2.77,10.3,1.32C849,207.42,847.41,205,847.55,203.52Z"/><path class="cls-9" d="M831.24,195.09c-.91,3.67.55,3.51,1.53,8.15l.52-.53c-.72-4.65-1.95-4.09-1.65-7.53A1.15,1.15,0,0,1,831.24,195.09Z"/><path class="cls-9" d="M835.88,205.53c3,1.12,7.47,0,10-1.2C844.76,207,838.84,208.43,835.88,205.53Z"/><path class="cls-9" d="M834.4,190.71a.68.68,0,0,0-.93-.24C833.51,190.06,834.57,189.73,834.4,190.71Z"/><path class="cls-9" d="M836.58,192.26a4.5,4.5,0,0,0-.84-2.2,5.75,5.75,0,0,1,.39,2.1c0,.32.07,1.46-.5,1.31-.35-.09-.36-.39-.46-.7a4.72,4.72,0,0,1-.39-1.55,4.94,4.94,0,0,0,.08,1.62c0,.29.26,1.09-.13,1.2a.9.9,0,0,1-.65-.18c-.07,0-.12-.33-.14-.41a4.82,4.82,0,0,1-.4-1.61,4.69,4.69,0,0,0,0,1.54c0,.3.19,1-.18,1.1s-.47-.28-.55-.54a5.25,5.25,0,0,1-.37-1.49,7.92,7.92,0,0,0,0,1.94c0,.31-.68.58-.94.39-.41-.3-.47-1-.52-1.48.12.16.3.36.52.34a3.66,3.66,0,0,1-.4-.79c-.11-.2-.35-.67-.63-.68a2.49,2.49,0,0,1,.24.73c-.11.2-.22.4-.34.58s-.42.66-.67.51-.36-.62-.44-.89c0,.35,0,.9.36,1.11s.71-.11.92-.34c.08.73.39,1.69,1.3,1.63a1.88,1.88,0,0,0,.56-.16c.14-.07.31-.23.46-.19a1,1,0,0,0,1.07-.26c.13-.14.09-.23.28-.18a1.44,1.44,0,0,0,.62,0,1,1,0,0,0,.43-.28,1,1,0,0,0,.15-.24c.06-.14.13-.07.27-.07.93,0,.9-1.19.81-1.86S836.61,192.47,836.58,192.26Z"/><path class="cls-9" d="M835.71,190.22a.68.68,0,0,0-.93-.24C834.82,189.56,835.88,189.24,835.71,190.22Z"/><path class="cls-9" d="M833.36,191.26a.68.68,0,0,0-.93-.24C832.46,190.6,833.52,190.27,833.36,191.26Z"/><path class="cls-9" d="M832.15,191.82a.68.68,0,0,0-.93-.24C831.25,191.16,832.31,190.84,832.15,191.82Z"/><path d="M728.29,234.52v-1.09l4.12-4.5c.48-.53.88-1,1.19-1.38a5,5,0,0,0,.69-1.11,2.57,2.57,0,0,0,.23-1.09,2,2,0,0,0-1.17-1.88,2.79,2.79,0,0,0-1.21-.26,2.59,2.59,0,0,0-1.25.29,2,2,0,0,0-.82.83,2.45,2.45,0,0,0-.29,1.24h-1.44a3.58,3.58,0,0,1,.51-1.92,3.37,3.37,0,0,1,1.38-1.29,4.09,4.09,0,0,1,2-.47,4,4,0,0,1,1.94.47,3.5,3.5,0,0,1,1.32,1.24,3.31,3.31,0,0,1,.48,1.75,3.87,3.87,0,0,1-.24,1.34,6.14,6.14,0,0,1-.85,1.45q-.62.81-1.68,2l-2.8,3v.1h5.79v1.34Z"/><path d="M739.05,234.52l5.57-11v-.1h-6.43v-1.33h8v1.41l-5.54,11Z"/><path d="M757.34,225.18v1.21H752.5v-1.21Zm-3.43-2.24h1.43v8.9a1.8,1.8,0,0,0,.18.91.86.86,0,0,0,.47.4,1.64,1.64,0,0,0,.6.1,2.12,2.12,0,0,0,.38,0l.25,0,.29,1.29a2,2,0,0,1-.41.11,3,3,0,0,1-.66.06,2.93,2.93,0,0,1-1.19-.26,2.24,2.24,0,0,1-1.34-2.15Z"/><path d="M759.5,234.52v-9.34h1.39v1.41h.1a2.29,2.29,0,0,1,.92-1.13,2.8,2.8,0,0,1,1.51-.43h.4l.36,0v1.46a2.87,2.87,0,0,0-.34-.06,3.12,3.12,0,0,0-.54,0,2.51,2.51,0,0,0-1.21.28,2.11,2.11,0,0,0-.84.78,2.06,2.06,0,0,0-.31,1.13v5.91Z"/><path d="M768.63,234.74a3.66,3.66,0,0,1-1.61-.34,2.63,2.63,0,0,1-1.15-1,2.69,2.69,0,0,1-.43-1.55,2.44,2.44,0,0,1,.32-1.31,2.25,2.25,0,0,1,.84-.78,4.28,4.28,0,0,1,1.17-.43c.43-.1.86-.17,1.29-.23l1.39-.17a2.08,2.08,0,0,0,.78-.2.5.5,0,0,0,.24-.48v-.05a1.9,1.9,0,0,0-.49-1.4,2,2,0,0,0-1.48-.5,2.59,2.59,0,0,0-1.61.45,2.67,2.67,0,0,0-.82,1l-1.36-.48a3.31,3.31,0,0,1,1-1.33,3.75,3.75,0,0,1,1.34-.67,5.52,5.52,0,0,1,1.43-.19,5.94,5.94,0,0,1,1,.1,3.41,3.41,0,0,1,1.14.44,2.58,2.58,0,0,1,.91,1,3.6,3.6,0,0,1,.37,1.78v6.15h-1.44v-1.27h-.07a2.6,2.6,0,0,1-.49.66,2.93,2.93,0,0,1-.9.59A3.55,3.55,0,0,1,768.63,234.74Zm.22-1.29a2.88,2.88,0,0,0,1.43-.33,2.4,2.4,0,0,0,.89-.87,2.2,2.2,0,0,0,.3-1.11v-1.32a.77.77,0,0,1-.4.2,5.31,5.31,0,0,1-.7.15c-.27.05-.52.08-.77.11l-.61.08a6.35,6.35,0,0,0-1,.23,1.91,1.91,0,0,0-.78.48,1.24,1.24,0,0,0-.3.87,1.28,1.28,0,0,0,.56,1.13A2.48,2.48,0,0,0,768.85,233.45Z"/><path d="M779.33,234.71a4,4,0,0,1-2.26-.62,4,4,0,0,1-1.46-1.7,5.83,5.83,0,0,1-.51-2.49,5.76,5.76,0,0,1,.52-2.52,4.23,4.23,0,0,1,1.47-1.71,4,4,0,0,1,2.22-.61,4.24,4.24,0,0,1,1.77.36,3.56,3.56,0,0,1,1.3,1A3.24,3.24,0,0,1,783,228h-1.43a2.22,2.22,0,0,0-.73-1.14,2.2,2.2,0,0,0-1.51-.49,2.52,2.52,0,0,0-1.47.43,2.85,2.85,0,0,0-1,1.22,4.59,4.59,0,0,0-.35,1.85,4.71,4.71,0,0,0,.35,1.88,2.8,2.8,0,0,0,1,1.25,2.47,2.47,0,0,0,1.48.45,2.61,2.61,0,0,0,1-.2,2.16,2.16,0,0,0,.77-.56,2.12,2.12,0,0,0,.45-.87H783a3.35,3.35,0,0,1-1.85,2.53A4.06,4.06,0,0,1,779.33,234.71Z"/><path d="M785.09,234.52V222.07h1.44v12.45Zm1.34-3.41,0-1.77h.29l4.09-4.16h1.77l-4.35,4.4h-.12Zm4.6,3.41-3.65-4.62,1-1,4.45,5.62Z"/><path d="M801,227.27l-1.29.37a2.22,2.22,0,0,0-.36-.63,1.69,1.69,0,0,0-.63-.51,2.23,2.23,0,0,0-1-.2,2.48,2.48,0,0,0-1.43.39,1.16,1.16,0,0,0-.57,1,1,1,0,0,0,.39.85,3.27,3.27,0,0,0,1.22.52l1.39.34a3.86,3.86,0,0,1,1.86.92,2.2,2.2,0,0,1,.62,1.61,2.42,2.42,0,0,1-.46,1.43,3.09,3.09,0,0,1-1.28,1,4.72,4.72,0,0,1-1.91.36,4.18,4.18,0,0,1-2.37-.62,2.71,2.71,0,0,1-1.18-1.81l1.36-.34a1.9,1.9,0,0,0,.74,1.13,2.47,2.47,0,0,0,1.43.38,2.63,2.63,0,0,0,1.59-.43,1.23,1.23,0,0,0,.59-1,1.09,1.09,0,0,0-.34-.82,2.15,2.15,0,0,0-1-.49l-1.56-.37a3.69,3.69,0,0,1-1.88-.94,2.43,2.43,0,0,1-.15-3,3,3,0,0,1,1.22-1,4.28,4.28,0,0,1,1.76-.34,3.49,3.49,0,0,1,2.18.61A3.31,3.31,0,0,1,801,227.27Z"/><path d="M811.68,232.23a2.56,2.56,0,0,1-1.34-.36,2.65,2.65,0,0,1-1-1,2.69,2.69,0,0,1,0-2.69,2.73,2.73,0,0,1,1-1,2.69,2.69,0,0,1,2.69,0,2.81,2.81,0,0,1,1,1,2.69,2.69,0,0,1,0,2.69,2.73,2.73,0,0,1-1,1A2.57,2.57,0,0,1,811.68,232.23Z"/><path d="M827,222.07v12.45h-1.5V223.65h-.08l-3,2v-1.54l3.12-2.06Z"/><path d="M832,228.9v5.62h-1.44V222.07H832v4.57h.12a2.64,2.64,0,0,1,1-1.15,3.14,3.14,0,0,1,1.76-.43,3.43,3.43,0,0,1,1.67.38,2.62,2.62,0,0,1,1.12,1.16,4.42,4.42,0,0,1,.39,2v5.94h-1.43v-5.84a2.43,2.43,0,0,0-.57-1.72,2.09,2.09,0,0,0-1.59-.61,2.73,2.73,0,0,0-1.27.29,2.14,2.14,0,0,0-.87.87A2.77,2.77,0,0,0,832,228.9Z"/><path d="M845.49,234.52v-1.09l4.12-4.5c.48-.53.88-1,1.19-1.38a5,5,0,0,0,.69-1.11,2.57,2.57,0,0,0,.23-1.09,2,2,0,0,0-.31-1.14,2.07,2.07,0,0,0-.86-.74,2.79,2.79,0,0,0-1.21-.26,2.59,2.59,0,0,0-1.25.29,2,2,0,0,0-.82.83,2.45,2.45,0,0,0-.29,1.24h-1.44a3.58,3.58,0,0,1,.51-1.92,3.41,3.41,0,0,1,1.37-1.29,4.15,4.15,0,0,1,2-.47,4,4,0,0,1,1.94.47,3.5,3.5,0,0,1,1.32,1.24,3.31,3.31,0,0,1,.48,1.75,3.87,3.87,0,0,1-.24,1.34,5.89,5.89,0,0,1-.86,1.45,23.53,23.53,0,0,1-1.67,2l-2.8,3v.1h5.79v1.34Z"/><path d="M860.07,234.69a5.39,5.39,0,0,1-2.15-.41,3.69,3.69,0,0,1-1.49-1.16,3.07,3.07,0,0,1-.6-1.71h1.54a1.78,1.78,0,0,0,.41,1,2.39,2.39,0,0,0,1,.68,3.68,3.68,0,0,0,1.31.23,3.33,3.33,0,0,0,1.42-.28,2.25,2.25,0,0,0,1-.78,2,2,0,0,0,.35-1.15,2.14,2.14,0,0,0-.34-1.21,2.23,2.23,0,0,0-1-.83,3.84,3.84,0,0,0-1.6-.3h-1v-1.33h1a3,3,0,0,0,1.3-.27,2,2,0,0,0,.88-.76,2,2,0,0,0,.32-1.14,2.07,2.07,0,0,0-.28-1.1,1.86,1.86,0,0,0-.79-.73,2.58,2.58,0,0,0-1.19-.26,3.26,3.26,0,0,0-1.21.23,2.3,2.3,0,0,0-.93.68,1.76,1.76,0,0,0-.39,1.06H856.1a3,3,0,0,1,.59-1.72,3.68,3.68,0,0,1,1.45-1.15,4.61,4.61,0,0,1,2-.42,4,4,0,0,1,2,.47,3.34,3.34,0,0,1,1.27,1.23,3.22,3.22,0,0,1,.44,1.64,2.89,2.89,0,0,1-.55,1.79,2.79,2.79,0,0,1-1.49,1v.1a2.87,2.87,0,0,1,1.84,1,3,3,0,0,1,.66,2,3.13,3.13,0,0,1-.55,1.82,3.68,3.68,0,0,1-1.5,1.27A4.82,4.82,0,0,1,860.07,234.69Z"/><path d="M866.78,234.52v-9.34h1.39v1.46h.12a2.37,2.37,0,0,1,.94-1.17,2.88,2.88,0,0,1,1.56-.41,2.56,2.56,0,0,1,2.51,1.58h.1a2.64,2.64,0,0,1,1.07-1.15,3.25,3.25,0,0,1,1.72-.43,2.8,2.8,0,0,1,2,.78,3.28,3.28,0,0,1,.8,2.43v6.25H877.6v-6.25a1.77,1.77,0,0,0-.56-1.48,2.07,2.07,0,0,0-1.33-.44,2,2,0,0,0-1.53.59,2.12,2.12,0,0,0-.54,1.5v6.08h-1.46v-6.4a1.65,1.65,0,0,0-.52-1.28,1.84,1.84,0,0,0-1.33-.49,2,2,0,0,0-1,.29,2.31,2.31,0,0,0-.78.83,2.39,2.39,0,0,0-.3,1.21v5.84Z"/><rect class="cls-4" x="640.08" y="181.44" width="65" height="65"/></g><g class="cls-7"><path class="cls-3" d="M1000.26,429.19H638.78a17,17,0,0,0-17,17v68.29a17,17,0,0,0,17,17h361.48Z"/><path d="M734.36,473.65a6.31,6.31,0,0,1-3.3-.82,5.49,5.49,0,0,1-2.12-2.28,8,8,0,0,1,0-6.74,5.46,5.46,0,0,1,2.12-2.27,6.26,6.26,0,0,1,3.28-.82,6.44,6.44,0,0,1,2.86.6,4.74,4.74,0,0,1,1.95,1.67,4.88,4.88,0,0,1,.79,2.52h-3.27A2.66,2.66,0,0,0,736,464a2.15,2.15,0,0,0-1.55-.57,2.3,2.3,0,0,0-1.4.43,2.9,2.9,0,0,0-.94,1.27,5.5,5.5,0,0,0-.33,2,5.59,5.59,0,0,0,.33,2,2.79,2.79,0,0,0,.93,1.28,2.34,2.34,0,0,0,1.41.44,2.31,2.31,0,0,0,1.07-.24,2,2,0,0,0,.79-.72,2.73,2.73,0,0,0,.42-1.12H740a5.06,5.06,0,0,1-.78,2.52,4.74,4.74,0,0,1-1.92,1.7A6.45,6.45,0,0,1,734.36,473.65Z"/><path d="M745.66,466.17v7.23h-3.47V456.71h3.37v6.38h.15a3.54,3.54,0,0,1,1.37-1.74,4.18,4.18,0,0,1,2.37-.63,4.44,4.44,0,0,1,2.28.57,3.94,3.94,0,0,1,1.51,1.62,5.45,5.45,0,0,1,.54,2.52v8H750.3v-7.35a2.53,2.53,0,0,0-.58-1.8,2.11,2.11,0,0,0-1.65-.64,2.54,2.54,0,0,0-1.25.3,2.16,2.16,0,0,0-.85.87A3,3,0,0,0,745.66,466.17Z"/><path d="M758.27,459.27a1.89,1.89,0,0,1-1.33-.51,1.65,1.65,0,0,1,0-2.48,1.85,1.85,0,0,1,1.32-.52,1.89,1.89,0,0,1,1.33.51,1.67,1.67,0,0,1,0,2.48A1.85,1.85,0,0,1,758.27,459.27Zm-1.76,14.13V460.89H760V473.4Z"/><path d="M766.23,456.71V473.4h-3.47V456.71Z"/><path d="M772.47,456.71V473.4H769V456.71Z"/><path d="M791,464.45l-3.18.2a1.63,1.63,0,0,0-.35-.74,2,2,0,0,0-.7-.53,2.85,2.85,0,0,0-2.4.14,1,1,0,0,0-.56.9,1,1,0,0,0,.36.76,2.87,2.87,0,0,0,1.23.5l2.27.45a5.69,5.69,0,0,1,2.72,1.21,2.82,2.82,0,0,1,.9,2.18,3.38,3.38,0,0,1-.73,2.16,4.68,4.68,0,0,1-2,1.45,7.36,7.36,0,0,1-2.88.52,6.76,6.76,0,0,1-4-1,4,4,0,0,1-1.72-2.83l3.41-.18a1.79,1.79,0,0,0,.75,1.15,2.76,2.76,0,0,0,1.53.4,2.67,2.67,0,0,0,1.47-.36,1.1,1.1,0,0,0,.57-.92,1,1,0,0,0-.4-.77,2.88,2.88,0,0,0-1.21-.47L784,468.2a5.13,5.13,0,0,1-2.72-1.28,3.12,3.12,0,0,1-.9-2.3,3.34,3.34,0,0,1,.66-2.08,4.21,4.21,0,0,1,1.85-1.35,7.71,7.71,0,0,1,2.8-.47,6.26,6.26,0,0,1,3.74,1A3.87,3.87,0,0,1,791,464.45Z"/><path d="M800.12,460.89v2.6h-7.54v-2.6Zm-5.83-3h3.47v11.67a1.49,1.49,0,0,0,.15.74.78.78,0,0,0,.41.37,1.66,1.66,0,0,0,.61.11,2.63,2.63,0,0,0,.49,0l.38-.06.54,2.58c-.17.05-.41.12-.73.19a5.9,5.9,0,0,1-1.15.13,5,5,0,0,1-2.19-.33,3,3,0,0,1-1.47-1.19,3.6,3.6,0,0,1-.51-2Z"/><path d="M810.4,468.07v-7.18h3.47V473.4h-3.33v-2.27h-.13A3.71,3.71,0,0,1,809,472.9a4.18,4.18,0,0,1-2.39.67,4.25,4.25,0,0,1-2.21-.57,3.9,3.9,0,0,1-1.48-1.63,5.57,5.57,0,0,1-.55-2.51v-8h3.48v7.35a2.5,2.5,0,0,0,.59,1.75,2,2,0,0,0,1.57.64,2.43,2.43,0,0,0,1.18-.29,2.2,2.2,0,0,0,.88-.86A2.59,2.59,0,0,0,810.4,468.07Z"/><path d="M821.26,473.61a4.71,4.71,0,0,1-2.58-.74,5,5,0,0,1-1.83-2.18,9.63,9.63,0,0,1,0-7.11,5,5,0,0,1,1.85-2.14,4.68,4.68,0,0,1,2.53-.72,3.89,3.89,0,0,1,1.76.36,3.41,3.41,0,0,1,1.14.88,4.44,4.44,0,0,1,.66,1h.11v-6.28h3.46V473.4H825v-2h-.15a4.22,4.22,0,0,1-.69,1,3.36,3.36,0,0,1-1.15.84A3.86,3.86,0,0,1,821.26,473.61Zm1.1-2.77a2.2,2.2,0,0,0,1.42-.46,2.83,2.83,0,0,0,.9-1.29,6.26,6.26,0,0,0,0-3.89,2.88,2.88,0,0,0-.9-1.27,2.25,2.25,0,0,0-1.42-.45,2.29,2.29,0,0,0-1.45.47,2.83,2.83,0,0,0-.88,1.29,5.29,5.29,0,0,0-.31,1.9,5.7,5.7,0,0,0,.31,1.93,2.91,2.91,0,0,0,.89,1.31A2.24,2.24,0,0,0,822.36,470.84Z"/><path d="M833.37,478.07a7,7,0,0,1-1.24-.1,5.15,5.15,0,0,1-1-.25l.79-2.6a3.12,3.12,0,0,0,1.55.15,1.49,1.49,0,0,0,1-1l.2-.53-4.49-12.87h3.65l2.59,9.19h.13l2.62-9.19h3.68L838,474.76a5.72,5.72,0,0,1-.95,1.74,4,4,0,0,1-1.51,1.16A5.24,5.24,0,0,1,833.37,478.07Z"/><path d="M850,473.4V460.89h3.31v2.2h.15a3.44,3.44,0,0,1,1.3-1.73,4.07,4.07,0,0,1,4.38,0,3.1,3.1,0,0,1,1.21,1.73h.13a3.34,3.34,0,0,1,1.39-1.72,4.31,4.31,0,0,1,2.38-.65,3.83,3.83,0,0,1,2.85,1.11,4.32,4.32,0,0,1,1.09,3.15v8.42h-3.46v-7.73a2.06,2.06,0,0,0-.55-1.57,2,2,0,0,0-1.39-.52,1.85,1.85,0,0,0-1.47.6,2.27,2.27,0,0,0-.53,1.58v7.64h-3.37v-7.8a2,2,0,0,0-.53-1.47,1.81,1.81,0,0,0-1.38-.55,2,2,0,0,0-1,.29,2.05,2.05,0,0,0-.73.81,2.7,2.7,0,0,0-.26,1.21v7.51Z"/><path d="M879,468.07v-7.18h3.47V473.4h-3.33v-2.27H879a3.71,3.71,0,0,1-1.41,1.77,4.18,4.18,0,0,1-2.39.67A4.23,4.23,0,0,1,873,473a3.9,3.9,0,0,1-1.48-1.63,5.57,5.57,0,0,1-.55-2.51v-8h3.48v7.35A2.5,2.5,0,0,0,875,470a2,2,0,0,0,1.57.64,2.43,2.43,0,0,0,1.18-.29,2.2,2.2,0,0,0,.88-.86A2.59,2.59,0,0,0,879,468.07Z"/><path d="M895.61,464.45l-3.18.2a1.63,1.63,0,0,0-.35-.74,2,2,0,0,0-.7-.53,2.85,2.85,0,0,0-2.4.14,1,1,0,0,0-.56.9,1,1,0,0,0,.36.76,2.87,2.87,0,0,0,1.23.5l2.27.45a5.69,5.69,0,0,1,2.72,1.21,2.82,2.82,0,0,1,.9,2.18,3.44,3.44,0,0,1-.73,2.16,4.68,4.68,0,0,1-2,1.45,7.36,7.36,0,0,1-2.88.52,6.76,6.76,0,0,1-4-1,4,4,0,0,1-1.72-2.83l3.41-.18a1.79,1.79,0,0,0,.75,1.15,2.76,2.76,0,0,0,1.53.4,2.67,2.67,0,0,0,1.47-.36,1.1,1.1,0,0,0,.57-.92,1,1,0,0,0-.4-.77,2.88,2.88,0,0,0-1.21-.47l-2.17-.43a5.13,5.13,0,0,1-2.72-1.28,3.12,3.12,0,0,1-.9-2.3,3.34,3.34,0,0,1,.66-2.08,4.21,4.21,0,0,1,1.85-1.35,7.71,7.71,0,0,1,2.8-.47,6.26,6.26,0,0,1,3.74,1A3.87,3.87,0,0,1,895.61,464.45Z"/><path d="M899.84,459.27a1.89,1.89,0,0,1-1.33-.51,1.67,1.67,0,0,1,0-2.48,1.85,1.85,0,0,1,1.32-.52,1.87,1.87,0,0,1,1.33.51,1.67,1.67,0,0,1,0,2.48A1.82,1.82,0,0,1,899.84,459.27Zm-1.75,14.13V460.89h3.47V473.4Z"/><path d="M910,473.65a6.33,6.33,0,0,1-3.31-.82,5.49,5.49,0,0,1-2.12-2.28,8,8,0,0,1,0-6.74,5.59,5.59,0,0,1,2.12-2.27,6.26,6.26,0,0,1,3.28-.82,6.48,6.48,0,0,1,2.87.6,4.74,4.74,0,0,1,1.95,1.67,4.88,4.88,0,0,1,.79,2.52H912.3a2.54,2.54,0,0,0-.73-1.51,2.12,2.12,0,0,0-1.54-.57,2.33,2.33,0,0,0-1.41.43,2.81,2.81,0,0,0-.93,1.27,5.49,5.49,0,0,0-.34,2,5.59,5.59,0,0,0,.33,2,2.81,2.81,0,0,0,.94,1.28,2.34,2.34,0,0,0,1.41.44,2.37,2.37,0,0,0,1.07-.24,2.09,2.09,0,0,0,.79-.72,2.59,2.59,0,0,0,.41-1.12h3.28a5.27,5.27,0,0,1-.78,2.52,4.88,4.88,0,0,1-1.92,1.7A6.48,6.48,0,0,1,910,473.65Z"/><path d="M732.67,487.82v12.45h-1.5V489.4h-.08l-3,2v-1.53l3.12-2.07Z"/><path d="M740.31,500.44a3.7,3.7,0,0,1-2.34-.75,4.63,4.63,0,0,1-1.48-2.18,12,12,0,0,1,0-6.92A4.8,4.8,0,0,1,738,488.4a4,4,0,0,1,4.66,0,4.8,4.8,0,0,1,1.49,2.19,12,12,0,0,1,0,6.92,4.63,4.63,0,0,1-1.48,2.18A3.69,3.69,0,0,1,740.31,500.44Zm0-1.34a2.34,2.34,0,0,0,2.12-1.31,7.63,7.63,0,0,0,.75-3.75,9.61,9.61,0,0,0-.34-2.75,3.75,3.75,0,0,0-1-1.73,2.16,2.16,0,0,0-1.54-.6,2.33,2.33,0,0,0-2.11,1.33,7.61,7.61,0,0,0-.76,3.75,9.51,9.51,0,0,0,.34,2.75,3.79,3.79,0,0,0,1,1.72A2.19,2.19,0,0,0,740.31,499.1Z"/><path d="M747,500.27v-1.09l4.11-4.5c.49-.53.88-1,1.19-1.38a4.69,4.69,0,0,0,.7-1.11,2.7,2.7,0,0,0,.23-1.09,2.11,2.11,0,0,0-.31-1.14,2.14,2.14,0,0,0-.86-.74,2.79,2.79,0,0,0-1.21-.26,2.49,2.49,0,0,0-1.25.3,2,2,0,0,0-.83.82,2.58,2.58,0,0,0-.28,1.24H747a3.58,3.58,0,0,1,.51-1.92,3.47,3.47,0,0,1,1.37-1.29,4.11,4.11,0,0,1,2-.46,4,4,0,0,1,1.94.46,3.41,3.41,0,0,1,1.33,1.25,3.25,3.25,0,0,1,.48,1.74,3.62,3.62,0,0,1-.25,1.34,5.72,5.72,0,0,1-.85,1.46,25.43,25.43,0,0,1-1.67,1.94l-2.8,3v.09h5.79v1.34Z"/><path d="M766.22,490.93v1.22h-4.84v-1.22Zm-3.43-2.24h1.43v8.91a1.85,1.85,0,0,0,.18.91.92.92,0,0,0,.46.4,2,2,0,0,0,.6.1,2.06,2.06,0,0,0,.39,0l.25-.05.29,1.29a2.66,2.66,0,0,1-.41.12,3.86,3.86,0,0,1-.66.05,2.78,2.78,0,0,1-1.19-.26,2.3,2.3,0,0,1-1-.79,2.24,2.24,0,0,1-.38-1.35Z"/><path d="M768.38,500.27v-9.34h1.39v1.41h.1a2.22,2.22,0,0,1,.92-1.12,2.72,2.72,0,0,1,1.51-.43h.39l.36,0v1.46l-.33-.06a3.12,3.12,0,0,0-.54,0,2.67,2.67,0,0,0-1.22.28,2.25,2.25,0,0,0-.84.78,2.15,2.15,0,0,0-.3,1.13v5.91Z"/><path d="M777.51,500.49a3.73,3.73,0,0,1-1.62-.34,2.64,2.64,0,0,1-1.57-2.53,2.32,2.32,0,0,1,.32-1.3,2.2,2.2,0,0,1,.84-.79,4.64,4.64,0,0,1,1.17-.43c.43-.1.86-.17,1.29-.23l1.39-.17a2.1,2.1,0,0,0,.78-.19.53.53,0,0,0,.24-.49v0a1.91,1.91,0,0,0-.49-1.4,2,2,0,0,0-1.48-.5,2.59,2.59,0,0,0-1.61.45,2.61,2.61,0,0,0-.82,1l-1.36-.49a3.22,3.22,0,0,1,1-1.33,3.75,3.75,0,0,1,1.34-.67,5.46,5.46,0,0,1,1.43-.19,5.19,5.19,0,0,1,1,.11,3.38,3.38,0,0,1,1.14.43,2.58,2.58,0,0,1,.91,1,3.74,3.74,0,0,1,.37,1.78v6.15h-1.44V499h-.07a2.57,2.57,0,0,1-.49.65,2.76,2.76,0,0,1-.9.59A3.55,3.55,0,0,1,777.51,500.49Zm.21-1.29a2.89,2.89,0,0,0,1.44-.33,2.33,2.33,0,0,0,.89-.87,2.2,2.2,0,0,0,.3-1.11v-1.31a.85.85,0,0,1-.4.2l-.7.15-.77.11-.61.07a5.46,5.46,0,0,0-1,.24,1.67,1.67,0,0,0-.78.48,1.2,1.2,0,0,0-.3.86,1.28,1.28,0,0,0,.56,1.13A2.39,2.39,0,0,0,777.72,499.2Z"/><path d="M788.21,500.47a3.91,3.91,0,0,1-3.72-2.33,5.83,5.83,0,0,1-.51-2.49,5.69,5.69,0,0,1,.52-2.51,4.1,4.1,0,0,1,1.47-1.71,4,4,0,0,1,2.21-.62,4.26,4.26,0,0,1,1.78.36,3.48,3.48,0,0,1,1.3,1,3.17,3.17,0,0,1,.62,1.53h-1.43a2.33,2.33,0,0,0-.73-1.14,2.21,2.21,0,0,0-1.51-.49,2.52,2.52,0,0,0-1.47.43,2.82,2.82,0,0,0-1,1.23,4.54,4.54,0,0,0-.35,1.84,5,5,0,0,0,.34,1.89,2.85,2.85,0,0,0,1,1.24,2.47,2.47,0,0,0,1.48.45,2.53,2.53,0,0,0,1-.2,2,2,0,0,0,.78-.56,2.12,2.12,0,0,0,.45-.87h1.43a3.27,3.27,0,0,1-.6,1.48,3.42,3.42,0,0,1-1.26,1.05A4,4,0,0,1,788.21,500.47Z"/><path d="M794,500.27V487.82h1.44v12.45Zm1.34-3.4,0-1.78h.29l4.09-4.16h1.77l-4.35,4.4H797Zm4.6,3.4-3.65-4.62,1-1,4.45,5.62Z"/><path d="M809.91,493l-1.29.37a2.22,2.22,0,0,0-.36-.63,1.69,1.69,0,0,0-.63-.51,2.36,2.36,0,0,0-1-.2,2.48,2.48,0,0,0-1.43.39,1.18,1.18,0,0,0-.57,1,1,1,0,0,0,.39.84,3.27,3.27,0,0,0,1.22.52l1.39.34a3.78,3.78,0,0,1,1.86.93,2.18,2.18,0,0,1,.62,1.6,2.42,2.42,0,0,1-.46,1.43,3.07,3.07,0,0,1-1.28,1,4.75,4.75,0,0,1-1.91.37,4.26,4.26,0,0,1-2.37-.62,2.76,2.76,0,0,1-1.18-1.82l1.36-.34a1.83,1.83,0,0,0,.74,1.13,2.38,2.38,0,0,0,1.42.38,2.66,2.66,0,0,0,1.6-.43,1.23,1.23,0,0,0,.59-1,1.11,1.11,0,0,0-.34-.82,2.15,2.15,0,0,0-1-.49l-1.56-.37a3.61,3.61,0,0,1-1.88-.94,2.28,2.28,0,0,1-.6-1.61,2.35,2.35,0,0,1,.44-1.4,3,3,0,0,1,1.23-.95,4.25,4.25,0,0,1,1.76-.35,3.49,3.49,0,0,1,2.18.61A3.31,3.31,0,0,1,809.91,493Z"/><path d="M820.56,498a2.48,2.48,0,0,1-1.34-.37,2.65,2.65,0,0,1-1-1,2.56,2.56,0,0,1-.36-1.34,2.62,2.62,0,0,1,.36-1.35,2.7,2.7,0,0,1,1-1,2.48,2.48,0,0,1,1.34-.37,2.51,2.51,0,0,1,1.35.37,2.87,2.87,0,0,1,1,1,2.62,2.62,0,0,1,.36,1.35,2.56,2.56,0,0,1-.36,1.34,2.81,2.81,0,0,1-1,1A2.51,2.51,0,0,1,820.56,498Z"/><path d="M835.38,500.44a4.31,4.31,0,0,1-1.93-.42,3.76,3.76,0,0,1-1.38-1.17,3.21,3.21,0,0,1-.56-1.69H833a1.93,1.93,0,0,0,.77,1.39,2.5,2.5,0,0,0,1.64.55,2.51,2.51,0,0,0,2.3-1.34,3.12,3.12,0,0,0,0-2.89,2.71,2.71,0,0,0-1-1,2.74,2.74,0,0,0-1.41-.37,3.83,3.83,0,0,0-1.18.17,3.25,3.25,0,0,0-1,.46L831.7,494l.76-6.13h6.47v1.34h-5.21l-.44,3.67h.08a3.33,3.33,0,0,1,1-.51,3.68,3.68,0,0,1,1.2-.2,3.8,3.8,0,0,1,2,.55,3.86,3.86,0,0,1,1.41,1.48,4.37,4.37,0,0,1,.52,2.16,4.15,4.15,0,0,1-.54,2.12,3.82,3.82,0,0,1-1.46,1.47A4.12,4.12,0,0,1,835.38,500.44Z"/><path d="M843.35,494.65v5.62h-1.43V487.82h1.43v4.57h.13a2.55,2.55,0,0,1,1-1.15,3.16,3.16,0,0,1,1.76-.43,3.59,3.59,0,0,1,1.68.38,2.6,2.6,0,0,1,1.11,1.16,4.3,4.3,0,0,1,.4,2v5.93H848v-5.84a2.43,2.43,0,0,0-.58-1.72,2.06,2.06,0,0,0-1.59-.61,2.61,2.61,0,0,0-1.26.3,2.23,2.23,0,0,0-.88.87A2.82,2.82,0,0,0,843.35,494.65Z"/><path d="M860.72,500.44a4.37,4.37,0,0,1-1.93-.42,3.64,3.64,0,0,1-1.37-1.17,3.22,3.22,0,0,1-.57-1.69h1.46a2,2,0,0,0,.77,1.39,2.54,2.54,0,0,0,1.64.55,2.61,2.61,0,0,0,1.37-.35,2.56,2.56,0,0,0,.94-1,2.93,2.93,0,0,0,.34-1.43,3.06,3.06,0,0,0-.35-1.46,2.71,2.71,0,0,0-1-1,2.76,2.76,0,0,0-1.42-.37,3.73,3.73,0,0,0-1.17.17,3.25,3.25,0,0,0-1,.46l-1.41-.17.75-6.13h6.47v1.34h-5.2l-.44,3.67h.07a3.61,3.61,0,0,1,1-.51,3.95,3.95,0,0,1,3.25.35,3.86,3.86,0,0,1,1.41,1.48,4.48,4.48,0,0,1,.51,2.16,4.15,4.15,0,0,1-.53,2.12,3.82,3.82,0,0,1-1.46,1.47A4.15,4.15,0,0,1,860.72,500.44Z"/><path d="M867,497.72v-1.24l5.47-8.66h.9v1.92h-.61l-4.13,6.54v.1H876v1.34Zm5.86,2.55V487.82h1.44v12.45Z"/><path d="M878.26,500.27v-9.34h1.39v1.46h.12a2.3,2.3,0,0,1,.94-1.16,2.84,2.84,0,0,1,1.56-.42,2.57,2.57,0,0,1,2.51,1.58h.1a2.76,2.76,0,0,1,1.07-1.15,3.28,3.28,0,0,1,1.72-.43,2.8,2.8,0,0,1,2.05.78,3.24,3.24,0,0,1,.8,2.43v6.25h-1.43V494a1.77,1.77,0,0,0-.57-1.48,2.13,2.13,0,0,0-1.33-.44,2,2,0,0,0-1.53.59,2.16,2.16,0,0,0-.54,1.5v6.08h-1.46v-6.4a1.65,1.65,0,0,0-.52-1.28,1.82,1.82,0,0,0-1.33-.49,1.93,1.93,0,0,0-1,.3,2.28,2.28,0,0,0-.78.82,2.41,2.41,0,0,0-.29,1.21v5.84Z"/><rect class="cls-4" x="640.08" y="448.44" width="65" height="65"/></g><g id="Playman"><path id="Face" class="cls-3" d="M430.08,332.44s13,9,17,15,11,13,12,16,12,11,12,11,3,4,2,6a18.66,18.66,0,0,1-3,4s8,22,8,24,0,8-5,7-35-4-35-4l-7-14-13-34,1-27Z"/><polygon id="Headphones" class="cls-3" points="379.94 346.75 384.56 342.38 423.43 380.03 433.08 410.5 399.79 415.68 380.37 379.03 379.94 346.75"/><path id="Playman-2" class="cls-10" d="M418.06,800.31c-2,25.13-56.91,85.21-69.3,106.54-3.7,6.36,27.4,39.81,24,47-4.62,9.74-8.51,4.38-17.78-1.11L308.3,924.63c-3.23-1.92-4.91-6-3.26-9.4,61-125.21,78.92-139,107.1-241.3a2.52,2.52,0,0,1,4.94.66C417.63,747.62,418.68,792.4,418.06,800.31Zm32.68-438.77c-.26-1.26-2.08-1.82-3-.08l2.62,12.88c1.56,1.23,3,0,2.75-1.26ZM471,384.77c11.57-10.45-7.4-13.8-10.71-22-1.82-5.51-14.46-19.35-15-19.93a84.73,84.73,0,0,0-10-9.09h0l-1.67-1.22h0c-15.52-13.12-33.16-2.73-49.12,9.88,3.19,6.4,10.88,21.66,15.22,28.92,17-6.7,35.87,23.42,20.36,34.4-15.72,11.3-38.34-17.33-25.46-31-4.21-7.08-11.38-21.25-14.74-28-24,26.17-9.93,63.47,18.6,78.08,11.94,5.81,51.48,1.58,56.69.77,8.21-1.71,23.89-5.68,24-15h0c0-.4-.1-1.77-.13-2.2l-.06,0C478,400.57,472.41,387.84,471,384.77Zm5.37,25.39c-33.87,14.53-70.87-50.3-44-74.92a85,85,0,0,1,10.16,9.18c.13.14,12.89,14.11,14.57,19.21,1.16,3.53,5.2,6.41,8.76,8.95,7.85,4.86,6.33,7.43,1.42,11.94,0,0,2.45,5.1,4.81,10.86a13.24,13.24,0,0,1-12.41-.24,1,1,0,1,0-1.08,1.66,14.94,14.94,0,0,0,10.51,1.69,16.35,16.35,0,0,0,3.72-1.26C474.93,402.43,476.71,407.79,476.4,410.16Zm117.86-30.5a23,23,0,0,0-5.69,7.41c-7.05,14.59-13.22,34.05-32.62,55.12-13.44,14.59-30.4,24.57-44.94,31.13-1.49.61-6.72,2.77-12.63,5.13-1.75.64-3.42,1.22-5,1.74a112.51,112.51,0,0,0-11.22,4.5c-1.12.39-2.09.72-2.85.95-9.08,2.72-26.58,12.32-27.32,12.73a2,2,0,1,0,1.93,3.5c.16-.09,14.6-8,23.79-11.46,1.65,10,6.53,40.16,7.55,51.17,2.94,31.66,4.36,94.94,6.63,137.68,1.74,32.81-22.43,205.29-27.25,255.47-.7,7.31,41.53,24.72,41.43,32.71-.13,10.77-5.9,7.53-16.62,6.41l-50.62-5.3a7.71,7.71,0,0,1-6.89-7.17c-13.08-200-8.47-175.86-12.21-338.81-.5-21.8-13.25-65.53-19.87-128.84-2.39-22.79,3.55-33.09,6.62-40.49,2-4.83,12.32-10.26,17.28-11.9a85.26,85.26,0,0,1,42-3.08,8.14,8.14,0,0,0,2.51.12c6.94-.76,38.68-5.1,58.26-22.69,28.77-25.85,47.56-63.2,49.33-69.21,3.68-12.51,6.62-19.88,9.57-23.56a3.49,3.49,0,0,1,2.94-1.47c8.08,1.39,2.95,14,2.95,20.61.25-.09,10.3-4.41,17.67-7.36,9.78-3.91,13.25-1.47,14.72,5.16C625.9,349.85,623.39,354.43,594.26,379.66Z"/></g></g></g></svg>